{"glyphs":{"0":{"ha":674,"x_min":0,"x_max":0,"o":"m 129 492 b 651 547 339 735 628 731 l 682 543 b 251 -74 751 397 500 -51 b 129 492 -36 -96 -90 238 m 290 493 b 349 121 160 346 185 92 b 540 419 410 132 519 281 b 488 400 519 407 501 400 b 290 493 490 531 372 588 "},"1":{"ha":472,"x_min":0,"x_max":0,"o":"m 290 681 b 503 658 374 724 496 729 b 251 -64 385 428 258 79 b 99 -96 186 -136 68 -92 b 181 399 117 113 147 275 b 104 324 157 374 132 347 b 35 476 58 331 24 401 b 250 606 78 482 147 514 b 290 681 264 636 279 663 "},"2":{"ha":622,"x_min":0,"x_max":0,"o":"m 264 85 b 503 97 356 100 447 111 b 394 -107 518 54 465 -68 b 81 -53 267 -57 186 -39 b -126 -12 -76 -126 -187 -85 b 63 65 -74 53 6 60 b 424 485 326 229 475 426 b 146 306 388 525 283 483 b 68 472 107 314 32 368 b 619 657 285 700 536 772 b 264 85 710 531 532 268 "},"3":{"ha":642,"x_min":0,"x_max":0,"o":"m 186 707 b 533 664 267 689 408 660 b 638 706 569 686 604 701 b 550 571 774 722 694 586 b 529 568 543 569 536 568 b 417 460 492 533 454 494 b 588 333 513 461 585 425 b 114 -93 592 142 308 -118 b -32 172 -57 -68 -58 100 b 183 246 35 235 171 289 b 199 21 101 76 144 18 b 365 265 253 24 364 115 b 300 350 367 308 338 335 b 274 332 289 343 281 336 b 251 432 136 263 89 381 l 269 436 b 383 544 310 474 347 513 b 126 517 275 526 168 508 b 186 707 107 597 179 703 "},"4":{"ha":657,"x_min":0,"x_max":0,"o":"m 457 628 b 219 247 369 496 297 357 b 326 246 254 250 292 249 b 532 721 403 508 483 658 b 736 675 615 760 736 749 b 494 215 653 540 561 367 b 576 178 528 204 557 192 b 499 58 579 118 503 60 l 439 78 b 394 -69 415 21 401 -31 b 240 -89 324 -139 215 -76 b 289 114 257 -15 272 51 b 121 131 226 125 169 131 b 3 51 85 94 46 67 b 25 208 -104 13 -119 138 b 160 539 107 350 160 521 b 457 628 276 658 450 672 "},"5":{"ha":619,"x_min":0,"x_max":0,"o":"m 597 706 b 631 540 635 683 650 615 b 265 519 549 496 385 501 b 256 438 267 493 263 465 b 322 450 276 442 297 444 b 219 -94 814 533 514 -49 b -12 193 14 -125 -56 19 b 182 257 42 243 121 288 b 228 24 176 239 54 3 b 215 329 396 42 499 346 b 85 349 167 261 78 292 b 154 410 86 374 111 392 b 142 551 153 453 147 507 l 132 557 b 213 649 35 624 126 715 b 229 631 219 643 225 636 b 597 706 321 640 458 664 "},"6":{"ha":597,"x_min":0,"x_max":0,"o":"m 553 517 b 554 518 557 517 558 518 b 261 433 535 526 383 549 b 281 440 269 436 275 439 b 390 22 663 581 642 242 b -32 154 186 -157 -89 -62 b 579 744 25 364 194 628 b 554 518 604 681 615 585 l 553 517 m 157 251 b 254 47 108 97 179 22 b 283 336 346 76 403 353 b 157 251 225 326 185 293 "},"7":{"ha":543,"x_min":0,"x_max":0,"o":"m 543 668 b 581 553 747 778 808 593 b 147 -76 433 414 218 106 b -37 21 79 -101 -17 -58 b 435 536 -7 90 221 350 b 50 571 268 525 97 539 b 208 746 74 626 161 726 b 543 668 338 679 464 663 "},"8":{"ha":639,"x_min":0,"x_max":0,"o":"m 433 706 b 647 643 549 711 606 681 b 604 561 643 639 631 596 b 615 553 610 558 613 554 b 525 449 592 503 563 474 b 414 -6 676 393 694 228 b -22 128 158 -219 -133 -150 b 168 354 21 231 90 301 b 433 706 72 461 228 696 m 264 307 b 275 29 86 192 118 -14 b 275 306 439 72 547 274 b 264 307 269 306 265 306 m 389 476 b 508 554 433 501 475 525 b 449 601 504 576 485 593 b 389 476 340 625 267 513 "},"9":{"ha":583,"x_min":0,"x_max":0,"o":"m 110 22 b 314 199 167 49 242 111 b 315 203 321 206 318 204 b 207 621 -65 63 -44 401 b 607 481 413 799 631 693 b 240 -99 579 243 397 22 b 110 22 178 -96 104 -65 m 314 308 b 415 361 356 314 389 333 b 343 597 478 515 417 622 b 314 308 251 567 194 290 "}," ":{"ha":414,"x_min":0,"x_max":0,"o":""},"A":{"ha":1376,"x_min":0,"x_max":0,"o":"m 79 -300 b -181 -164 -32 -328 -165 -250 b 296 361 -94 -31 85 165 b 15 321 200 357 104 343 b 86 507 1 354 13 425 b 444 496 165 528 296 519 b 1122 978 675 697 924 882 b 1176 900 1157 961 1172 928 l 1185 899 b 1178 888 1182 894 1181 890 l 1178 883 b 1175 882 1176 883 1175 882 b 1011 146 986 560 918 206 b 1371 407 1106 88 1282 215 l 1456 353 b 833 -7 1304 3 967 -99 b 801 307 765 39 760 153 b 532 360 731 332 636 350 b 79 -300 310 125 131 -125 m 633 461 b 833 414 700 446 768 431 b 989 761 871 518 924 636 b 633 461 868 675 747 572 "},"Á":{"ha":1376,"x_min":0,"x_max":0,"o":"m 79 -300 b -181 -164 -32 -328 -165 -250 b 296 361 -94 -31 85 165 b 15 321 200 357 104 343 b 86 507 1 354 13 425 b 444 496 165 528 296 519 b 1122 978 675 697 924 882 b 1176 900 1157 961 1172 928 l 1185 899 b 1178 888 1182 894 1181 890 l 1178 883 b 1175 882 1176 883 1175 882 b 1011 146 986 560 918 206 b 1371 407 1106 88 1282 215 l 1456 353 b 833 -7 1304 3 967 -99 b 801 307 765 39 760 153 b 532 360 731 332 636 350 b 79 -300 310 125 131 -125 m 633 461 b 833 414 700 446 768 431 b 989 761 871 518 924 636 b 633 461 868 675 747 572 m 1040 1088 b 1306 1326 1132 1143 1240 1228 b 1396 1161 1385 1342 1422 1250 b 1049 997 1311 1075 1161 1021 b 1040 1088 1021 1004 1024 1057 "},"Ă":{"ha":1376,"x_min":0,"x_max":0,"o":"m 79 -300 b -181 -164 -32 -328 -165 -250 b 296 361 -94 -31 85 165 b 15 321 200 357 104 343 b 86 507 1 354 13 425 b 444 496 165 528 296 519 b 1122 978 675 697 924 882 b 1176 900 1157 961 1172 928 l 1185 899 b 1178 888 1182 894 1181 890 l 1178 883 b 1175 882 1176 883 1175 882 b 1011 146 986 560 918 206 b 1371 407 1106 88 1282 215 l 1456 353 b 833 -7 1304 3 967 -99 b 801 307 765 39 760 153 b 532 360 731 332 636 350 b 79 -300 310 125 131 -125 m 633 461 b 833 414 700 446 768 431 b 989 761 871 518 924 636 b 633 461 868 675 747 572 m 947 1178 b 1160 1203 1031 1267 1154 1253 b 1319 1210 1151 1074 1240 1057 b 1446 1175 1388 1250 1461 1221 b 947 1178 1329 954 989 925 "},"Ắ":{"ha":1376,"x_min":0,"x_max":0,"o":"m 79 -300 b -181 -164 -32 -328 -165 -250 b 296 361 -94 -31 85 165 b 15 321 200 357 104 343 b 86 507 1 354 13 425 b 444 496 165 528 296 519 b 1122 978 675 697 924 882 b 1176 900 1157 961 1172 928 l 1185 899 b 1178 888 1182 894 1181 890 l 1178 883 b 1175 882 1176 883 1175 882 b 1011 146 986 560 918 206 b 1371 407 1106 88 1282 215 l 1456 353 b 833 -7 1304 3 967 -99 b 801 307 765 39 760 153 b 532 360 731 332 636 350 b 79 -300 310 125 131 -125 m 633 461 b 833 414 700 446 768 431 b 989 761 871 518 924 636 b 633 461 868 675 747 572 m 950 1176 b 1163 1201 1033 1265 1157 1251 b 1322 1208 1154 1072 1243 1056 b 1449 1174 1390 1249 1464 1219 b 950 1176 1332 953 992 924 m 1117 1329 b 1382 1568 1208 1385 1317 1469 b 1472 1403 1461 1583 1499 1492 b 1125 1239 1388 1317 1238 1263 b 1117 1329 1097 1246 1100 1299 "},"Ặ":{"ha":1376,"x_min":0,"x_max":0,"o":"m 79 -300 b -181 -164 -32 -328 -165 -250 b 296 361 -94 -31 85 165 b 15 321 200 357 104 343 b 86 507 1 354 13 425 b 444 496 165 528 296 519 b 1122 978 675 697 924 882 b 1176 900 1157 961 1172 928 l 1185 899 b 1178 888 1182 894 1181 890 l 1178 883 b 1175 882 1176 883 1175 882 b 1011 146 986 560 918 206 b 1371 407 1106 88 1282 215 l 1456 353 b 833 -7 1304 3 967 -99 b 801 307 765 39 760 153 b 532 360 731 332 636 350 b 79 -300 310 125 131 -125 m 325 -201 b 497 -61 342 -182 417 -144 b 650 -164 503 -71 557 -142 b 447 -347 606 -222 525 -307 b 325 -201 406 -312 350 -253 m 633 461 b 833 414 700 446 768 431 b 989 761 871 518 924 636 b 633 461 868 675 747 572 m 947 1178 b 1160 1203 1031 1267 1154 1253 b 1319 1210 1151 1074 1240 1057 b 1446 1175 1388 1250 1461 1221 b 947 1178 1329 954 989 925 "},"Ằ":{"ha":1376,"x_min":0,"x_max":0,"o":"m 79 -300 b -181 -164 -32 -328 -165 -250 b 296 361 -94 -31 85 165 b 15 321 200 357 104 343 b 86 507 1 354 13 425 b 444 496 165 528 296 519 b 1122 978 675 697 924 882 b 1176 900 1157 961 1172 928 l 1185 899 b 1178 888 1182 894 1181 890 l 1178 883 b 1175 882 1176 883 1175 882 b 1011 146 986 560 918 206 b 1371 407 1106 88 1282 215 l 1456 353 b 833 -7 1304 3 967 -99 b 801 307 765 39 760 153 b 532 360 731 332 636 350 b 79 -300 310 125 131 -125 m 633 461 b 833 414 700 446 768 431 b 989 761 871 518 924 636 b 633 461 868 675 747 572 m 954 1176 b 1167 1201 1038 1265 1161 1251 b 1326 1208 1158 1072 1247 1056 b 1453 1174 1394 1249 1468 1219 b 954 1176 1336 953 996 924 m 1118 1360 b 1275 1501 1128 1431 1203 1510 b 1444 1326 1300 1426 1376 1365 b 1407 1250 1451 1303 1433 1257 b 1118 1360 1300 1260 1169 1293 "},"Ẳ":{"ha":1376,"x_min":0,"x_max":0,"o":"m 79 -300 b -181 -164 -32 -328 -165 -250 b 296 361 -94 -31 85 165 b 15 321 200 357 104 343 b 86 507 1 354 13 425 b 444 496 165 528 296 519 b 1122 978 675 697 924 882 b 1176 900 1157 961 1172 928 l 1185 899 b 1178 888 1182 894 1181 890 l 1178 883 b 1175 882 1176 883 1175 882 b 1011 146 986 560 918 206 b 1371 407 1106 88 1282 215 l 1456 353 b 833 -7 1304 3 967 -99 b 801 307 765 39 760 153 b 532 360 731 332 636 350 b 79 -300 310 125 131 -125 m 633 461 b 833 414 700 446 768 431 b 989 761 871 518 924 636 b 633 461 868 675 747 572 m 969 1175 b 1182 1200 1053 1264 1176 1250 b 1342 1207 1174 1071 1263 1054 b 1468 1172 1410 1247 1483 1218 b 969 1175 1351 951 1011 922 m 1167 1243 b 1408 1476 1385 1315 1439 1438 b 1304 1483 1378 1511 1332 1497 b 1279 1540 1283 1489 1269 1513 b 1592 1592 1394 1642 1525 1667 b 1196 1185 1669 1499 1568 1296 l 1167 1243 "},"Ẵ":{"ha":1376,"x_min":0,"x_max":0,"o":"m 79 -300 b -181 -164 -32 -328 -165 -250 b 296 361 -94 -31 85 165 b 15 321 200 357 104 343 b 86 507 1 354 13 425 b 444 496 165 528 296 519 b 1122 978 675 697 924 882 b 1176 900 1157 961 1172 928 l 1185 899 b 1178 888 1182 894 1181 890 l 1178 883 b 1175 882 1176 883 1175 882 b 1011 146 986 560 918 206 b 1371 407 1106 88 1282 215 l 1456 353 b 833 -7 1304 3 967 -99 b 801 307 765 39 760 153 b 532 360 731 332 636 350 b 79 -300 310 125 131 -125 m 633 461 b 833 414 700 446 768 431 b 989 761 871 518 924 636 b 633 461 868 675 747 572 m 950 1188 b 1163 1213 1033 1276 1157 1263 b 1322 1219 1154 1083 1243 1067 b 1449 1185 1390 1260 1464 1231 b 950 1188 1332 964 992 935 m 1039 1413 b 1324 1414 1315 1660 1282 1397 b 1388 1489 1363 1429 1382 1461 b 1543 1415 1457 1521 1563 1513 b 1268 1276 1443 1300 1310 1267 b 1213 1397 1218 1285 1224 1399 b 1156 1278 1190 1394 1156 1324 b 1039 1413 1074 1247 1025 1357 "},"Ǎ":{"ha":1376,"x_min":0,"x_max":0,"o":"m 79 -300 b -181 -164 -32 -328 -165 -250 b 296 361 -94 -31 85 165 b 15 321 200 357 104 343 b 86 507 1 354 13 425 b 444 496 165 528 296 519 b 1122 978 675 697 924 882 b 1176 900 1157 961 1172 928 l 1185 899 b 1178 888 1182 894 1181 890 l 1178 883 b 1175 882 1176 883 1175 882 b 1011 146 986 560 918 206 b 1371 407 1106 88 1282 215 l 1456 353 b 833 -7 1304 3 967 -99 b 801 307 765 39 760 153 b 532 360 731 332 636 350 b 79 -300 310 125 131 -125 m 633 461 b 833 414 700 446 768 431 b 989 761 871 518 924 636 b 633 461 868 675 747 572 m 971 1192 b 1081 1292 988 1229 1026 1282 b 1158 1129 1094 1256 1124 1196 b 1336 1293 1196 1165 1258 1225 b 1401 1172 1364 1272 1401 1226 b 1201 983 1318 1118 1247 1047 b 1093 1028 1160 990 1106 1003 b 971 1192 1089 1072 1072 1099 "},"Â":{"ha":1376,"x_min":0,"x_max":0,"o":"m 79 -300 b -181 -164 -32 -328 -165 -250 b 296 361 -94 -31 85 165 b 15 321 200 357 104 343 b 86 507 1 354 13 425 b 444 496 165 528 296 519 b 1122 978 675 697 924 882 b 1176 900 1157 961 1172 928 l 1185 899 b 1178 888 1182 894 1181 890 l 1178 883 b 1175 882 1176 883 1175 882 b 1011 146 986 560 918 206 b 1371 407 1106 88 1282 215 l 1456 353 b 833 -7 1304 3 967 -99 b 801 307 765 39 760 153 b 532 360 731 332 636 350 b 79 -300 310 125 131 -125 m 633 461 b 833 414 700 446 768 431 b 989 761 871 518 924 636 b 633 461 868 675 747 572 m 972 1078 b 1171 1267 1054 1132 1125 1203 b 1281 1222 1213 1260 1268 1247 b 1401 1060 1282 1178 1299 1151 b 1292 958 1383 1021 1343 968 b 1215 1121 1278 994 1249 1056 b 1036 957 1178 1085 1114 1025 b 972 1078 1007 979 969 1024 "},"Ấ":{"ha":1376,"x_min":0,"x_max":0,"o":"m 79 -300 b -181 -164 -32 -328 -165 -250 b 296 361 -94 -31 85 165 b 15 321 200 357 104 343 b 86 507 1 354 13 425 b 444 496 165 528 296 519 b 1122 978 675 697 924 882 b 1176 900 1157 961 1172 928 l 1185 899 b 1178 888 1182 894 1181 890 l 1178 883 b 1175 882 1176 883 1175 882 b 1011 146 986 560 918 206 b 1371 407 1106 88 1282 215 l 1456 353 b 833 -7 1304 3 967 -99 b 801 307 765 39 760 153 b 532 360 731 332 636 350 b 79 -300 310 125 131 -125 m 633 461 b 833 414 700 446 768 431 b 989 761 871 518 924 636 b 633 461 868 675 747 572 m 944 1064 b 1143 1251 1026 1118 1097 1189 l 1133 1250 b 1125 1340 1106 1257 1108 1310 b 1390 1579 1217 1396 1325 1481 b 1481 1414 1469 1594 1507 1503 b 1144 1253 1399 1331 1256 1278 b 1253 1208 1186 1246 1240 1233 b 1374 1046 1254 1164 1271 1138 b 1264 944 1356 1007 1315 954 b 1188 1107 1250 981 1221 1042 b 1008 943 1150 1071 1086 1011 b 944 1064 979 965 942 1010 "},"Ậ":{"ha":1376,"x_min":0,"x_max":0,"o":"m 79 -300 b -181 -164 -32 -328 -165 -250 b 296 361 -94 -31 85 165 b 15 321 200 357 104 343 b 86 507 1 354 13 425 b 444 496 165 528 296 519 b 1122 978 675 697 924 882 b 1176 900 1157 961 1172 928 l 1185 899 b 1178 888 1182 894 1181 890 l 1178 883 b 1175 882 1176 883 1175 882 b 1011 146 986 560 918 206 b 1371 407 1106 88 1282 215 l 1456 353 b 833 -7 1304 3 967 -99 b 801 307 765 39 760 153 b 532 360 731 332 636 350 b 79 -300 310 125 131 -125 m 325 -201 b 497 -61 342 -182 417 -144 b 650 -164 503 -71 557 -142 b 447 -347 606 -222 525 -307 b 325 -201 406 -312 350 -253 m 633 461 b 833 414 700 446 768 431 b 989 761 871 518 924 636 b 633 461 868 675 747 572 m 972 1078 b 1171 1267 1054 1132 1125 1203 b 1281 1222 1213 1260 1268 1247 b 1401 1060 1282 1178 1299 1151 b 1292 958 1383 1021 1343 968 b 1215 1121 1278 994 1249 1056 b 1036 957 1178 1085 1114 1025 b 972 1078 1007 979 969 1024 "},"Ầ":{"ha":1376,"x_min":0,"x_max":0,"o":"m 79 -300 b -181 -164 -32 -328 -165 -250 b 296 361 -94 -31 85 165 b 15 321 200 357 104 343 b 86 507 1 354 13 425 b 444 496 165 528 296 519 b 1122 978 675 697 924 882 b 1176 900 1157 961 1172 928 l 1185 899 b 1178 888 1182 894 1181 890 l 1178 883 b 1175 882 1176 883 1175 882 b 1011 146 986 560 918 206 b 1371 407 1106 88 1282 215 l 1456 353 b 833 -7 1304 3 967 -99 b 801 307 765 39 760 153 b 532 360 731 332 636 350 b 79 -300 310 125 131 -125 m 633 461 b 833 414 700 446 768 431 b 989 761 871 518 924 636 b 633 461 868 675 747 572 m 954 1083 b 1153 1272 1036 1138 1107 1208 b 1263 1228 1194 1265 1250 1253 b 1383 1065 1264 1183 1281 1157 b 1274 964 1365 1026 1325 974 b 1197 1126 1260 1000 1231 1061 b 1018 963 1160 1090 1096 1031 b 954 1083 989 985 951 1029 m 1132 1390 b 1289 1532 1142 1461 1217 1540 b 1458 1357 1314 1457 1390 1396 b 1421 1281 1465 1333 1447 1288 b 1132 1390 1314 1290 1183 1324 "},"Ẩ":{"ha":1376,"x_min":0,"x_max":0,"o":"m 79 -300 b -181 -164 -32 -328 -165 -250 b 296 361 -94 -31 85 165 b 15 321 200 357 104 343 b 86 507 1 354 13 425 b 444 496 165 528 296 519 b 1122 978 675 697 924 882 b 1176 900 1157 961 1172 928 l 1185 899 b 1178 888 1182 894 1181 890 l 1178 883 b 1175 882 1176 883 1175 882 b 1011 146 986 560 918 206 b 1371 407 1106 88 1282 215 l 1456 353 b 833 -7 1304 3 967 -99 b 801 307 765 39 760 153 b 532 360 731 332 636 350 b 79 -300 310 125 131 -125 m 633 461 b 833 414 700 446 768 431 b 989 761 871 518 924 636 b 633 461 868 675 747 572 m 978 1097 b 1174 1283 1058 1150 1128 1219 l 1149 1275 l 1119 1333 b 1361 1567 1338 1406 1392 1528 b 1257 1574 1331 1601 1285 1588 b 1232 1631 1236 1579 1222 1603 b 1544 1682 1347 1732 1478 1757 b 1182 1285 1619 1592 1526 1399 b 1286 1242 1222 1278 1274 1265 b 1407 1079 1288 1197 1304 1171 b 1297 978 1389 1040 1349 988 b 1221 1140 1283 1014 1254 1075 b 1042 976 1183 1104 1119 1044 b 978 1097 1013 999 975 1043 "},"Ẫ":{"ha":1376,"x_min":0,"x_max":0,"o":"m 79 -300 b -181 -164 -32 -328 -165 -250 b 296 361 -94 -31 85 165 b 15 321 200 357 104 343 b 86 507 1 354 13 425 b 444 496 165 528 296 519 b 1122 978 675 697 924 882 b 1176 900 1157 961 1172 928 l 1185 899 b 1178 888 1182 894 1181 890 l 1178 883 b 1175 882 1176 883 1175 882 b 1011 146 986 560 918 206 b 1371 407 1106 88 1282 215 l 1456 353 b 833 -7 1304 3 967 -99 b 801 307 765 39 760 153 b 532 360 731 332 636 350 b 79 -300 310 125 131 -125 m 633 461 b 833 414 700 446 768 431 b 989 761 871 518 924 636 b 633 461 868 675 747 572 m 972 1108 b 1171 1297 1054 1163 1125 1233 b 1281 1253 1213 1290 1268 1278 b 1401 1090 1282 1208 1299 1182 b 1292 989 1383 1051 1343 999 b 1215 1151 1278 1025 1249 1086 b 1036 988 1178 1115 1114 1056 b 972 1108 1007 1010 969 1054 m 1075 1457 b 1360 1458 1351 1704 1318 1442 b 1424 1533 1399 1474 1418 1506 b 1579 1460 1493 1565 1599 1557 b 1304 1321 1479 1344 1346 1311 b 1249 1442 1254 1329 1260 1443 b 1192 1322 1226 1439 1192 1368 b 1075 1457 1110 1292 1061 1401 "},"Ä":{"ha":1376,"x_min":0,"x_max":0,"o":"m 79 -300 b -181 -164 -32 -328 -165 -250 b 296 361 -94 -31 85 165 b 15 321 200 357 104 343 b 86 507 1 354 13 425 b 444 496 165 528 296 519 b 1122 978 675 697 924 882 b 1176 900 1157 961 1172 928 l 1185 899 b 1178 888 1182 894 1181 890 l 1178 883 b 1175 882 1176 883 1175 882 b 1011 146 986 560 918 206 b 1371 407 1106 88 1282 215 l 1456 353 b 833 -7 1304 3 967 -99 b 801 307 765 39 760 153 b 532 360 731 332 636 350 b 79 -300 310 125 131 -125 m 633 461 b 833 414 700 446 768 431 b 989 761 871 518 924 636 b 633 461 868 675 747 572 m 933 1126 b 1106 1267 950 1146 1026 1186 b 1200 1185 1110 1257 1144 1215 b 1322 1286 1233 1208 1276 1240 b 1475 1183 1328 1276 1382 1206 b 1272 1000 1429 1125 1349 1040 b 1189 1085 1250 1018 1217 1050 b 1056 981 1154 1050 1108 1008 b 933 1126 1014 1017 957 1075 "},"Ǟ":{"ha":1376,"x_min":0,"x_max":0,"o":"m 79 -300 b -181 -164 -32 -328 -165 -250 b 296 361 -94 -31 85 165 b 15 321 200 357 104 343 b 86 507 1 354 13 425 b 444 496 165 528 296 519 b 1122 978 675 697 924 882 b 1176 900 1157 961 1172 928 l 1185 899 b 1178 888 1182 894 1181 890 l 1178 883 b 1175 882 1176 883 1175 882 b 1011 146 986 560 918 206 b 1371 407 1106 88 1282 215 l 1456 353 b 833 -7 1304 3 967 -99 b 801 307 765 39 760 153 b 532 360 731 332 636 350 b 79 -300 310 125 131 -125 m 633 461 b 833 414 700 446 768 431 b 989 761 871 518 924 636 b 633 461 868 675 747 572 m 933 1126 b 1106 1267 950 1146 1026 1186 b 1200 1185 1110 1257 1144 1215 b 1322 1286 1233 1208 1276 1240 b 1046 1346 1178 1289 1051 1339 b 1092 1451 1040 1374 1068 1421 b 1457 1451 1225 1439 1368 1433 b 1446 1296 1503 1419 1468 1328 b 1322 1286 1406 1288 1364 1285 b 1475 1183 1331 1274 1383 1206 b 1272 1000 1429 1125 1349 1040 b 1189 1085 1250 1018 1217 1050 b 1056 981 1154 1050 1108 1008 b 933 1126 1014 1017 957 1075 "},"Ạ":{"ha":1376,"x_min":0,"x_max":0,"o":"m 79 -300 b -181 -164 -32 -328 -165 -250 b 296 361 -94 -31 85 165 b 15 321 200 357 104 343 b 86 507 1 354 13 425 b 444 496 165 528 296 519 b 1122 978 675 697 924 882 b 1176 900 1157 961 1172 928 l 1185 899 b 1178 888 1182 894 1181 890 l 1178 883 b 1175 882 1176 883 1175 882 b 1011 146 986 560 918 206 b 1371 407 1106 88 1282 215 l 1456 353 b 833 -7 1304 3 967 -99 b 801 307 765 39 760 153 b 532 360 731 332 636 350 b 79 -300 310 125 131 -125 m 325 -201 b 497 -61 342 -182 417 -144 b 650 -164 503 -71 557 -142 b 447 -347 606 -222 525 -307 b 325 -201 406 -312 350 -253 m 633 461 b 833 414 700 446 768 431 b 989 761 871 518 924 636 b 633 461 868 675 747 572 "},"À":{"ha":1376,"x_min":0,"x_max":0,"o":"m 79 -300 b -181 -164 -32 -328 -165 -250 b 296 361 -94 -31 85 165 b 15 321 200 357 104 343 b 86 507 1 354 13 425 b 444 496 165 528 296 519 b 1122 978 675 697 924 882 b 1176 900 1157 961 1172 928 l 1185 899 b 1178 888 1182 894 1181 890 l 1178 883 b 1175 882 1176 883 1175 882 b 1011 146 986 560 918 206 b 1371 407 1106 88 1282 215 l 1456 353 b 833 -7 1304 3 967 -99 b 801 307 765 39 760 153 b 532 360 731 332 636 350 b 79 -300 310 125 131 -125 m 633 461 b 833 414 700 446 768 431 b 989 761 871 518 924 636 b 633 461 868 675 747 572 m 1038 1118 b 1194 1260 1047 1189 1122 1268 b 1364 1085 1219 1185 1296 1124 b 1326 1008 1371 1061 1353 1015 b 1038 1118 1219 1018 1089 1051 "},"Ả":{"ha":1376,"x_min":0,"x_max":0,"o":"m 79 -300 b -181 -164 -32 -328 -165 -250 b 296 361 -94 -31 85 165 b 15 321 200 357 104 343 b 86 507 1 354 13 425 b 444 496 165 528 296 519 b 1122 978 675 697 924 882 b 1176 900 1157 961 1172 928 l 1185 899 b 1178 888 1182 894 1181 890 l 1178 883 b 1175 882 1176 883 1175 882 b 1011 146 986 560 918 206 b 1371 407 1106 88 1282 215 l 1456 353 b 833 -7 1304 3 967 -99 b 801 307 765 39 760 153 b 532 360 731 332 636 350 b 79 -300 310 125 131 -125 m 633 461 b 833 414 700 446 768 431 b 989 761 871 518 924 636 b 633 461 868 675 747 572 m 1001 1047 b 1243 1281 1219 1119 1274 1242 b 1139 1288 1213 1315 1167 1301 b 1114 1344 1118 1293 1104 1317 b 1426 1396 1229 1446 1360 1471 b 1031 989 1504 1303 1403 1100 l 1001 1047 "},"Ā":{"ha":1376,"x_min":0,"x_max":0,"o":"m 79 -300 b -181 -164 -32 -328 -165 -250 b 296 361 -94 -31 85 165 b 15 321 200 357 104 343 b 86 507 1 354 13 425 b 444 496 165 528 296 519 b 1122 978 675 697 924 882 b 1176 900 1157 961 1172 928 l 1185 899 b 1178 888 1182 894 1181 890 l 1178 883 b 1175 882 1176 883 1175 882 b 1011 146 986 560 918 206 b 1371 407 1106 88 1282 215 l 1456 353 b 833 -7 1304 3 967 -99 b 801 307 765 39 760 153 b 532 360 731 332 636 350 b 79 -300 310 125 131 -125 m 633 461 b 833 414 700 446 768 431 b 989 761 871 518 924 636 b 633 461 868 675 747 572 m 944 1064 b 990 1169 939 1092 967 1139 b 1356 1169 1124 1157 1267 1151 b 1344 1014 1401 1138 1367 1046 b 944 1064 1160 975 951 1056 "},"Ą":{"ha":1376,"x_min":0,"x_max":0,"o":"m 79 -300 b -181 -164 -32 -328 -165 -250 b 296 361 -94 -31 85 165 b 15 321 200 357 104 343 b 86 507 1 354 13 425 b 444 496 165 528 296 519 b 1122 978 675 697 924 882 b 1176 900 1157 961 1172 928 l 1185 899 b 1178 888 1182 894 1181 890 l 1178 883 b 1175 882 1176 883 1175 882 b 1011 146 986 560 918 206 b 1371 407 1106 88 1282 215 l 1456 353 b 1017 -33 1354 118 1168 -6 b 832 -244 846 -106 804 -210 b 936 -251 863 -279 908 -265 b 961 -308 957 -257 971 -281 b 649 -360 847 -410 715 -435 b 864 -24 585 -283 640 -136 b 833 -7 853 -18 843 -14 b 801 307 765 39 760 153 b 532 360 731 332 636 350 b 79 -300 310 125 131 -125 m 633 461 b 833 414 700 446 768 431 b 989 761 871 518 924 636 b 633 461 868 675 747 572 "},"Å":{"ha":1376,"x_min":0,"x_max":0,"o":"m 79 -300 b -181 -164 -32 -328 -165 -250 b 296 361 -94 -31 85 165 b 15 321 200 357 104 343 b 86 507 1 354 13 425 b 444 496 165 528 296 519 b 1122 978 675 697 924 882 b 1176 900 1157 961 1172 928 l 1185 899 b 1178 888 1182 894 1181 890 l 1178 883 b 1175 882 1176 883 1175 882 b 1011 146 986 560 918 206 b 1371 407 1106 88 1282 215 l 1456 353 b 833 -7 1304 3 967 -99 b 801 307 765 39 760 153 b 532 360 731 332 636 350 b 79 -300 310 125 131 -125 m 633 461 b 833 414 700 446 768 431 b 989 761 871 518 924 636 b 633 461 868 675 747 572 m 1193 1015 b 1299 1311 864 950 994 1242 b 1193 1015 1617 1381 1511 1078 m 1197 1100 b 1264 1217 1260 1107 1374 1226 b 1197 1100 1154 1206 1122 1092 "},"Ã":{"ha":1376,"x_min":0,"x_max":0,"o":"m 79 -300 b -181 -164 -32 -328 -165 -250 b 296 361 -94 -31 85 165 b 15 321 200 357 104 343 b 86 507 1 354 13 425 b 444 496 165 528 296 519 b 1122 978 675 697 924 882 b 1176 900 1157 961 1172 928 l 1185 899 b 1178 888 1182 894 1181 890 l 1178 883 b 1175 882 1176 883 1175 882 b 1011 146 986 560 918 206 b 1371 407 1106 88 1282 215 l 1456 353 b 833 -7 1304 3 967 -99 b 801 307 765 39 760 153 b 532 360 731 332 636 350 b 79 -300 310 125 131 -125 m 633 461 b 833 414 700 446 768 431 b 989 761 871 518 924 636 b 633 461 868 675 747 572 m 963 1160 b 1247 1161 1239 1407 1206 1144 b 1311 1236 1286 1176 1306 1208 b 1467 1163 1381 1268 1486 1260 b 1192 1024 1367 1047 1233 1014 b 1136 1144 1142 1032 1147 1146 b 1079 1025 1114 1142 1079 1071 b 963 1160 997 994 949 1104 "},"Æ":{"ha":1872,"x_min":0,"x_max":0,"o":"m 79 -300 b -181 -164 -32 -328 -165 -250 b 296 361 -94 -31 85 165 b 15 321 200 357 104 343 b 86 507 1 354 13 425 b 444 496 165 528 296 519 b 1122 978 675 697 924 882 b 1164 936 1142 968 1156 953 b 1685 944 1331 1018 1554 1031 b 1694 544 1872 819 1679 643 b 1422 603 1640 521 1457 528 b 1585 856 1465 738 1638 782 b 1146 546 1504 961 1165 833 b 1418 439 1339 567 1443 526 b 1063 415 1393 354 1186 315 b 1072 31 913 332 897 118 b 1871 407 1292 -79 1749 96 l 1957 354 b 889 -97 1782 -61 1211 -257 b 740 326 672 10 661 190 b 532 360 679 342 608 353 b 79 -300 310 125 131 -125 m 633 461 b 814 418 694 447 756 433 b 985 501 864 463 924 493 b 967 746 939 593 938 675 b 633 461 854 663 740 565 "},"Ǣ":{"ha":1872,"x_min":0,"x_max":0,"o":"m 79 -300 b -181 -164 -32 -328 -165 -250 b 296 361 -94 -31 85 165 b 15 321 200 357 104 343 b 86 507 1 354 13 425 b 444 496 165 528 296 519 b 1122 978 675 697 924 882 b 1164 936 1142 968 1156 953 b 1685 944 1331 1018 1554 1031 b 1694 544 1872 819 1679 643 b 1422 603 1640 521 1457 528 b 1585 856 1465 738 1638 782 b 1146 546 1504 961 1165 833 b 1418 439 1339 567 1443 526 b 1063 415 1393 354 1186 315 b 1072 31 913 332 897 118 b 1871 407 1292 -79 1749 96 l 1957 354 b 889 -97 1782 -61 1211 -257 b 740 326 672 10 661 190 b 532 360 679 342 608 353 b 79 -300 310 125 131 -125 m 633 461 b 814 418 694 447 756 433 b 985 501 864 463 924 493 b 967 746 939 593 938 675 b 633 461 854 663 740 565 m 944 1064 b 990 1169 939 1092 967 1139 b 1356 1169 1124 1157 1267 1151 b 1344 1014 1401 1138 1367 1046 b 944 1064 1160 975 951 1056 "},"B":{"ha":1394,"x_min":0,"x_max":0,"o":"m 636 -193 b 58 207 386 -217 42 -104 b 272 235 96 239 207 268 b 728 -75 207 31 385 -150 b 896 340 1082 1 1044 243 b 657 342 822 329 743 329 b 532 -32 600 235 551 113 b 343 65 467 -57 353 1 b 772 906 383 265 642 522 b 954 867 814 924 972 890 b 707 431 924 733 810 600 b 1046 881 1089 367 1264 710 b 283 675 821 1057 443 792 b 178 839 226 693 174 747 b 1197 971 447 963 853 1143 b 1139 426 1429 854 1378 574 b 636 -193 1349 238 1126 -151 "},"Ḅ":{"ha":1394,"x_min":0,"x_max":0,"o":"m 636 -193 b 58 207 386 -217 42 -104 b 272 235 96 239 207 268 b 728 -75 207 31 385 -150 b 896 340 1082 1 1044 243 b 657 342 822 329 743 329 b 532 -32 600 235 551 113 b 343 65 467 -57 353 1 b 772 906 383 265 642 522 b 954 867 814 924 972 890 b 707 431 924 733 810 600 b 1046 881 1089 367 1264 710 b 283 675 821 1057 443 792 b 178 839 226 693 174 747 b 1197 971 447 963 853 1143 b 1139 426 1429 854 1378 574 b 636 -193 1349 238 1126 -151 m 333 -349 b 506 -208 350 -329 425 -292 b 658 -311 511 -218 565 -289 b 456 -494 614 -369 533 -454 b 333 -349 414 -460 358 -400 "},"Ƀ":{"ha":1394,"x_min":0,"x_max":0,"o":"m 636 -193 b 58 207 386 -217 42 -104 b 272 235 96 239 207 268 b 265 97 257 186 256 140 b 372 303 267 181 324 260 b 463 318 403 308 432 314 b 772 906 558 475 690 665 b 954 867 814 924 972 890 b 707 431 924 733 810 600 b 1046 881 1089 367 1264 710 b 283 675 821 1057 443 792 b 178 839 226 693 174 747 b 1197 971 447 963 853 1143 b 1139 426 1429 854 1378 574 b 636 -193 1349 238 1126 -151 m 275 69 b 728 -75 324 -53 485 -128 b 896 340 1082 1 1044 243 b 657 342 822 329 743 329 l 647 325 b 839 282 728 319 796 306 b 790 108 839 201 825 164 b 569 138 740 126 661 140 b 532 -32 553 85 540 28 b 343 65 467 -57 353 1 b 353 101 346 76 349 89 b 275 69 326 93 300 82 "},"C":{"ha":1156,"x_min":0,"x_max":0,"o":"m 214 -82 b 964 944 -394 272 461 1272 b 924 490 1153 821 907 588 b 651 550 872 468 686 472 b 864 856 694 681 917 782 b 382 669 776 972 528 874 b 385 53 243 471 197 167 b 1150 407 590 -75 1028 96 l 1238 354 b 214 -82 1063 -62 525 -264 "},"Ć":{"ha":1156,"x_min":0,"x_max":0,"o":"m 214 -82 b 701 1008 -297 215 224 968 b 703 1093 685 1024 689 1067 b 968 1332 794 1149 903 1233 b 1058 1167 1047 1347 1085 1256 b 740 1010 981 1088 849 1036 b 964 944 818 1010 894 990 b 924 490 1153 821 907 588 b 651 550 872 468 686 472 b 864 856 694 681 917 782 b 382 669 776 972 528 874 b 385 53 243 471 197 167 b 1150 407 590 -75 1028 96 l 1238 354 b 214 -82 1063 -62 525 -264 "},"Č":{"ha":1156,"x_min":0,"x_max":0,"o":"m 214 -82 b 793 1007 -329 235 296 1067 b 756 1033 775 1014 761 1022 b 633 1197 751 1078 735 1104 b 743 1297 650 1235 689 1288 b 821 1135 757 1261 786 1201 b 999 1299 858 1171 921 1231 b 1064 1178 1026 1278 1064 1232 b 865 992 982 1124 911 1054 b 964 944 900 981 932 965 b 924 490 1153 821 907 588 b 651 550 872 468 686 472 b 864 856 694 681 917 782 b 382 669 776 972 528 874 b 385 53 243 471 197 167 b 1150 407 590 -75 1028 96 l 1238 354 b 214 -82 1063 -62 525 -264 "},"Ç":{"ha":1156,"x_min":0,"x_max":0,"o":"m 214 -82 b 964 944 -394 272 461 1272 b 924 490 1153 821 907 588 b 651 550 872 468 686 472 b 864 856 694 681 917 782 b 382 669 776 972 528 874 b 385 53 243 471 197 167 b 1150 407 590 -75 1028 96 l 1238 354 b 371 -139 1089 1 681 -197 l 340 -164 b 469 -419 499 -186 556 -315 b 47 -451 379 -526 157 -546 b 85 -385 44 -431 57 -397 b 286 -346 163 -418 240 -403 b 150 -244 331 -287 294 -228 l 192 -172 l 281 -114 b 214 -82 258 -106 235 -94 "},"Ĉ":{"ha":1156,"x_min":0,"x_max":0,"o":"m 214 -82 b 660 1003 -282 207 194 925 b 635 1083 644 1025 633 1053 b 833 1272 717 1138 788 1208 b 943 1228 875 1265 931 1253 b 1064 1065 944 1183 961 1157 b 954 964 1046 1026 1006 974 b 878 1126 940 1000 911 1061 b 751 1010 849 1099 806 1057 b 964 944 825 1008 897 988 b 924 490 1153 821 907 588 b 651 550 872 468 686 472 b 864 856 694 681 917 782 b 382 669 776 972 528 874 b 385 53 243 471 197 167 b 1150 407 590 -75 1028 96 l 1238 354 b 214 -82 1063 -62 525 -264 "},"Ċ":{"ha":1156,"x_min":0,"x_max":0,"o":"m 214 -82 b 964 944 -394 272 461 1272 b 924 490 1153 821 907 588 b 651 550 872 468 686 472 b 864 856 694 681 917 782 b 382 669 776 972 528 874 b 385 53 243 471 197 167 b 1150 407 590 -75 1028 96 l 1238 354 b 214 -82 1063 -62 525 -264 m 715 1160 b 888 1300 732 1179 807 1217 b 1040 1197 893 1290 947 1219 b 838 1014 996 1139 915 1054 b 715 1160 796 1050 740 1108 "},"D":{"ha":1529,"x_min":0,"x_max":0,"o":"m 546 -32 b 357 65 481 -57 367 1 b 785 906 397 265 656 522 b 967 865 829 924 990 889 b 546 -32 913 632 604 400 m 58 207 b 274 235 96 239 207 268 b 728 -75 207 31 385 -149 b 1033 911 1182 21 1363 746 b 285 675 776 1040 444 793 b 178 839 225 693 175 747 b 1197 971 447 963 853 1143 b 753 -176 1703 718 1333 -67 b 58 207 347 -251 42 -104 "},"Ɖ":{"ha":1529,"x_min":0,"x_max":0,"o":"m 546 -32 b 357 65 481 -57 367 1 b 489 338 374 146 425 235 b 343 285 439 326 389 310 b 447 522 326 378 392 474 b 615 544 504 533 561 540 b 785 906 678 650 739 771 b 967 865 829 924 990 889 b 789 538 943 761 868 658 b 914 501 839 531 883 518 b 865 328 914 421 900 383 b 678 357 822 343 754 356 b 546 -32 618 246 567 119 m 58 207 b 274 235 96 239 207 268 b 728 -75 207 31 385 -149 b 1033 911 1182 21 1363 746 b 285 675 776 1040 444 793 b 178 839 225 693 175 747 b 1197 971 447 963 853 1143 b 753 -176 1703 718 1333 -67 b 58 207 347 -251 42 -104 "},"Ð":{"ha":1529,"x_min":0,"x_max":0,"o":"m 546 -32 b 357 65 481 -57 367 1 b 489 338 374 146 425 235 b 343 285 439 326 389 310 b 447 522 326 378 392 474 b 615 544 504 533 561 540 b 785 906 678 650 739 771 b 967 865 829 924 990 889 b 789 538 943 761 868 658 b 914 501 839 531 883 518 b 865 328 914 421 900 383 b 678 357 822 343 754 356 b 546 -32 618 246 567 119 m 58 207 b 274 235 96 239 207 268 b 728 -75 207 31 385 -149 b 1033 911 1182 21 1363 746 b 285 675 776 1040 444 793 b 178 839 225 693 175 747 b 1197 971 447 963 853 1143 b 753 -176 1703 718 1333 -67 b 58 207 347 -251 42 -104 "},"Ď":{"ha":1529,"x_min":0,"x_max":0,"o":"m 546 -32 b 357 65 481 -57 367 1 b 785 906 397 265 656 522 b 967 865 829 924 990 889 b 546 -32 913 632 604 400 m 58 207 b 274 235 96 239 207 268 b 728 -75 207 31 385 -149 b 1033 911 1182 21 1363 746 b 285 675 776 1040 444 793 b 178 839 225 693 175 747 b 1026 1028 404 943 725 1086 b 1021 1036 1024 1031 1022 1033 b 899 1200 1017 1081 1000 1107 b 1008 1300 915 1238 954 1290 b 1086 1138 1022 1264 1051 1204 b 1264 1301 1124 1174 1186 1233 b 1329 1181 1292 1281 1329 1235 b 1133 999 1249 1128 1181 1061 b 1197 971 1156 990 1176 982 b 753 -176 1703 718 1333 -67 b 58 207 347 -251 42 -104 "},"Đ":{"ha":1529,"x_min":0,"x_max":0,"o":"m 546 -32 b 357 65 481 -57 367 1 b 489 338 374 146 425 235 b 343 285 439 326 389 310 b 447 522 326 378 392 474 b 615 544 504 533 561 540 b 785 906 678 650 739 771 b 967 865 829 924 990 889 b 789 538 943 761 868 658 b 914 501 839 531 883 518 b 865 328 914 421 900 383 b 678 357 822 343 754 356 b 546 -32 618 246 567 119 m 58 207 b 274 235 96 239 207 268 b 728 -75 207 31 385 -149 b 1033 911 1182 21 1363 746 b 285 675 776 1040 444 793 b 178 839 225 693 175 747 b 1197 971 447 963 853 1143 b 753 -176 1703 718 1333 -67 b 58 207 347 -251 42 -104 "},"Ḍ":{"ha":1529,"x_min":0,"x_max":0,"o":"m 546 -32 b 357 65 481 -57 367 1 b 785 906 397 265 656 522 b 967 865 829 924 990 889 b 546 -32 913 632 604 400 m 58 207 b 274 235 96 239 207 268 b 728 -75 207 31 385 -149 b 1033 911 1182 21 1363 746 b 285 675 776 1040 444 793 b 178 839 225 693 175 747 b 1197 971 447 963 853 1143 b 753 -176 1703 718 1333 -67 b 58 207 347 -251 42 -104 m 239 -368 b 411 -228 256 -349 331 -311 b 564 -331 417 -237 471 -308 b 361 -514 519 -389 439 -474 b 239 -368 319 -479 264 -419 "},"Ḏ":{"ha":1529,"x_min":0,"x_max":0,"o":"m 546 -32 b 357 65 481 -57 367 1 b 785 906 397 265 656 522 b 967 865 829 924 990 889 b 546 -32 913 632 604 400 m 58 207 b 274 235 96 239 207 268 b 728 -75 207 31 385 -149 b 1033 911 1182 21 1363 746 b 285 675 776 1040 444 793 b 178 839 225 693 175 747 b 1197 971 447 963 853 1143 b 753 -176 1703 718 1333 -67 b 58 207 347 -251 42 -104 m 192 -354 b 238 -249 186 -326 214 -278 b 603 -247 371 -261 514 -267 b 592 -403 649 -279 614 -371 b 192 -354 407 -442 199 -361 "},"E":{"ha":1135,"x_min":0,"x_max":0,"o":"m 147 -97 b 243 501 -217 82 -1 469 b 943 944 44 896 681 1117 b 953 544 1131 819 938 643 b 681 603 899 521 715 528 b 843 856 724 738 896 782 b 404 546 763 961 424 833 b 676 439 597 567 701 526 b 321 415 651 354 444 315 b 331 31 171 332 156 118 b 1129 407 550 -79 1007 96 l 1215 354 b 147 -97 1040 -61 469 -257 "},"É":{"ha":1135,"x_min":0,"x_max":0,"o":"m 147 -97 b 243 501 -217 82 -1 469 b 943 944 44 896 681 1117 b 953 544 1131 819 938 643 b 681 603 899 521 715 528 b 843 856 724 738 896 782 b 404 546 763 961 424 833 b 676 439 597 567 701 526 b 321 415 651 354 444 315 b 331 31 171 332 156 118 b 1129 407 550 -79 1007 96 l 1215 354 b 147 -97 1040 -61 469 -257 m 656 1113 b 921 1351 747 1168 856 1253 b 1011 1186 1000 1367 1038 1275 b 664 1022 926 1100 776 1046 b 656 1113 636 1029 639 1082 "},"Ě":{"ha":1135,"x_min":0,"x_max":0,"o":"m 147 -97 b 243 501 -217 82 -1 469 b 943 944 44 896 681 1117 b 953 544 1131 819 938 643 b 681 603 899 521 715 528 b 843 856 724 738 896 782 b 404 546 763 961 424 833 b 676 439 597 567 701 526 b 321 415 651 354 444 315 b 331 31 171 332 156 118 b 1129 407 550 -79 1007 96 l 1215 354 b 147 -97 1040 -61 469 -257 m 586 1217 b 696 1317 603 1254 642 1307 b 774 1154 710 1281 739 1221 b 951 1318 811 1190 874 1250 b 1017 1197 979 1297 1017 1251 b 817 1008 933 1143 863 1072 b 708 1053 775 1015 721 1028 b 586 1217 704 1097 688 1124 "},"Ȩ":{"ha":1135,"x_min":0,"x_max":0,"o":"m 147 -97 b 243 501 -217 82 -1 469 b 943 944 44 896 681 1117 b 953 544 1131 819 938 643 b 681 603 899 521 715 528 b 843 856 724 738 896 782 b 404 546 763 961 424 833 b 676 439 597 567 701 526 b 321 415 651 354 444 315 b 331 31 171 332 156 118 b 1129 407 550 -79 1007 96 l 1215 354 b 311 -146 1067 3 635 -192 l 290 -162 b 419 -418 449 -185 506 -314 b -4 -450 329 -525 107 -544 b 35 -383 -6 -429 7 -396 b 236 -344 113 -417 190 -401 b 100 -243 281 -286 244 -226 l 142 -171 l 214 -124 b 147 -97 190 -117 168 -108 "},"Ê":{"ha":1135,"x_min":0,"x_max":0,"o":"m 147 -97 b 243 501 -217 82 -1 469 b 632 999 106 775 369 965 b 588 1103 608 1024 585 1060 b 786 1292 669 1157 740 1228 b 896 1247 828 1285 883 1272 b 1017 1085 897 1203 914 1176 b 907 983 999 1046 958 993 b 831 1146 893 1019 864 1081 b 675 1003 797 1114 742 1063 b 943 944 775 1008 872 990 b 953 544 1131 819 938 643 b 681 603 899 521 715 528 b 843 856 724 738 896 782 b 404 546 763 961 424 833 b 676 439 597 567 701 526 b 321 415 651 354 444 315 b 331 31 171 332 156 118 b 1129 407 550 -79 1007 96 l 1215 354 b 147 -97 1040 -61 469 -257 "},"Ế":{"ha":1135,"x_min":0,"x_max":0,"o":"m 147 -97 b 243 501 -217 82 -1 469 b 597 993 111 763 347 949 b 560 1089 576 1017 558 1050 b 758 1276 642 1143 713 1214 l 749 1275 b 740 1365 721 1282 724 1335 b 1006 1604 832 1421 940 1506 b 1096 1439 1085 1619 1122 1528 b 760 1278 1014 1356 871 1303 b 868 1233 801 1271 856 1258 b 989 1071 869 1189 886 1163 b 890 972 972 1035 936 986 b 943 944 908 964 926 956 b 953 544 1131 819 938 643 b 681 603 899 521 715 528 b 843 856 724 738 896 782 b 404 546 763 961 424 833 b 676 439 597 567 701 526 b 321 415 651 354 444 315 b 331 31 171 332 156 118 b 1129 407 550 -79 1007 96 l 1215 354 b 147 -97 1040 -61 469 -257 m 661 1001 b 876 978 738 1008 813 1000 b 803 1132 861 1014 833 1071 b 661 1001 772 1101 722 1056 "},"Ệ":{"ha":1135,"x_min":0,"x_max":0,"o":"m 147 -97 b 243 501 -217 82 -1 469 b 632 999 106 775 369 965 b 588 1103 608 1024 585 1060 b 786 1292 669 1157 740 1228 b 896 1247 828 1285 883 1272 b 1017 1085 897 1203 914 1176 b 907 983 999 1046 958 993 b 831 1146 893 1019 864 1081 b 675 1003 797 1114 742 1063 b 943 944 775 1008 872 990 b 953 544 1131 819 938 643 b 681 603 899 521 715 528 b 843 856 724 738 896 782 b 404 546 763 961 424 833 b 676 439 597 567 701 526 b 321 415 651 354 444 315 b 331 31 171 332 156 118 b 1129 407 550 -79 1007 96 l 1215 354 b 147 -97 1040 -61 469 -257 m 99 -317 b 271 -176 115 -297 190 -260 b 424 -279 276 -186 331 -257 b 221 -462 379 -337 299 -422 b 99 -317 179 -428 124 -368 "},"Ề":{"ha":1135,"x_min":0,"x_max":0,"o":"m 147 -97 b 243 501 -217 82 -1 469 b 622 997 107 772 363 961 b 569 1108 596 1021 567 1061 b 768 1297 651 1163 722 1233 b 878 1253 810 1290 865 1278 b 999 1090 879 1208 896 1182 b 889 989 981 1051 940 999 b 813 1151 875 1025 846 1086 b 647 1000 778 1118 719 1063 b 943 944 758 1011 867 994 b 953 544 1131 819 938 643 b 681 603 899 521 715 528 b 843 856 724 738 896 782 b 404 546 763 961 424 833 b 676 439 597 567 701 526 b 321 415 651 354 444 315 b 331 31 171 332 156 118 b 1129 407 550 -79 1007 96 l 1215 354 b 147 -97 1040 -61 469 -257 m 747 1415 b 904 1557 757 1486 832 1565 b 1074 1382 929 1482 1006 1421 b 1036 1306 1081 1358 1063 1313 b 747 1415 929 1315 799 1349 "},"Ể":{"ha":1135,"x_min":0,"x_max":0,"o":"m 147 -97 b 243 501 -217 82 -1 469 b 943 944 44 896 681 1117 b 953 544 1131 819 938 643 b 681 603 899 521 715 528 b 843 856 724 738 896 782 b 404 546 763 961 424 833 b 676 439 597 567 701 526 b 321 415 651 354 444 315 b 331 31 171 332 156 118 b 1129 407 550 -79 1007 96 l 1215 354 b 147 -97 1040 -61 469 -257 m 593 1122 b 789 1308 674 1175 743 1244 l 764 1300 l 735 1358 b 976 1592 953 1431 1007 1553 b 872 1599 946 1626 900 1613 b 847 1656 851 1604 838 1628 b 1160 1707 963 1757 1093 1782 b 797 1310 1235 1617 1142 1424 b 901 1267 838 1303 889 1290 b 1022 1104 903 1222 919 1196 b 913 1003 1004 1065 964 1013 b 836 1165 899 1039 869 1100 b 657 1001 799 1129 735 1069 b 593 1122 628 1024 590 1068 "},"Ễ":{"ha":1135,"x_min":0,"x_max":0,"o":"m 147 -97 b 243 501 -217 82 -1 469 b 943 944 44 896 681 1117 b 953 544 1131 819 938 643 b 681 603 899 521 715 528 b 843 856 724 738 896 782 b 404 546 763 961 424 833 b 676 439 597 567 701 526 b 321 415 651 354 444 315 b 331 31 171 332 156 118 b 1129 407 550 -79 1007 96 l 1215 354 b 147 -97 1040 -61 469 -257 m 588 1133 b 786 1322 669 1188 740 1258 b 896 1278 828 1315 883 1303 b 1017 1115 897 1233 914 1207 b 907 1014 999 1076 958 1024 b 831 1176 893 1050 864 1111 b 651 1013 793 1140 729 1081 b 588 1133 622 1035 585 1079 m 690 1482 b 975 1483 967 1729 933 1467 b 1039 1558 1014 1499 1033 1531 b 1194 1485 1108 1590 1214 1582 b 919 1346 1094 1369 961 1336 b 864 1467 869 1354 875 1468 b 807 1347 842 1464 807 1393 b 690 1482 725 1317 676 1426 "},"Ë":{"ha":1135,"x_min":0,"x_max":0,"o":"m 147 -97 b 243 501 -217 82 -1 469 b 943 944 44 896 681 1117 b 953 544 1131 819 938 643 b 681 603 899 521 715 528 b 843 856 724 738 896 782 b 404 546 763 961 424 833 b 676 439 597 567 701 526 b 321 415 651 354 444 315 b 331 31 171 332 156 118 b 1129 407 550 -79 1007 96 l 1215 354 b 147 -97 1040 -61 469 -257 m 549 1151 b 721 1292 565 1171 642 1211 b 815 1210 725 1282 760 1240 b 938 1311 849 1233 892 1265 b 1090 1208 943 1301 997 1231 b 888 1025 1044 1150 964 1065 b 804 1110 865 1043 832 1075 b 671 1006 769 1075 724 1033 b 549 1151 629 1042 572 1100 "},"Ė":{"ha":1135,"x_min":0,"x_max":0,"o":"m 147 -97 b 243 501 -217 82 -1 469 b 943 944 44 896 681 1117 b 953 544 1131 819 938 643 b 681 603 899 521 715 528 b 843 856 724 738 896 782 b 404 546 763 961 424 833 b 676 439 597 567 701 526 b 321 415 651 354 444 315 b 331 31 171 332 156 118 b 1129 407 550 -79 1007 96 l 1215 354 b 147 -97 1040 -61 469 -257 m 668 1179 b 840 1319 685 1199 760 1236 b 993 1217 846 1310 900 1239 b 790 1033 949 1158 868 1074 b 668 1179 749 1069 693 1128 "},"Ẹ":{"ha":1135,"x_min":0,"x_max":0,"o":"m 147 -97 b 243 501 -217 82 -1 469 b 943 944 44 896 681 1117 b 953 544 1131 819 938 643 b 681 603 899 521 715 528 b 843 856 724 738 896 782 b 404 546 763 961 424 833 b 676 439 597 567 701 526 b 321 415 651 354 444 315 b 331 31 171 332 156 118 b 1129 407 550 -79 1007 96 l 1215 354 b 147 -97 1040 -61 469 -257 m 99 -317 b 271 -176 115 -297 190 -260 b 424 -279 276 -186 331 -257 b 221 -462 379 -337 299 -422 b 99 -317 179 -428 124 -368 "},"È":{"ha":1135,"x_min":0,"x_max":0,"o":"m 147 -97 b 243 501 -217 82 -1 469 b 943 944 44 896 681 1117 b 953 544 1131 819 938 643 b 681 603 899 521 715 528 b 843 856 724 738 896 782 b 404 546 763 961 424 833 b 676 439 597 567 701 526 b 321 415 651 354 444 315 b 331 31 171 332 156 118 b 1129 407 550 -79 1007 96 l 1215 354 b 147 -97 1040 -61 469 -257 m 653 1143 b 810 1285 663 1214 738 1293 b 979 1110 835 1210 911 1149 b 942 1033 986 1086 968 1040 b 653 1143 835 1043 704 1076 "},"Ẻ":{"ha":1135,"x_min":0,"x_max":0,"o":"m 147 -97 b 243 501 -217 82 -1 469 b 943 944 44 896 681 1117 b 953 544 1131 819 938 643 b 681 603 899 521 715 528 b 843 856 724 738 896 782 b 404 546 763 961 424 833 b 676 439 597 567 701 526 b 321 415 651 354 444 315 b 331 31 171 332 156 118 b 1129 407 550 -79 1007 96 l 1215 354 b 147 -97 1040 -61 469 -257 m 617 1072 b 858 1306 835 1144 889 1267 b 754 1313 828 1340 782 1326 b 729 1369 733 1318 719 1342 b 1042 1421 844 1471 975 1496 b 646 1014 1119 1328 1018 1125 l 617 1072 "},"Ē":{"ha":1135,"x_min":0,"x_max":0,"o":"m 147 -97 b 243 501 -217 82 -1 469 b 943 944 44 896 681 1117 b 953 544 1131 819 938 643 b 681 603 899 521 715 528 b 843 856 724 738 896 782 b 404 546 763 961 424 833 b 676 439 597 567 701 526 b 321 415 651 354 444 315 b 331 31 171 332 156 118 b 1129 407 550 -79 1007 96 l 1215 354 b 147 -97 1040 -61 469 -257 m 560 1089 b 606 1194 554 1117 582 1164 b 971 1194 739 1182 882 1176 b 960 1039 1017 1163 982 1071 b 560 1089 775 1000 567 1081 "},"Ę":{"ha":1135,"x_min":0,"x_max":0,"o":"m 147 -97 b 243 501 -217 82 -1 469 b 943 944 44 896 681 1117 b 953 544 1131 819 938 643 b 681 603 899 521 715 528 b 843 856 724 738 896 782 b 404 546 763 961 424 833 b 676 439 597 567 701 526 b 321 415 651 354 444 315 b 331 31 171 332 156 118 b 1129 407 550 -79 1007 96 l 1215 354 b 467 -150 1090 57 761 -128 b 281 -362 294 -224 253 -328 b 385 -369 311 -397 357 -383 b 410 -426 406 -375 419 -399 b 97 -478 296 -528 164 -553 b 304 -146 35 -403 88 -257 b 147 -97 249 -136 194 -121 "},"Ẽ":{"ha":1135,"x_min":0,"x_max":0,"o":"m 147 -97 b 243 501 -217 82 -1 469 b 943 944 44 896 681 1117 b 953 544 1131 819 938 643 b 681 603 899 521 715 528 b 843 856 724 738 896 782 b 404 546 763 961 424 833 b 676 439 597 567 701 526 b 321 415 651 354 444 315 b 331 31 171 332 156 118 b 1129 407 550 -79 1007 96 l 1215 354 b 147 -97 1040 -61 469 -257 m 578 1185 b 863 1186 854 1432 821 1169 b 926 1261 901 1201 921 1233 b 1082 1188 996 1293 1101 1285 b 807 1049 982 1072 849 1039 b 751 1169 757 1057 763 1171 b 694 1050 729 1167 694 1096 b 578 1185 613 1019 564 1129 "},"F":{"ha":1335,"x_min":0,"x_max":0,"o":"m 1168 278 b 794 356 1108 314 964 342 b 372 -254 588 139 419 -93 b 136 -131 272 -281 150 -210 b 586 364 217 -7 388 179 b 97 321 407 367 225 353 b 169 507 86 353 93 425 b 717 481 263 532 475 515 b 1181 831 871 615 1035 740 b 188 782 886 863 511 851 b 296 1026 171 832 189 922 b 1342 922 536 1079 1064 982 b 1536 956 1396 931 1478 946 b 1528 761 1554 901 1563 817 b 1350 807 1478 779 1418 794 b 893 453 1200 721 1040 593 b 1193 397 994 436 1096 417 b 1168 278 1194 367 1190 311 "},"G":{"ha":1074,"x_min":0,"x_max":0,"o":"m 363 -689 b 281 -574 331 -667 283 -619 b 429 -72 322 -390 374 -221 b 90 -115 299 -140 174 -160 b 1015 944 -400 147 514 1272 b 975 490 1203 819 956 588 b 703 550 922 468 738 472 b 914 856 744 681 968 782 b 433 669 828 972 579 874 b 279 71 292 469 151 169 b 490 72 318 40 400 31 b 739 443 565 236 649 365 b 936 314 818 429 879 388 b 363 -689 757 207 435 -312 "},"Ğ":{"ha":1074,"x_min":0,"x_max":0,"o":"m 363 -689 b 281 -574 331 -667 283 -619 b 429 -72 322 -390 374 -221 b 90 -115 299 -140 174 -160 b 710 993 -310 99 226 889 b 569 1161 640 1014 585 1068 b 782 1186 653 1250 776 1236 b 942 1193 774 1057 863 1040 b 1068 1158 1010 1233 1083 1204 b 878 999 1026 1078 954 1024 b 1015 944 926 990 972 972 b 975 490 1203 819 956 588 b 703 550 922 468 738 472 b 914 856 744 681 968 782 b 433 669 828 972 579 874 b 279 71 292 469 151 169 b 490 72 318 40 400 31 b 739 443 565 236 649 365 b 936 314 818 429 879 388 b 363 -689 757 207 435 -312 "},"Ǧ":{"ha":1074,"x_min":0,"x_max":0,"o":"m 363 -689 b 281 -574 331 -667 283 -619 b 429 -72 322 -390 374 -221 b 90 -115 299 -140 174 -160 b 729 996 -315 101 240 911 b 715 1011 722 1001 718 1006 b 593 1175 711 1056 694 1082 b 703 1275 610 1213 649 1265 b 781 1113 717 1239 746 1179 b 958 1276 818 1149 881 1208 b 1024 1156 986 1256 1024 1210 b 851 1001 956 1111 896 1056 b 1015 944 908 996 964 978 b 975 490 1203 819 956 588 b 703 550 922 468 738 472 b 914 856 744 681 968 782 b 433 669 828 972 579 874 b 279 71 292 469 151 169 b 490 72 318 40 400 31 b 739 443 565 236 649 365 b 936 314 818 429 879 388 b 363 -689 757 207 435 -312 "},"Ĝ":{"ha":1074,"x_min":0,"x_max":0,"o":"m 363 -689 b 281 -574 331 -667 283 -619 b 429 -72 322 -390 374 -221 b 90 -115 299 -140 174 -160 b 628 969 -287 88 169 803 b 594 1061 608 993 593 1025 b 793 1250 676 1115 747 1186 b 903 1206 835 1243 890 1231 b 1024 1043 904 1161 921 1135 b 969 969 1013 1019 994 992 b 1015 944 985 963 1000 954 b 975 490 1203 819 956 588 b 703 550 922 468 738 472 b 914 856 744 681 968 782 b 433 669 828 972 579 874 b 279 71 292 469 151 169 b 490 72 318 40 400 31 b 739 443 565 236 649 365 b 936 314 818 429 879 388 b 363 -689 757 207 435 -312 m 719 994 b 890 996 778 1006 836 1007 b 838 1104 876 1028 857 1065 b 719 994 810 1078 769 1040 "},"Ģ":{"ha":1074,"x_min":0,"x_max":0,"o":"m 363 -689 b 281 -574 331 -667 283 -619 b 429 -72 322 -390 374 -221 b 90 -115 299 -140 174 -160 b 1015 944 -400 147 514 1272 b 975 490 1203 819 956 588 b 703 550 922 468 738 472 b 914 856 744 681 968 782 b 433 669 828 972 579 874 b 279 71 292 469 151 169 b 490 72 318 40 400 31 b 739 443 565 236 649 365 b 936 314 818 429 879 388 b 363 -689 757 207 435 -312 m -64 -453 b 35 -365 -21 -424 13 -393 b -24 -301 11 -350 -10 -329 b 143 -135 -1 -253 56 -181 b 244 -269 179 -162 228 -214 b -28 -524 199 -375 74 -469 b -64 -453 -46 -511 -72 -483 "},"Ġ":{"ha":1074,"x_min":0,"x_max":0,"o":"m 363 -689 b 281 -574 331 -667 283 -619 b 429 -72 322 -390 374 -221 b 90 -115 299 -140 174 -160 b 785 1003 -331 110 285 974 b 675 1138 744 1039 697 1092 b 847 1278 692 1157 767 1194 b 1000 1175 853 1268 907 1197 b 818 1004 960 1122 889 1047 b 1015 944 888 1003 954 985 b 975 490 1203 819 956 588 b 703 550 922 468 738 472 b 914 856 744 681 968 782 b 433 669 828 972 579 874 b 279 71 292 469 151 169 b 490 72 318 40 400 31 b 739 443 565 236 649 365 b 936 314 818 429 879 388 b 363 -689 757 207 435 -312 "},"Ḡ":{"ha":1074,"x_min":0,"x_max":0,"o":"m 363 -689 b 281 -574 331 -667 283 -619 b 429 -72 322 -390 374 -221 b 90 -115 299 -140 174 -160 b 736 997 -318 103 246 918 b 567 1047 642 1014 571 1043 b 613 1153 561 1075 589 1122 b 978 1153 746 1140 889 1135 b 967 997 1024 1121 989 1029 b 917 989 950 993 933 992 b 1015 944 951 979 983 965 b 975 490 1203 819 956 588 b 703 550 922 468 738 472 b 914 856 744 681 968 782 b 433 669 828 972 579 874 b 279 71 292 469 151 169 b 490 72 318 40 400 31 b 739 443 565 236 649 365 b 936 314 818 429 879 388 b 363 -689 757 207 435 -312 "},"Ǥ":{"ha":1074,"x_min":0,"x_max":0,"o":"m 363 -689 b 281 -574 331 -667 283 -619 b 429 -72 322 -390 374 -221 b 90 -115 299 -140 174 -160 b 1015 944 -400 147 514 1272 b 975 490 1203 819 956 588 b 703 550 922 468 738 472 b 914 856 744 681 968 782 b 433 669 828 972 579 874 b 279 71 292 469 151 169 b 490 72 318 40 400 31 b 522 138 500 94 511 117 b 404 92 482 126 442 111 b 508 329 388 185 453 281 b 651 349 557 339 606 346 b 739 443 681 386 710 417 b 925 328 813 431 871 393 b 975 308 943 322 961 315 b 926 135 975 228 961 190 b 779 163 890 147 839 158 b 363 -689 610 -47 417 -408 "},"H":{"ha":1465,"x_min":0,"x_max":0,"o":"m 60 -335 b -199 -193 -53 -360 -186 -281 b 443 364 7 -74 256 121 b 110 321 331 361 217 347 b 181 507 96 354 107 425 b 536 497 258 528 389 519 b 721 983 629 646 697 810 b 911 943 797 1007 867 971 b 700 467 878 815 804 647 b 883 425 761 454 824 440 b 1288 994 949 603 1076 808 b 1419 872 1349 986 1396 922 b 1075 147 1024 633 957 214 b 1461 407 1171 88 1375 217 l 1546 353 b 897 -7 1394 3 1031 -99 b 853 321 835 35 814 160 b 635 358 792 339 717 351 b 60 -335 483 117 282 -136 "},"Ħ":{"ha":1465,"x_min":0,"x_max":0,"o":"m 60 -335 b -199 -193 -53 -360 -186 -281 b 443 364 7 -74 256 121 b 110 321 331 361 217 347 b 181 507 96 354 107 425 b 374 515 228 519 294 521 b 540 656 382 572 467 626 l 626 663 b 721 983 672 764 706 872 b 911 943 797 1007 867 971 b 808 671 892 865 856 772 b 1006 669 878 672 944 672 b 1288 994 1076 778 1168 889 b 1419 872 1349 986 1396 922 b 1174 657 1315 810 1235 735 b 1269 640 1211 653 1243 647 b 1194 517 1272 582 1249 556 b 1092 529 1167 521 1131 525 b 1075 147 1000 351 1004 188 b 1461 407 1171 88 1375 217 l 1546 353 b 897 -7 1394 3 1031 -99 b 853 321 835 35 814 160 b 635 358 792 339 717 351 b 60 -335 483 117 282 -136 m 536 497 b 549 517 540 504 544 510 b 476 506 524 514 500 510 m 700 467 b 883 425 761 454 824 440 b 932 538 897 461 913 499 b 738 533 871 538 806 538 l 700 467 "},"Ḫ":{"ha":1465,"x_min":0,"x_max":0,"o":"m 60 -335 b -199 -193 -53 -360 -186 -281 b 443 364 7 -74 256 121 b 110 321 331 361 217 347 b 181 507 96 354 107 425 b 536 497 258 528 389 519 b 721 983 629 646 697 810 b 911 943 797 1007 867 971 b 700 467 878 815 804 647 b 883 425 761 454 824 440 b 1288 994 949 603 1076 808 b 1419 872 1349 986 1396 922 b 1075 147 1024 633 957 214 b 1461 407 1171 88 1375 217 l 1546 353 b 897 -7 1394 3 1031 -99 b 853 321 835 35 814 160 b 635 358 792 339 717 351 b 60 -335 483 117 282 -136 m 311 -124 b 524 -99 394 -35 518 -49 b 683 -92 515 -228 604 -244 b 810 -126 751 -51 825 -81 b 311 -124 693 -347 353 -376 "},"Ĥ":{"ha":1465,"x_min":0,"x_max":0,"o":"m 60 -335 b -199 -193 -53 -360 -186 -281 b 443 364 7 -74 256 121 b 110 321 331 361 217 347 b 181 507 96 354 107 425 b 536 497 258 528 389 519 b 721 983 629 646 697 810 b 911 943 797 1007 867 971 b 700 467 878 815 804 647 b 883 425 761 454 824 440 b 1288 994 949 603 1076 808 b 1419 872 1349 986 1396 922 b 1075 147 1024 633 957 214 b 1461 407 1171 88 1375 217 l 1546 353 b 897 -7 1394 3 1031 -99 b 853 321 835 35 814 160 b 635 358 792 339 717 351 b 60 -335 483 117 282 -136 m 899 1103 b 1097 1292 981 1157 1051 1228 b 1207 1247 1139 1285 1194 1272 b 1328 1085 1208 1203 1225 1176 b 1218 983 1310 1046 1269 993 b 1142 1146 1204 1019 1175 1081 b 963 982 1104 1110 1040 1050 b 899 1103 933 1004 896 1049 "},"Ḥ":{"ha":1465,"x_min":0,"x_max":0,"o":"m 60 -335 b -199 -193 -53 -360 -186 -281 b 443 364 7 -74 256 121 b 110 321 331 361 217 347 b 181 507 96 354 107 425 b 536 497 258 528 389 519 b 721 983 629 646 697 810 b 911 943 797 1007 867 971 b 700 467 878 815 804 647 b 883 425 761 454 824 440 b 1288 994 949 603 1076 808 b 1419 872 1349 986 1396 922 b 1075 147 1024 633 957 214 b 1461 407 1171 88 1375 217 l 1546 353 b 897 -7 1394 3 1031 -99 b 853 321 835 35 814 160 b 635 358 792 339 717 351 b 60 -335 483 117 282 -136 m 369 -228 b 542 -87 386 -208 461 -171 b 694 -190 547 -97 601 -168 b 492 -374 650 -249 569 -333 b 369 -228 450 -339 394 -279 "},"I":{"ha":729,"x_min":0,"x_max":0,"o":"m -33 -171 b 264 1028 -286 43 193 489 b 489 907 317 1026 418 963 b 115 -37 438 569 13 44 b 725 407 242 -140 619 172 l 808 353 b -33 -171 696 81 179 -350 "},"Ĳ":{"ha":1842,"x_min":0,"x_max":0,"o":"m -33 -171 b 264 1028 -286 43 193 489 b 489 907 317 1026 418 963 b 115 -37 438 569 13 44 b 725 407 242 -140 619 172 l 808 353 b -33 -171 696 81 179 -350 m 564 -126 b 742 54 571 -39 657 28 b 1185 -72 844 -128 1025 -179 b 1686 807 1354 44 1547 332 b 928 717 1482 819 1246 785 b 1036 961 910 767 928 857 b 1735 919 1297 971 1528 961 b 1928 1014 1781 964 1865 999 b 1978 750 1979 949 2008 832 b 1804 794 1921 769 1864 785 b 1242 -258 1661 281 1460 -75 b 564 -126 1014 -449 676 -379 "},"Í":{"ha":729,"x_min":0,"x_max":0,"o":"m -33 -171 b 264 1028 -286 43 193 489 l 278 1026 b 286 1100 269 1046 275 1079 b 551 1339 378 1156 486 1240 b 642 1174 631 1354 668 1263 b 315 1014 563 1093 425 1040 b 489 907 369 993 438 947 b 115 -37 438 569 13 44 b 725 407 242 -140 619 172 l 808 353 b -33 -171 696 81 179 -350 "},"Ǐ":{"ha":729,"x_min":0,"x_max":0,"o":"m -33 -171 b 264 1028 -286 43 193 489 b 489 907 317 1026 418 963 b 115 -37 438 569 13 44 b 725 407 242 -140 619 172 l 808 353 b -33 -171 696 81 179 -350 m 217 1204 b 326 1304 233 1242 272 1294 b 404 1142 340 1268 369 1208 b 582 1306 442 1178 504 1238 b 647 1185 610 1285 647 1239 b 447 996 564 1131 493 1060 b 339 1040 406 1003 351 1015 b 217 1204 335 1085 318 1111 "},"Î":{"ha":729,"x_min":0,"x_max":0,"o":"m -33 -171 b 258 992 -281 38 172 468 b 218 1090 236 1015 217 1050 b 417 1279 300 1144 371 1215 b 526 1235 458 1272 514 1260 b 647 1072 528 1190 544 1164 b 538 971 629 1033 589 981 b 461 1133 524 1007 494 1068 b 328 1010 431 1104 385 1061 b 489 907 379 986 440 944 b 115 -37 438 569 13 44 b 725 407 242 -140 619 172 l 808 353 b -33 -171 696 81 179 -350 "},"Ï":{"ha":729,"x_min":0,"x_max":0,"o":"m -33 -171 b 264 1028 -286 43 193 489 b 179 1139 231 1061 196 1101 b 351 1279 196 1158 272 1199 b 446 1197 356 1269 390 1228 b 568 1299 479 1221 522 1253 b 721 1196 574 1289 628 1218 b 518 1013 675 1138 594 1053 b 435 1097 496 1031 463 1063 b 329 1008 406 1068 369 1035 b 489 907 379 986 442 944 b 115 -37 438 569 13 44 b 725 407 242 -140 619 172 l 808 353 b -33 -171 696 81 179 -350 "},"Ḯ":{"ha":729,"x_min":0,"x_max":0,"o":"m -33 -171 b 264 1028 -286 43 193 489 b 179 1139 231 1061 196 1101 b 351 1279 196 1158 272 1199 b 446 1197 356 1269 390 1228 b 568 1299 479 1221 522 1253 b 721 1196 574 1289 628 1218 b 518 1013 675 1138 594 1053 b 435 1097 496 1031 463 1063 b 329 1008 406 1068 369 1035 b 489 907 379 986 442 944 b 115 -37 438 569 13 44 b 725 407 242 -140 619 172 l 808 353 b -33 -171 696 81 179 -350 m 388 1382 b 653 1621 479 1438 588 1522 b 743 1456 732 1636 769 1544 b 396 1292 658 1369 508 1315 b 388 1382 368 1299 371 1351 "},"İ":{"ha":729,"x_min":0,"x_max":0,"o":"m -33 -171 b 264 1028 -286 43 193 489 b 489 907 317 1026 418 963 b 115 -37 438 569 13 44 b 725 407 242 -140 619 172 l 808 353 b -33 -171 696 81 179 -350 m 299 1167 b 471 1307 315 1186 390 1224 b 624 1204 476 1297 531 1226 b 421 1021 579 1146 499 1061 b 299 1167 379 1057 324 1115 "},"Ị":{"ha":729,"x_min":0,"x_max":0,"o":"m -33 -171 b 264 1028 -286 43 193 489 b 489 907 317 1026 418 963 b 115 -37 438 569 13 44 b 725 407 242 -140 619 172 l 808 353 b -33 -171 696 81 179 -350 m -150 -356 b 22 -215 -133 -336 -58 -299 b 175 -318 28 -225 82 -296 b -28 -501 131 -376 50 -461 b -150 -356 -69 -467 -125 -407 "},"Ì":{"ha":729,"x_min":0,"x_max":0,"o":"m -33 -171 b 264 1028 -286 43 193 489 b 489 907 317 1026 418 963 b 115 -37 438 569 13 44 b 725 407 242 -140 619 172 l 808 353 b -33 -171 696 81 179 -350 m 283 1131 b 440 1272 293 1201 368 1281 b 610 1097 465 1197 542 1136 b 572 1021 617 1074 599 1028 b 283 1131 465 1031 335 1064 "},"Ỉ":{"ha":729,"x_min":0,"x_max":0,"o":"m -33 -171 b 264 1026 -286 43 193 489 l 247 1060 b 489 1293 465 1132 519 1254 b 385 1300 458 1328 413 1314 b 360 1357 364 1306 350 1329 b 672 1408 475 1458 606 1483 b 317 1014 747 1318 656 1128 b 489 907 369 992 438 947 b 115 -37 438 569 13 44 b 725 407 242 -140 619 172 l 808 353 b -33 -171 696 81 179 -350 "},"Ī":{"ha":729,"x_min":0,"x_max":0,"o":"m -33 -171 b 264 1028 -286 43 193 489 b 489 907 317 1026 418 963 b 115 -37 438 569 13 44 b 725 407 242 -140 619 172 l 808 353 b -33 -171 696 81 179 -350 m 190 1076 b 236 1182 185 1104 213 1151 b 601 1182 369 1169 513 1164 b 590 1026 647 1150 613 1058 b 190 1076 406 988 197 1068 "},"Į":{"ha":729,"x_min":0,"x_max":0,"o":"m -33 -171 b 264 1028 -286 43 193 489 b 489 907 317 1026 418 963 b 115 -37 438 569 13 44 b 725 407 242 -140 619 172 l 808 353 b 142 -210 721 140 385 -169 b -22 -411 -11 -281 -49 -378 b 82 -418 8 -446 54 -432 b 107 -475 103 -424 117 -447 b -206 -526 -8 -576 -139 -601 b 1 -194 -268 -451 -215 -306 b -33 -171 -11 -187 -22 -181 "},"Ĩ":{"ha":729,"x_min":0,"x_max":0,"o":"m -33 -171 b 264 1028 -286 43 193 489 b 489 907 317 1026 418 963 b 115 -37 438 569 13 44 b 725 407 242 -140 619 172 l 808 353 b -33 -171 696 81 179 -350 m 208 1172 b 493 1174 485 1419 451 1157 b 557 1249 532 1189 551 1221 b 713 1175 626 1281 732 1272 b 438 1036 613 1060 479 1026 b 382 1157 388 1044 393 1158 b 325 1038 360 1154 325 1083 b 208 1172 243 1007 194 1117 "},"J":{"ha":1113,"x_min":0,"x_max":0,"o":"m 513 -258 b -167 -126 285 -449 -53 -379 b 13 54 -158 -39 -72 28 b 456 -72 115 -128 296 -179 b 957 807 625 44 818 332 b 199 717 753 819 517 785 b 307 961 181 767 199 857 b 1006 919 568 971 799 961 b 1199 1014 1051 964 1136 999 b 1249 750 1250 949 1279 832 b 1075 794 1192 769 1135 785 b 513 -258 932 281 731 -75 "},"Ĵ":{"ha":1113,"x_min":0,"x_max":0,"o":"m 513 -258 b -167 -126 285 -449 -53 -379 b 13 54 -158 -39 -72 28 b 456 -72 115 -128 296 -179 b 957 807 625 44 818 332 b 199 717 753 819 517 785 b 307 961 181 767 199 857 b 656 961 429 965 546 965 b 614 1061 632 985 611 1021 b 813 1250 696 1115 767 1186 b 922 1206 854 1243 910 1231 b 1043 1043 924 1161 940 1135 b 933 942 1025 1004 985 951 b 857 1104 919 978 890 1039 b 699 958 822 1071 767 1019 b 1006 919 807 951 908 939 b 1199 1014 1051 964 1136 999 b 1249 750 1250 949 1279 832 b 1075 794 1192 769 1135 785 b 513 -258 932 281 731 -75 "},"K":{"ha":1049,"x_min":0,"x_max":0,"o":"m 136 -126 b -131 -8 28 -162 -111 -94 b 499 981 101 154 474 510 b 690 957 569 1007 639 982 b 560 575 678 879 631 736 b 1135 1072 736 656 982 851 b 1231 868 1160 1064 1233 976 b 604 472 1149 746 867 592 b 1279 -404 690 221 963 -165 b 1008 -525 1257 -436 1157 -533 b 476 394 843 -401 633 13 b 136 -126 379 200 260 3 "},"Ǩ":{"ha":1049,"x_min":0,"x_max":0,"o":"m 136 -126 b -131 -8 28 -162 -111 -94 b 499 981 101 154 474 510 b 690 957 569 1007 639 982 b 560 575 678 879 631 736 b 1135 1072 736 656 982 851 b 1231 868 1160 1064 1233 976 b 604 472 1149 746 867 592 b 1279 -404 690 221 963 -165 b 1008 -525 1257 -436 1157 -533 b 476 394 843 -401 633 13 b 136 -126 379 200 260 3 m 660 1175 b 769 1275 676 1213 715 1265 b 847 1113 783 1239 813 1179 b 1025 1276 885 1149 947 1208 b 1090 1156 1053 1256 1090 1210 b 890 967 1007 1101 936 1031 b 782 1011 849 974 794 986 b 660 1175 778 1056 761 1082 "},"Ķ":{"ha":1049,"x_min":0,"x_max":0,"o":"m 136 -126 b -131 -8 28 -162 -111 -94 b 499 981 101 154 474 510 b 690 957 569 1007 639 982 b 560 575 678 879 631 736 b 1135 1072 736 656 982 851 b 1231 868 1160 1064 1233 976 b 604 472 1149 746 867 592 b 1279 -404 690 221 963 -165 b 1008 -525 1257 -436 1157 -533 b 476 394 843 -401 633 13 b 136 -126 379 200 260 3 m 190 -375 b 289 -287 233 -346 267 -315 b 231 -224 265 -272 244 -251 b 397 -57 253 -175 310 -103 b 499 -192 433 -85 482 -136 b 226 -446 453 -297 328 -392 b 190 -375 208 -433 182 -406 "},"Ḵ":{"ha":1049,"x_min":0,"x_max":0,"o":"m 136 -126 b -131 -8 28 -162 -111 -94 b 499 981 101 154 474 510 b 690 957 569 1007 639 982 b 560 575 678 879 631 736 b 1135 1072 736 656 982 851 b 1231 868 1160 1064 1233 976 b 604 472 1149 746 867 592 b 1279 -404 690 221 963 -165 b 1008 -525 1257 -436 1157 -533 b 476 394 843 -401 633 13 b 136 -126 379 200 260 3 m 156 -214 b 201 -108 150 -186 178 -137 b 567 -107 335 -121 478 -126 b 556 -262 613 -139 578 -231 b 156 -214 371 -301 163 -221 "},"L":{"ha":1015,"x_min":0,"x_max":0,"o":"m 1133 -393 b 157 -222 824 -274 453 -221 b -157 -360 35 -281 -62 -337 b -162 -96 -196 -287 -185 -174 l 96 -83 b 986 1031 479 396 461 839 b 1207 826 1068 1028 1226 926 b 244 -74 629 711 631 371 b 1060 -103 465 -50 844 -18 b 1133 -393 1149 -232 1158 -339 "},"Ĺ":{"ha":1015,"x_min":0,"x_max":0,"o":"m 1133 -393 b 157 -222 824 -274 453 -221 b -157 -360 35 -281 -62 -337 b -162 -96 -196 -287 -185 -174 l 96 -83 b 986 1031 479 396 461 839 b 1207 826 1068 1028 1226 926 b 244 -74 629 711 631 371 b 1060 -103 465 -50 844 -18 b 1133 -393 1149 -232 1158 -339 m 885 1118 b 1150 1357 976 1174 1085 1258 b 1240 1192 1229 1372 1267 1281 b 893 1028 1156 1106 1006 1051 b 885 1118 865 1035 868 1088 "},"Ľ":{"ha":1015,"x_min":0,"x_max":0,"o":"m 1133 -393 b 157 -222 824 -274 453 -221 b -157 -360 35 -281 -62 -337 b -162 -96 -196 -287 -185 -174 l 96 -83 b 986 1031 479 396 461 839 b 1207 826 1068 1028 1226 926 b 244 -74 629 711 631 371 b 1060 -103 465 -50 844 -18 b 1133 -393 1149 -232 1158 -339 m 1235 1028 b 1501 1022 1290 1068 1400 1122 b 1364 697 1447 992 1351 803 b 1249 674 1343 669 1279 665 b 1235 1028 1239 681 1192 843 "},"Ļ":{"ha":1015,"x_min":0,"x_max":0,"o":"m 1133 -393 b 157 -222 824 -274 453 -221 b -157 -360 35 -281 -62 -337 b -162 -96 -196 -287 -185 -174 l 96 -83 b 986 1031 479 396 461 839 b 1207 826 1068 1028 1226 926 b 244 -74 629 711 631 371 b 1060 -103 465 -50 844 -18 b 1133 -393 1149 -232 1158 -339 m 117 -561 b 215 -474 160 -532 193 -501 b 157 -410 192 -458 171 -437 b 324 -243 179 -361 236 -289 b 425 -378 360 -271 408 -322 b 153 -632 379 -483 254 -578 b 117 -561 135 -619 108 -592 "},"Ḷ":{"ha":1015,"x_min":0,"x_max":0,"o":"m 1133 -393 b 157 -222 824 -274 453 -221 b -157 -360 35 -281 -62 -337 b -162 -96 -196 -287 -185 -174 l 96 -83 b 986 1031 479 396 461 839 b 1207 826 1068 1028 1226 926 b 244 -74 629 711 631 371 b 1060 -103 465 -50 844 -18 b 1133 -393 1149 -232 1158 -339 m 129 -414 b 301 -274 146 -394 221 -357 b 454 -376 307 -283 361 -354 b 251 -560 410 -435 329 -519 b 129 -414 210 -525 154 -465 "},"Ḹ":{"ha":1015,"x_min":0,"x_max":0,"o":"m 1133 -393 b 157 -222 824 -274 453 -221 b -157 -360 35 -281 -62 -337 b -162 -96 -196 -287 -185 -174 l 96 -83 b 986 1031 479 396 461 839 b 1207 826 1068 1028 1226 926 b 244 -74 629 711 631 371 b 1060 -103 465 -50 844 -18 b 1133 -393 1149 -232 1158 -339 m 129 -414 b 301 -274 146 -394 221 -357 b 454 -376 307 -283 361 -354 b 251 -560 410 -435 329 -519 b 129 -414 210 -525 154 -465 m 789 1094 b 835 1200 783 1122 811 1169 b 1200 1200 968 1188 1111 1182 b 1189 1044 1246 1168 1211 1076 b 789 1094 1004 1006 796 1086 "},"Ḻ":{"ha":1015,"x_min":0,"x_max":0,"o":"m 1133 -393 b 157 -222 824 -274 453 -221 b -157 -360 35 -281 -62 -337 b -162 -96 -196 -287 -185 -174 l 96 -83 b 986 1031 479 396 461 839 b 1207 826 1068 1028 1226 926 b 244 -74 629 711 631 371 b 1060 -103 465 -50 844 -18 b 1133 -393 1149 -232 1158 -339 m 82 -400 b 128 -294 76 -372 104 -324 b 493 -293 261 -307 404 -312 b 482 -449 539 -325 504 -417 b 82 -400 297 -487 89 -407 "},"Ł":{"ha":1015,"x_min":0,"x_max":0,"o":"m 1133 -393 b 157 -222 824 -274 453 -221 b -157 -360 35 -281 -62 -337 b -162 -96 -196 -287 -185 -174 l 96 -83 b 340 299 201 49 276 176 b 197 246 292 288 243 269 b 301 483 181 339 246 435 b 446 504 350 493 399 500 b 986 1031 567 733 689 922 b 1207 826 1068 1028 1226 926 b 651 497 917 768 772 654 b 768 463 699 490 739 478 b 719 289 768 382 754 344 b 528 318 675 306 607 317 b 244 -74 451 201 368 69 b 1060 -103 465 -50 844 -18 b 1133 -393 1149 -232 1158 -339 "},"M":{"ha":1721,"x_min":0,"x_max":0,"o":"m 54 -337 b -200 -196 -56 -362 -190 -283 b 718 981 157 14 646 449 b 843 978 754 993 799 1000 b 857 969 842 1007 847 1000 l 861 967 b 860 961 861 965 860 963 b 943 497 883 883 924 689 b 1522 975 1090 667 1301 858 l 1543 994 b 1556 992 1547 994 1551 993 l 1557 993 b 1561 990 1558 992 1560 992 b 1675 872 1614 974 1654 917 b 1331 147 1279 633 1213 214 b 1717 407 1426 88 1631 217 l 1801 353 b 1153 -7 1650 3 1286 -99 b 1256 661 1051 61 1060 350 b 953 346 1142 561 1036 447 b 892 42 957 206 943 86 b 743 215 760 -76 674 47 b 808 328 756 244 778 282 b 750 657 804 447 783 564 b 54 -337 610 339 367 -60 "},"Ḿ":{"ha":1721,"x_min":0,"x_max":0,"o":"m 54 -337 b -200 -196 -56 -362 -190 -283 b 718 981 157 14 646 449 b 843 978 754 993 799 1000 b 857 969 842 1007 847 1000 l 861 967 b 860 961 861 965 860 963 b 943 497 883 883 924 689 b 1522 975 1090 667 1301 858 l 1543 994 b 1556 992 1547 994 1551 993 l 1557 993 b 1561 990 1558 992 1560 992 b 1675 872 1614 974 1654 917 b 1331 147 1279 633 1213 214 b 1717 407 1426 88 1631 217 l 1801 353 b 1153 -7 1650 3 1286 -99 b 1256 661 1051 61 1060 350 b 953 346 1142 561 1036 447 b 892 42 957 206 943 86 b 743 215 760 -76 674 47 b 808 328 756 244 778 282 b 750 657 804 447 783 564 b 54 -337 610 339 367 -60 m 1022 985 b 1288 1224 1114 1040 1222 1125 b 1378 1058 1367 1239 1404 1147 b 1031 894 1293 972 1143 918 b 1022 985 1003 901 1006 954 "},"Ṁ":{"ha":1721,"x_min":0,"x_max":0,"o":"m 54 -337 b -200 -196 -56 -362 -190 -283 b 718 981 157 14 646 449 b 843 978 754 993 799 1000 b 857 969 842 1007 847 1000 l 861 967 b 860 961 861 965 860 963 b 943 497 883 883 924 689 b 1522 975 1090 667 1301 858 l 1543 994 b 1556 992 1547 994 1551 993 l 1557 993 b 1561 990 1558 992 1560 992 b 1675 872 1614 974 1654 917 b 1331 147 1279 633 1213 214 b 1717 407 1426 88 1631 217 l 1801 353 b 1153 -7 1650 3 1286 -99 b 1256 661 1051 61 1060 350 b 953 346 1142 561 1036 447 b 892 42 957 206 943 86 b 743 215 760 -76 674 47 b 808 328 756 244 778 282 b 750 657 804 447 783 564 b 54 -337 610 339 367 -60 m 1035 1051 b 1207 1192 1051 1071 1126 1108 b 1360 1089 1213 1182 1267 1111 b 1157 906 1315 1031 1235 946 b 1035 1051 1115 942 1060 1000 "},"Ṃ":{"ha":1721,"x_min":0,"x_max":0,"o":"m 54 -337 b -200 -196 -56 -362 -190 -283 b 718 981 157 14 646 449 b 843 978 754 993 799 1000 b 857 969 842 1007 847 1000 l 861 967 b 860 961 861 965 860 963 b 943 497 883 883 924 689 b 1522 975 1090 667 1301 858 l 1543 994 b 1556 992 1547 994 1551 993 l 1557 993 b 1561 990 1558 992 1560 992 b 1675 872 1614 974 1654 917 b 1331 147 1279 633 1213 214 b 1717 407 1426 88 1631 217 l 1801 353 b 1153 -7 1650 3 1286 -99 b 1256 661 1051 61 1060 350 b 953 346 1142 561 1036 447 b 892 42 957 206 943 86 b 743 215 760 -76 674 47 b 808 328 756 244 778 282 b 750 657 804 447 783 564 b 54 -337 610 339 367 -60 m 563 -192 b 735 -51 579 -172 654 -135 b 888 -154 740 -61 794 -132 b 685 -337 843 -212 763 -297 b 563 -192 643 -303 588 -243 "},"N":{"ha":1299,"x_min":0,"x_max":0,"o":"m 56 -337 b -200 -196 -56 -362 -189 -283 b 719 981 157 14 647 449 b 865 967 763 994 811 1003 l 864 961 b 867 964 865 963 865 963 b 951 503 875 917 926 711 b 1643 1079 1133 711 1403 964 b 1804 917 1704 1057 1768 976 b 963 360 1439 843 1143 574 b 892 42 969 219 953 96 b 743 215 760 -76 674 47 b 793 301 753 238 769 267 b 749 649 788 425 775 550 b 56 -337 607 332 365 -62 "},"Ń":{"ha":1299,"x_min":0,"x_max":0,"o":"m 56 -337 b -200 -196 -56 -362 -189 -283 b 719 981 157 14 647 449 b 865 967 763 994 811 1003 l 864 961 b 867 964 865 963 865 963 b 951 503 875 917 926 711 b 1643 1079 1133 711 1403 964 b 1804 917 1704 1057 1768 976 b 963 360 1439 843 1143 574 b 892 42 969 219 953 96 b 743 215 760 -76 674 47 b 793 301 753 238 769 267 b 749 649 788 425 775 550 b 56 -337 607 332 365 -62 m 1011 994 b 1276 1233 1103 1050 1211 1135 b 1367 1068 1356 1249 1393 1157 b 1019 904 1282 982 1132 928 b 1011 994 992 911 994 964 "},"Ň":{"ha":1299,"x_min":0,"x_max":0,"o":"m 56 -337 b -200 -196 -56 -362 -189 -283 b 719 981 157 14 647 449 b 865 967 763 994 811 1003 l 864 961 b 867 964 865 963 865 963 b 951 503 875 917 926 711 b 1643 1079 1133 711 1403 964 b 1804 917 1704 1057 1768 976 b 963 360 1439 843 1143 574 b 892 42 969 219 953 96 b 743 215 760 -76 674 47 b 793 301 753 238 769 267 b 749 649 788 425 775 550 b 56 -337 607 332 365 -62 m 942 1099 b 1051 1199 958 1136 997 1189 b 1129 1036 1065 1163 1094 1103 b 1307 1200 1167 1072 1229 1132 b 1372 1079 1335 1179 1372 1133 b 1172 890 1289 1025 1218 954 b 1064 935 1131 897 1076 910 b 942 1099 1060 979 1043 1006 "},"Ņ":{"ha":1299,"x_min":0,"x_max":0,"o":"m 56 -337 b -200 -196 -56 -362 -189 -283 b 719 981 157 14 647 449 b 865 967 763 994 811 1003 l 864 961 b 867 964 865 963 865 963 b 951 503 875 917 926 711 b 1643 1079 1133 711 1403 964 b 1804 917 1704 1057 1768 976 b 963 360 1439 843 1143 574 b 892 42 969 219 953 96 b 743 215 760 -76 674 47 b 793 301 753 238 769 267 b 749 649 788 425 775 550 b 56 -337 607 332 365 -62 m 331 -360 b 429 -272 374 -331 407 -300 b 371 -208 406 -257 385 -236 b 538 -42 393 -160 450 -87 b 639 -176 574 -69 622 -121 b 367 -431 593 -282 468 -376 b 331 -360 349 -418 322 -390 "},"Ṅ":{"ha":1299,"x_min":0,"x_max":0,"o":"m 56 -337 b -200 -196 -56 -362 -189 -283 b 719 981 157 14 647 449 b 865 967 763 994 811 1003 l 864 961 b 867 964 865 963 865 963 b 951 503 875 917 926 711 b 1643 1079 1133 711 1403 964 b 1804 917 1704 1057 1768 976 b 963 360 1439 843 1143 574 b 892 42 969 219 953 96 b 743 215 760 -76 674 47 b 793 301 753 238 769 267 b 749 649 788 425 775 550 b 56 -337 607 332 365 -62 m 1024 1061 b 1196 1201 1040 1081 1115 1118 b 1349 1099 1201 1192 1256 1121 b 1146 915 1304 1040 1224 956 b 1024 1061 1104 951 1049 1010 "},"Ṇ":{"ha":1299,"x_min":0,"x_max":0,"o":"m 56 -337 b -200 -196 -56 -362 -189 -283 b 719 981 157 14 647 449 b 865 967 763 994 811 1003 l 864 961 b 867 964 865 963 865 963 b 951 503 875 917 926 711 b 1643 1079 1133 711 1403 964 b 1804 917 1704 1057 1768 976 b 963 360 1439 843 1143 574 b 892 42 969 219 953 96 b 743 215 760 -76 674 47 b 793 301 753 238 769 267 b 749 649 788 425 775 550 b 56 -337 607 332 365 -62 m 343 -212 b 515 -72 360 -193 435 -156 b 668 -175 521 -82 575 -153 b 465 -358 624 -233 543 -318 b 343 -212 424 -324 368 -264 "},"Ṉ":{"ha":1299,"x_min":0,"x_max":0,"o":"m 56 -337 b -200 -196 -56 -362 -189 -283 b 719 981 157 14 647 449 b 865 967 763 994 811 1003 l 864 961 b 867 964 865 963 865 963 b 951 503 875 917 926 711 b 1643 1079 1133 711 1403 964 b 1804 917 1704 1057 1768 976 b 963 360 1439 843 1143 574 b 892 42 969 219 953 96 b 743 215 760 -76 674 47 b 793 301 753 238 769 267 b 749 649 788 425 775 550 b 56 -337 607 332 365 -62 m 296 -199 b 342 -93 290 -171 318 -122 b 707 -92 475 -106 618 -111 b 696 -247 753 -124 718 -215 b 296 -199 511 -286 303 -206 "},"Ñ":{"ha":1299,"x_min":0,"x_max":0,"o":"m 56 -337 b -200 -196 -56 -362 -189 -283 b 719 981 157 14 647 449 b 865 967 763 994 811 1003 l 864 961 b 867 964 865 963 865 963 b 951 503 875 917 926 711 b 1643 1079 1133 711 1403 964 b 1804 917 1704 1057 1768 976 b 963 360 1439 843 1143 574 b 892 42 969 219 953 96 b 743 215 760 -76 674 47 b 793 301 753 238 769 267 b 749 649 788 425 775 550 b 56 -337 607 332 365 -62 m 933 1067 b 1218 1068 1210 1314 1176 1051 b 1282 1143 1257 1083 1276 1115 b 1438 1069 1351 1175 1457 1167 b 1163 931 1338 954 1204 921 b 1107 1051 1113 939 1118 1053 b 1050 932 1085 1049 1050 978 b 933 1067 968 901 919 1011 "},"Ŋ":{"ha":1271,"x_min":0,"x_max":0,"o":"m 58 -337 b -197 -196 -53 -362 -186 -283 b 722 981 160 14 650 449 b 865 968 764 993 814 1001 b 932 476 889 881 921 675 b 1646 1079 1113 689 1394 958 b 1807 917 1707 1057 1771 976 b 872 43 1315 821 938 247 b 1267 407 1029 93 1208 283 l 1350 353 b 749 -139 1322 276 1115 -42 b 354 -257 586 -390 386 -336 b 625 -43 306 -142 431 -43 b 829 347 664 35 781 279 b 753 656 810 457 783 569 b 58 -337 613 338 369 -60 m 494 -196 b 554 -156 497 -206 528 -189 b 494 -196 494 -158 485 -181 "},"O":{"ha":1153,"x_min":0,"x_max":0,"o":"m 371 51 b 842 531 596 -71 836 228 b 646 629 744 514 660 547 b 768 861 832 647 853 806 b 371 669 675 919 514 869 b 371 51 231 468 179 153 m 200 -85 b 243 772 -104 72 -26 511 b 783 1007 397 925 601 1029 b 444 -129 1200 953 1129 140 b 200 -85 392 -137 285 -128 "},"Ó":{"ha":1153,"x_min":0,"x_max":0,"o":"m 371 51 b 842 531 596 -71 836 228 b 646 629 744 514 660 547 b 768 861 832 647 853 806 b 371 669 675 919 514 869 b 371 51 231 468 179 153 m 200 -85 b 243 772 -104 72 -26 511 b 783 1007 397 925 601 1029 b 444 -129 1200 953 1129 140 b 200 -85 392 -137 285 -128 m 654 1121 b 919 1360 746 1176 854 1261 b 1010 1194 999 1375 1036 1283 b 663 1031 925 1108 775 1054 b 654 1121 635 1038 638 1090 "},"Ǒ":{"ha":1153,"x_min":0,"x_max":0,"o":"m 371 51 b 842 531 596 -71 836 228 b 646 629 744 514 660 547 b 768 861 832 647 853 806 b 371 669 675 919 514 869 b 371 51 231 468 179 153 m 200 -85 b 243 772 -104 72 -26 511 b 783 1007 397 925 601 1029 b 444 -129 1200 953 1129 140 b 200 -85 392 -137 285 -128 m 585 1225 b 694 1325 601 1263 640 1315 b 772 1163 708 1289 738 1229 b 950 1326 810 1199 872 1258 b 1015 1206 978 1306 1015 1260 b 815 1017 932 1151 861 1081 b 707 1061 774 1024 719 1036 b 585 1225 703 1106 686 1132 "},"Ô":{"ha":1153,"x_min":0,"x_max":0,"o":"m 371 51 b 842 531 596 -71 836 228 b 646 629 744 514 660 547 b 768 861 832 647 853 806 b 371 669 675 919 514 869 b 371 51 231 468 179 153 m 200 -85 b 243 772 -104 72 -26 511 b 639 1000 357 885 499 972 b 586 1111 611 1024 583 1064 b 785 1300 668 1165 739 1236 b 894 1256 826 1293 882 1281 b 1015 1093 896 1211 913 1185 b 906 992 997 1054 957 1001 b 829 1154 892 1028 863 1089 b 667 1006 794 1121 738 1067 b 783 1007 706 1011 746 1011 b 444 -129 1200 953 1129 140 b 200 -85 392 -137 285 -128 "},"Ố":{"ha":1153,"x_min":0,"x_max":0,"o":"m 371 51 b 842 531 596 -71 836 228 b 646 629 744 514 660 547 b 768 861 832 647 853 806 b 371 669 675 919 514 869 b 371 51 231 468 179 153 m 200 -85 b 243 772 -104 72 -26 511 b 604 992 349 876 476 957 b 558 1097 579 1017 556 1054 b 757 1285 640 1151 711 1222 l 747 1283 b 739 1374 719 1290 722 1343 b 1004 1613 831 1429 939 1514 b 1094 1447 1083 1628 1121 1536 b 758 1286 1013 1364 869 1311 b 867 1242 800 1279 854 1267 b 988 1079 868 1197 885 1171 b 878 978 969 1040 929 988 b 444 -129 1183 819 1071 118 b 200 -85 392 -137 285 -128 m 651 1003 b 783 1007 696 1010 740 1013 b 878 978 818 1003 850 993 b 801 1140 864 1014 835 1075 b 651 1003 769 1108 717 1060 "},"Ộ":{"ha":1153,"x_min":0,"x_max":0,"o":"m 371 51 b 842 531 596 -71 836 228 b 646 629 744 514 660 547 b 768 861 832 647 853 806 b 371 669 675 919 514 869 b 371 51 231 468 179 153 m 58 -275 b 231 -135 75 -256 150 -218 b 383 -237 236 -144 290 -215 b 181 -421 339 -296 258 -381 b 58 -275 139 -386 83 -326 m 200 -85 b 243 772 -104 72 -26 511 b 639 1000 357 885 499 972 b 586 1111 611 1024 583 1064 b 785 1300 668 1165 739 1236 b 894 1256 826 1293 882 1281 b 1015 1093 896 1211 913 1185 b 906 992 997 1054 957 1001 b 829 1154 892 1028 863 1089 b 667 1006 794 1121 738 1067 b 783 1007 706 1011 746 1011 b 444 -129 1200 953 1129 140 b 200 -85 392 -137 285 -128 "},"Ồ":{"ha":1153,"x_min":0,"x_max":0,"o":"m 371 51 b 842 531 596 -71 836 228 b 646 629 744 514 660 547 b 768 861 832 647 853 806 b 371 669 675 919 514 869 b 371 51 231 468 179 153 m 200 -85 b 243 772 -104 72 -26 511 b 629 999 354 883 493 968 b 568 1117 600 1021 565 1064 b 767 1306 650 1171 721 1242 b 876 1261 808 1299 864 1286 b 997 1099 878 1217 894 1190 b 888 997 979 1060 939 1007 b 811 1160 874 1033 844 1094 b 636 1000 775 1124 713 1067 b 783 1007 686 1010 735 1013 b 444 -129 1200 953 1129 140 b 200 -85 392 -137 285 -128 m 746 1424 b 903 1565 756 1494 831 1574 b 1072 1390 928 1490 1004 1429 b 1035 1314 1079 1367 1061 1321 b 746 1424 928 1324 797 1357 "},"Ổ":{"ha":1153,"x_min":0,"x_max":0,"o":"m 371 51 b 842 531 596 -71 836 228 b 646 629 744 514 660 547 b 768 861 832 647 853 806 b 371 669 675 919 514 869 b 371 51 231 468 179 153 m 200 -85 b 243 772 -104 72 -26 511 b 783 1007 397 925 601 1029 b 444 -129 1200 953 1129 140 b 200 -85 392 -137 285 -128 m 592 1131 b 788 1317 672 1183 742 1253 l 763 1308 l 733 1367 b 975 1600 951 1439 1006 1561 b 871 1607 944 1635 899 1621 b 846 1664 850 1613 836 1636 b 1158 1715 961 1765 1092 1790 b 796 1318 1233 1625 1140 1432 b 900 1275 836 1311 888 1299 b 1021 1113 901 1231 918 1204 b 911 1011 1003 1074 963 1021 b 835 1174 897 1047 868 1108 b 656 1010 797 1138 733 1078 b 592 1131 626 1032 589 1076 "},"Ỗ":{"ha":1153,"x_min":0,"x_max":0,"o":"m 371 51 b 842 531 596 -71 836 228 b 646 629 744 514 660 547 b 768 861 832 647 853 806 b 371 669 675 919 514 869 b 371 51 231 468 179 153 m 200 -85 b 243 772 -104 72 -26 511 b 783 1007 397 925 601 1029 b 444 -129 1200 953 1129 140 b 200 -85 392 -137 285 -128 m 586 1142 b 785 1331 668 1196 739 1267 b 894 1286 826 1324 882 1311 b 1015 1124 896 1242 913 1215 b 906 1022 997 1085 957 1032 b 829 1185 892 1058 863 1119 b 650 1021 792 1149 728 1089 b 586 1142 621 1043 583 1088 m 689 1490 b 974 1492 965 1738 932 1475 b 1038 1567 1013 1507 1032 1539 b 1193 1493 1107 1599 1213 1590 b 918 1354 1093 1378 960 1344 b 863 1475 868 1363 874 1476 b 806 1356 840 1472 806 1401 b 689 1490 724 1325 675 1435 "},"Ö":{"ha":1153,"x_min":0,"x_max":0,"o":"m 371 51 b 842 531 596 -71 836 228 b 646 629 744 514 660 547 b 768 861 832 647 853 806 b 371 669 675 919 514 869 b 371 51 231 468 179 153 m 200 -85 b 243 772 -104 72 -26 511 b 783 1007 397 925 601 1029 b 444 -129 1200 953 1129 140 b 200 -85 392 -137 285 -128 m 547 1160 b 719 1300 564 1179 640 1219 b 814 1218 724 1290 758 1249 b 936 1319 847 1242 890 1274 b 1089 1217 942 1310 996 1239 b 886 1033 1043 1158 963 1074 b 803 1118 864 1051 831 1083 b 669 1014 768 1083 722 1042 b 547 1160 628 1050 571 1108 "},"Ȫ":{"ha":1153,"x_min":0,"x_max":0,"o":"m 371 51 b 842 531 596 -71 836 228 b 646 629 744 514 660 547 b 768 861 832 647 853 806 b 371 669 675 919 514 869 b 371 51 231 468 179 153 m 200 -85 b 243 772 -104 72 -26 511 b 783 1007 397 925 601 1029 b 444 -129 1200 953 1129 140 b 200 -85 392 -137 285 -128 m 547 1160 b 719 1300 564 1179 640 1219 b 814 1218 724 1290 758 1249 b 936 1319 847 1242 890 1274 b 660 1379 792 1322 665 1372 b 706 1485 654 1407 682 1454 b 1071 1485 839 1472 982 1467 b 1060 1329 1117 1453 1082 1361 b 936 1319 1019 1321 978 1318 b 1089 1217 944 1307 997 1239 b 886 1033 1043 1158 963 1074 b 803 1118 864 1051 831 1083 b 669 1014 768 1083 722 1042 b 547 1160 628 1050 571 1108 "},"Ọ":{"ha":1153,"x_min":0,"x_max":0,"o":"m 371 51 b 842 531 596 -71 836 228 b 646 629 744 514 660 547 b 768 861 832 647 853 806 b 371 669 675 919 514 869 b 371 51 231 468 179 153 m 58 -275 b 231 -135 75 -256 150 -218 b 383 -237 236 -144 290 -215 b 181 -421 339 -296 258 -381 b 58 -275 139 -386 83 -326 m 200 -85 b 243 772 -104 72 -26 511 b 783 1007 397 925 601 1029 b 444 -129 1200 953 1129 140 b 200 -85 392 -137 285 -128 "},"Ò":{"ha":1153,"x_min":0,"x_max":0,"o":"m 371 51 b 842 531 596 -71 836 228 b 646 629 744 514 660 547 b 768 861 832 647 853 806 b 371 669 675 919 514 869 b 371 51 231 468 179 153 m 200 -85 b 243 772 -104 72 -26 511 b 783 1007 397 925 601 1029 b 444 -129 1200 953 1129 140 b 200 -85 392 -137 285 -128 m 651 1151 b 808 1293 661 1222 736 1301 b 978 1118 833 1218 910 1157 b 940 1042 985 1094 967 1049 b 651 1151 833 1051 703 1085 "},"Ỏ":{"ha":1153,"x_min":0,"x_max":0,"o":"m 371 51 b 842 531 596 -71 836 228 b 646 629 744 514 660 547 b 768 861 832 647 853 806 b 371 669 675 919 514 869 b 371 51 231 468 179 153 m 200 -85 b 243 772 -104 72 -26 511 b 783 1007 397 925 601 1029 b 444 -129 1200 953 1129 140 b 200 -85 392 -137 285 -128 m 615 1081 b 857 1314 833 1153 888 1275 b 753 1321 826 1349 781 1335 b 728 1378 732 1326 718 1350 b 1040 1429 843 1479 974 1504 b 644 1022 1118 1336 1017 1133 l 615 1081 "},"Ơ":{"ha":1153,"x_min":0,"x_max":0,"o":"m 371 51 b 842 531 596 -71 836 228 b 646 629 744 514 660 547 b 768 861 832 647 853 806 b 371 669 675 919 514 869 b 371 51 231 468 179 153 m 200 -85 b 243 772 -104 72 -26 511 b 783 1007 397 925 601 1029 b 1032 753 921 989 1006 889 b 1378 997 1139 728 1311 789 l 1436 967 b 1039 597 1340 644 1192 526 b 444 -129 1014 335 824 19 b 200 -85 392 -137 285 -128 "},"Ớ":{"ha":1153,"x_min":0,"x_max":0,"o":"m 371 51 b 842 531 596 -71 836 228 b 646 629 744 514 660 547 b 768 861 832 647 853 806 b 371 669 675 919 514 869 b 371 51 231 468 179 153 m 200 -85 b 243 772 -104 72 -26 511 b 783 1007 397 925 601 1029 b 1032 753 921 989 1006 889 b 1378 997 1139 728 1311 789 l 1436 967 b 1039 597 1340 644 1192 526 b 444 -129 1014 335 824 19 b 200 -85 392 -137 285 -128 m 654 1121 b 919 1360 746 1176 854 1261 b 1010 1194 999 1375 1036 1283 b 663 1031 925 1108 775 1054 b 654 1121 635 1038 638 1090 "},"Ợ":{"ha":1153,"x_min":0,"x_max":0,"o":"m 371 51 b 842 531 596 -71 836 228 b 646 629 744 514 660 547 b 768 861 832 647 853 806 b 371 669 675 919 514 869 b 371 51 231 468 179 153 m 58 -275 b 231 -135 75 -256 150 -218 b 383 -237 236 -144 290 -215 b 181 -421 339 -296 258 -381 b 58 -275 139 -386 83 -326 m 200 -85 b 243 772 -104 72 -26 511 b 783 1007 397 925 601 1029 b 1032 753 921 989 1006 889 b 1378 997 1139 728 1311 789 l 1436 967 b 1039 597 1340 644 1192 526 b 444 -129 1014 335 824 19 b 200 -85 392 -137 285 -128 "},"Ờ":{"ha":1153,"x_min":0,"x_max":0,"o":"m 371 51 b 842 531 596 -71 836 228 b 646 629 744 514 660 547 b 768 861 832 647 853 806 b 371 669 675 919 514 869 b 371 51 231 468 179 153 m 200 -85 b 243 772 -104 72 -26 511 b 783 1007 397 925 601 1029 b 1032 753 921 989 1006 889 b 1378 997 1139 728 1311 789 l 1436 967 b 1039 597 1340 644 1192 526 b 444 -129 1014 335 824 19 b 200 -85 392 -137 285 -128 m 651 1151 b 808 1293 661 1222 736 1301 b 978 1118 833 1218 910 1157 b 940 1042 985 1094 967 1049 b 651 1151 833 1051 703 1085 "},"Ở":{"ha":1153,"x_min":0,"x_max":0,"o":"m 371 51 b 842 531 596 -71 836 228 b 646 629 744 514 660 547 b 768 861 832 647 853 806 b 371 669 675 919 514 869 b 371 51 231 468 179 153 m 200 -85 b 243 772 -104 72 -26 511 b 783 1007 397 925 601 1029 b 1032 753 921 989 1006 889 b 1378 997 1139 728 1311 789 l 1436 967 b 1039 597 1340 644 1192 526 b 444 -129 1014 335 824 19 b 200 -85 392 -137 285 -128 m 615 1081 b 857 1314 833 1153 888 1275 b 753 1321 826 1349 781 1335 b 728 1378 732 1326 718 1350 b 1040 1429 843 1479 974 1504 b 644 1022 1118 1336 1017 1133 l 615 1081 "},"Ỡ":{"ha":1153,"x_min":0,"x_max":0,"o":"m 371 51 b 842 531 596 -71 836 228 b 646 629 744 514 660 547 b 768 861 832 647 853 806 b 371 669 675 919 514 869 b 371 51 231 468 179 153 m 200 -85 b 243 772 -104 72 -26 511 b 783 1007 397 925 601 1029 b 1032 753 921 989 1006 889 b 1378 997 1139 728 1311 789 l 1436 967 b 1039 597 1340 644 1192 526 b 444 -129 1014 335 824 19 b 200 -85 392 -137 285 -128 m 576 1193 b 861 1194 853 1440 819 1178 b 925 1269 900 1210 919 1242 b 1081 1196 994 1301 1100 1293 b 806 1057 981 1081 847 1047 b 750 1178 756 1065 761 1179 b 693 1058 728 1175 693 1104 b 576 1193 611 1028 563 1138 "},"Ő":{"ha":1153,"x_min":0,"x_max":0,"o":"m 371 51 b 842 531 596 -71 836 228 b 646 629 744 514 660 547 b 768 861 832 647 853 806 b 371 669 675 919 514 869 b 371 51 231 468 179 153 m 200 -85 b 243 772 -104 72 -26 511 b 783 1007 397 925 601 1029 b 444 -129 1200 953 1129 140 b 200 -85 392 -137 285 -128 m 586 1133 b 851 1372 678 1189 786 1274 b 949 1268 911 1383 946 1332 b 1038 1372 982 1300 1010 1335 b 1128 1207 1117 1388 1154 1296 b 781 1043 1043 1121 893 1067 b 761 1094 765 1047 758 1068 b 594 1043 699 1068 636 1050 b 586 1133 567 1050 569 1103 "},"Ō":{"ha":1153,"x_min":0,"x_max":0,"o":"m 371 51 b 842 531 596 -71 836 228 b 646 629 744 514 660 547 b 768 861 832 647 853 806 b 371 669 675 919 514 869 b 371 51 231 468 179 153 m 200 -85 b 243 772 -104 72 -26 511 b 783 1007 397 925 601 1029 b 444 -129 1200 953 1129 140 b 200 -85 392 -137 285 -128 m 558 1097 b 604 1203 553 1125 581 1172 b 969 1203 738 1190 881 1185 b 958 1047 1015 1171 981 1079 b 558 1097 774 1008 565 1089 "},"Ṓ":{"ha":1153,"x_min":0,"x_max":0,"o":"m 371 51 b 842 531 596 -71 836 228 b 646 629 744 514 660 547 b 768 861 832 647 853 806 b 371 669 675 919 514 869 b 371 51 231 468 179 153 m 200 -85 b 243 772 -104 72 -26 511 b 783 1007 397 925 601 1029 b 444 -129 1200 953 1129 140 b 200 -85 392 -137 285 -128 m 578 1097 b 624 1203 572 1125 600 1172 b 989 1203 757 1190 900 1185 b 978 1047 1035 1171 1000 1079 b 578 1097 793 1008 585 1089 m 717 1290 b 982 1529 808 1346 917 1431 b 1072 1364 1061 1544 1099 1453 b 725 1200 988 1278 838 1224 b 717 1290 697 1207 700 1260 "},"Ṑ":{"ha":1153,"x_min":0,"x_max":0,"o":"m 371 51 b 842 531 596 -71 836 228 b 646 629 744 514 660 547 b 768 861 832 647 853 806 b 371 669 675 919 514 869 b 371 51 231 468 179 153 m 200 -85 b 243 772 -104 72 -26 511 b 783 1007 397 925 601 1029 b 444 -129 1200 953 1129 140 b 200 -85 392 -137 285 -128 m 579 1099 b 625 1204 574 1126 601 1174 b 990 1204 758 1192 901 1186 b 979 1049 1036 1172 1001 1081 b 579 1099 794 1010 586 1090 m 715 1322 b 872 1464 725 1393 800 1472 b 1042 1289 897 1389 974 1328 b 1004 1213 1049 1265 1031 1219 b 715 1322 897 1222 767 1256 "},"Ø":{"ha":1153,"x_min":0,"x_max":0,"o":"m 371 51 b 842 531 596 -71 836 228 b 717 540 796 522 751 526 b 304 106 564 400 419 244 b 371 51 322 85 344 65 m -25 -140 b 79 14 7 -89 43 -36 b 243 772 -74 213 18 554 b 783 1007 397 925 601 1029 b 946 928 850 999 904 971 b 1046 1008 988 964 1022 992 b 1165 886 1160 1011 1185 935 b 1022 793 1119 860 1071 828 b 444 -129 1104 518 926 60 b 200 -85 392 -137 285 -128 b 169 -67 189 -79 179 -74 b 96 -181 139 -110 114 -147 b -25 -140 49 -201 -24 -206 m 250 235 b 808 810 440 463 649 665 b 768 861 801 831 788 849 b 371 669 675 919 514 869 b 250 235 282 542 229 369 "},"Ǿ":{"ha":1153,"x_min":0,"x_max":0,"o":"m 371 51 b 842 531 596 -71 836 228 b 717 540 796 522 751 526 b 304 106 564 400 419 244 b 371 51 322 85 344 65 m -25 -140 b 79 14 7 -89 43 -36 b 243 772 -74 213 18 554 b 783 1007 397 925 601 1029 b 946 928 850 999 904 971 b 1046 1008 988 964 1022 992 b 1165 886 1160 1011 1185 935 b 1022 793 1119 860 1071 828 b 444 -129 1104 518 926 60 b 200 -85 392 -137 285 -128 b 169 -67 189 -79 179 -74 b 96 -181 139 -110 114 -147 b -25 -140 49 -201 -24 -206 m 250 235 b 808 810 440 463 649 665 b 768 861 801 831 788 849 b 371 669 675 919 514 869 b 250 235 282 542 229 369 m 654 1121 b 919 1360 746 1176 854 1261 b 1010 1194 999 1375 1036 1283 b 663 1031 925 1108 775 1054 b 654 1121 635 1038 638 1090 "},"Õ":{"ha":1153,"x_min":0,"x_max":0,"o":"m 371 51 b 842 531 596 -71 836 228 b 646 629 744 514 660 547 b 768 861 832 647 853 806 b 371 669 675 919 514 869 b 371 51 231 468 179 153 m 200 -85 b 243 772 -104 72 -26 511 b 783 1007 397 925 601 1029 b 444 -129 1200 953 1129 140 b 200 -85 392 -137 285 -128 m 576 1193 b 861 1194 853 1440 819 1178 b 925 1269 900 1210 919 1242 b 1081 1196 994 1301 1100 1293 b 806 1057 981 1081 847 1047 b 750 1178 756 1065 761 1179 b 693 1058 728 1175 693 1104 b 576 1193 611 1028 563 1138 "},"Ṍ":{"ha":1153,"x_min":0,"x_max":0,"o":"m 371 51 b 842 531 596 -71 836 228 b 646 629 744 514 660 547 b 768 861 832 647 853 806 b 371 669 675 919 514 869 b 371 51 231 468 179 153 m 200 -85 b 243 772 -104 72 -26 511 b 783 1007 397 925 601 1029 b 444 -129 1200 953 1129 140 b 200 -85 392 -137 285 -128 m 576 1193 b 753 1299 660 1268 715 1296 b 757 1381 739 1317 743 1356 b 1022 1619 849 1436 957 1521 b 1113 1454 1101 1635 1139 1543 b 786 1294 1033 1374 896 1321 b 861 1194 838 1274 836 1185 b 925 1269 900 1210 919 1242 b 1081 1196 994 1301 1100 1293 b 806 1057 981 1081 847 1047 b 750 1178 756 1065 761 1179 b 693 1058 728 1175 693 1104 b 576 1193 611 1028 563 1138 "},"Œ":{"ha":1904,"x_min":0,"x_max":0,"o":"m 371 51 b 690 133 485 -10 601 35 b 833 439 675 250 739 368 b 842 531 838 469 842 500 b 646 629 744 514 660 547 b 768 861 832 647 853 806 b 371 669 675 919 514 869 b 371 51 231 468 179 153 m 200 -85 b 243 772 -104 72 -26 511 b 783 1007 397 925 601 1029 b 1010 826 894 993 971 925 b 1678 944 1158 999 1501 1060 b 1688 544 1865 819 1672 643 b 1415 603 1633 521 1450 528 b 1578 856 1458 738 1631 782 b 1139 546 1497 961 1158 833 b 1411 439 1332 567 1436 526 b 1056 415 1386 354 1179 315 b 1065 31 906 332 890 118 b 1864 407 1285 -79 1742 96 l 1950 354 b 882 -97 1775 -61 1204 -257 b 725 36 807 -60 756 -14 b 444 -129 647 -29 554 -86 b 200 -85 392 -137 285 -128 "},"P":{"ha":1522,"x_min":0,"x_max":0,"o":"m 613 -335 b 346 -303 528 -394 385 -372 b 1007 908 415 17 707 590 b 1106 865 1053 903 1093 878 b 776 339 975 711 861 525 b 1189 857 1214 269 1438 661 b 274 625 913 1075 496 772 b 164 808 213 647 163 711 b 1331 958 472 949 936 1156 b 733 239 1725 761 1406 149 b 613 -335 647 26 601 -179 "},"Þ":{"ha":1522,"x_min":0,"x_max":0,"o":"m 613 -335 b 346 -303 528 -394 385 -372 b 793 660 396 -69 581 335 b 150 354 557 638 303 443 b 40 538 88 376 38 440 b 867 768 263 639 567 775 b 1036 976 922 846 979 917 b 1135 933 1082 971 1122 946 b 1001 754 1089 878 1044 818 b 1206 688 1071 742 1139 721 b 646 -36 1593 494 1293 -99 b 613 -335 618 -150 606 -251 m 674 64 b 1065 586 1097 13 1310 392 b 936 650 1024 618 981 639 b 674 64 824 463 731 254 "},"Q":{"ha":1146,"x_min":0,"x_max":0,"o":"m 1018 -461 b 529 -92 808 -394 649 -253 b 443 -129 501 -104 472 -118 b 199 -85 390 -137 282 -128 b 242 772 -104 72 -28 511 b 783 1007 396 926 601 1029 b 640 -26 1156 958 1138 304 b 1076 -201 754 -128 896 -194 b 1018 -461 1128 -292 1090 -428 m 368 669 b 371 51 228 468 176 154 b 447 29 397 38 422 31 b 374 165 421 75 396 121 b 431 260 385 210 417 250 b 556 64 465 189 507 122 b 840 546 699 156 811 411 b 767 861 874 713 850 807 b 368 669 675 919 514 869 "},"R":{"ha":1308,"x_min":0,"x_max":0,"o":"m 388 -207 b 124 -89 279 -242 140 -175 b 564 361 254 4 431 158 b 414 528 469 376 344 440 b 656 526 460 583 558 571 b 750 901 707 640 743 767 b 942 876 821 929 894 903 b 789 443 928 790 872 625 l 814 421 b 1047 878 1122 429 1244 724 b 285 674 821 1054 444 790 b 178 838 226 689 174 747 b 1197 969 447 961 853 1142 b 913 340 1493 821 1331 408 b 1483 -401 983 128 1215 -199 b 1250 -507 1465 -431 1378 -514 b 776 331 1100 -396 911 -7 l 738 332 b 388 -207 639 132 515 -74 "},"Ŕ":{"ha":1308,"x_min":0,"x_max":0,"o":"m 388 -207 b 124 -89 279 -242 140 -175 b 564 361 254 4 431 158 b 414 528 469 376 344 440 b 656 526 460 583 558 571 b 750 901 707 640 743 767 b 942 876 821 929 894 903 b 789 443 928 790 872 625 l 814 421 b 1047 878 1122 429 1244 724 b 285 674 821 1054 444 790 b 178 838 226 689 174 747 b 963 1036 388 933 681 1065 b 971 1111 954 1056 958 1089 b 1236 1350 1063 1167 1171 1251 b 1326 1185 1315 1365 1353 1274 b 1015 1029 1250 1107 1122 1056 b 1197 969 1076 1018 1138 999 b 913 340 1493 821 1331 408 b 1483 -401 983 128 1215 -199 b 1250 -507 1465 -431 1378 -514 b 776 331 1100 -396 911 -7 l 738 332 b 388 -207 639 132 515 -74 "},"Ř":{"ha":1308,"x_min":0,"x_max":0,"o":"m 388 -207 b 124 -89 279 -242 140 -175 b 564 361 254 4 431 158 b 414 528 469 376 344 440 b 656 526 460 583 558 571 b 750 901 707 640 743 767 b 942 876 821 929 894 903 b 789 443 928 790 872 625 l 814 421 b 1047 878 1122 429 1244 724 b 285 674 821 1054 444 790 b 178 838 226 689 174 747 b 1197 969 447 961 853 1142 b 913 340 1493 821 1331 408 b 1483 -401 983 128 1215 -199 b 1250 -507 1465 -431 1378 -514 b 776 331 1100 -396 911 -7 l 738 332 b 388 -207 639 132 515 -74 m 901 1215 b 1011 1315 918 1253 957 1306 b 1089 1153 1025 1279 1054 1219 b 1267 1317 1126 1189 1189 1249 b 1332 1196 1294 1296 1332 1250 b 1132 1007 1249 1142 1178 1071 b 1024 1051 1090 1014 1036 1026 b 901 1215 1019 1096 1003 1122 "},"Ŗ":{"ha":1308,"x_min":0,"x_max":0,"o":"m 388 -207 b 124 -89 279 -242 140 -175 b 564 361 254 4 431 158 b 414 528 469 376 344 440 b 656 526 460 583 558 571 b 750 901 707 640 743 767 b 942 876 821 929 894 903 b 789 443 928 790 872 625 l 814 421 b 1047 878 1122 429 1244 724 b 285 674 821 1054 444 790 b 178 838 226 689 174 747 b 1197 969 447 961 853 1142 b 913 340 1493 821 1331 408 b 1483 -401 983 128 1215 -199 b 1250 -507 1465 -431 1378 -514 b 776 331 1100 -396 911 -7 l 738 332 b 388 -207 639 132 515 -74 m 482 -401 b 581 -314 525 -372 558 -342 b 522 -250 557 -299 536 -278 b 689 -83 544 -201 601 -129 b 790 -218 725 -111 774 -162 b 518 -472 744 -324 619 -418 b 482 -401 500 -460 474 -432 "},"Ṝ":{"ha":1308,"x_min":0,"x_max":0,"o":"m 388 -207 b 124 -89 279 -242 140 -175 b 564 361 254 4 431 158 b 414 528 469 376 344 440 b 656 526 460 583 558 571 b 750 901 707 640 743 767 b 942 876 821 929 894 903 b 789 443 928 790 872 625 l 814 421 b 1047 878 1122 429 1244 724 b 285 674 821 1054 444 790 b 178 838 226 689 174 747 b 1197 969 447 961 853 1142 b 913 340 1493 821 1331 408 b 1483 -401 983 128 1215 -199 b 1250 -507 1465 -431 1378 -514 b 776 331 1100 -396 911 -7 l 738 332 b 388 -207 639 132 515 -74 m 494 -254 b 667 -114 511 -235 586 -197 b 819 -217 672 -124 726 -194 b 617 -400 775 -275 694 -360 b 494 -254 575 -365 519 -306 m 875 1088 b 921 1193 869 1115 897 1163 b 1286 1193 1054 1181 1197 1175 b 1275 1038 1332 1161 1297 1069 b 875 1088 1090 999 882 1079 "},"Ṟ":{"ha":1308,"x_min":0,"x_max":0,"o":"m 388 -207 b 124 -89 279 -242 140 -175 b 564 361 254 4 431 158 b 414 528 469 376 344 440 b 656 526 460 583 558 571 b 750 901 707 640 743 767 b 942 876 821 929 894 903 b 789 443 928 790 872 625 l 814 421 b 1047 878 1122 429 1244 724 b 285 674 821 1054 444 790 b 178 838 226 689 174 747 b 1197 969 447 961 853 1142 b 913 340 1493 821 1331 408 b 1483 -401 983 128 1215 -199 b 1250 -507 1465 -431 1378 -514 b 776 331 1100 -396 911 -7 l 738 332 b 388 -207 639 132 515 -74 m 447 -240 b 493 -135 442 -212 469 -164 b 858 -133 626 -147 769 -153 b 847 -289 904 -165 869 -257 b 447 -240 663 -328 454 -247 "},"S":{"ha":1088,"x_min":0,"x_max":0,"o":"m 696 -222 b -35 250 396 -500 -224 -260 b 222 243 38 296 153 279 b 596 -149 -10 14 376 -426 b 511 431 750 46 558 169 b 1089 894 446 782 863 1043 b 1100 553 1253 788 1085 636 b 863 603 1056 532 893 535 b 1001 817 903 718 1047 754 b 721 458 926 915 599 744 b 696 -222 843 176 879 -54 "},"Ś":{"ha":1088,"x_min":0,"x_max":0,"o":"m 696 -222 b -35 250 396 -500 -224 -260 b 222 243 38 296 153 279 b 596 -149 -10 14 376 -426 b 511 431 750 46 558 169 b 1089 894 446 782 863 1043 b 1100 553 1253 788 1085 636 b 863 603 1056 532 893 535 b 1001 817 903 718 1047 754 b 721 458 926 915 599 744 b 696 -222 843 176 879 -54 m 863 1071 b 1128 1310 954 1126 1063 1211 b 1218 1144 1207 1325 1244 1233 b 871 981 1133 1058 983 1004 b 863 1071 843 988 846 1040 "},"Ꞌ":{"ha":544,"x_min":0,"x_max":0,"o":"m 599 828 b 335 360 532 783 364 511 b 211 326 303 319 238 314 b 333 835 204 336 219 569 b 599 828 404 893 535 971 "},"Š":{"ha":1088,"x_min":0,"x_max":0,"o":"m 696 -222 b -35 250 396 -500 -224 -260 b 222 243 38 296 153 279 b 596 -149 -10 14 376 -426 b 511 431 750 46 558 169 b 1089 894 446 782 863 1043 b 1100 553 1253 788 1085 636 b 863 603 1056 532 893 535 b 1001 817 903 718 1047 754 b 721 458 926 915 599 744 b 696 -222 843 176 879 -54 m 793 1175 b 903 1275 810 1213 849 1265 b 981 1113 917 1239 946 1179 b 1158 1276 1018 1149 1081 1208 b 1224 1156 1186 1256 1224 1210 b 1024 967 1140 1101 1069 1031 b 915 1011 982 974 928 986 b 793 1175 911 1056 894 1082 "},"Ş":{"ha":1088,"x_min":0,"x_max":0,"o":"m 696 -222 b 181 -297 556 -353 344 -369 l 158 -315 b 288 -571 317 -337 374 -467 b -136 -603 197 -678 -25 -697 b -97 -536 -137 -582 -125 -549 b 104 -497 -19 -569 58 -554 b -33 -396 149 -439 113 -379 l 10 -324 l 110 -258 b -35 250 -37 -162 -122 15 b 222 243 38 296 153 279 b 596 -149 -10 14 376 -426 b 511 431 750 46 558 169 b 1089 894 446 782 863 1043 b 1100 553 1253 788 1085 636 b 863 603 1056 532 893 535 b 1001 817 903 718 1047 754 b 721 458 926 915 599 744 b 696 -222 843 176 879 -54 "},"Ŝ":{"ha":1088,"x_min":0,"x_max":0,"o":"m 696 -222 b -35 250 396 -500 -224 -260 b 222 243 38 296 153 279 b 596 -149 -10 14 376 -426 b 511 431 750 46 558 169 b 1089 894 446 782 863 1043 b 1100 553 1253 788 1085 636 b 863 603 1056 532 893 535 b 1001 817 903 718 1047 754 b 721 458 926 915 599 744 b 696 -222 843 176 879 -54 m 794 1061 b 993 1250 876 1115 947 1186 b 1103 1206 1035 1243 1090 1231 b 1224 1043 1104 1161 1121 1135 b 1114 942 1206 1004 1165 951 b 1038 1104 1100 978 1071 1039 b 858 940 1000 1068 936 1008 b 794 1061 829 963 792 1007 "},"Ș":{"ha":1088,"x_min":0,"x_max":0,"o":"m 696 -222 b -35 250 396 -500 -224 -260 b 222 243 38 296 153 279 b 596 -149 -10 14 376 -426 b 511 431 750 46 558 169 b 1089 894 446 782 863 1043 b 1100 553 1253 788 1085 636 b 863 603 1056 532 893 535 b 1001 817 903 718 1047 754 b 721 458 926 915 599 744 b 696 -222 843 176 879 -54 m -46 -617 b 53 -529 -3 -587 31 -557 b -6 -465 29 -514 8 -493 b 161 -299 17 -417 74 -344 b 263 -433 197 -326 246 -378 b -10 -687 217 -539 92 -633 b -46 -617 -28 -675 -54 -647 "},"Ṣ":{"ha":1088,"x_min":0,"x_max":0,"o":"m 696 -222 b -35 250 396 -500 -224 -260 b 222 243 38 296 153 279 b 596 -149 -10 14 376 -426 b 511 431 750 46 558 169 b 1089 894 446 782 863 1043 b 1100 553 1253 788 1085 636 b 863 603 1056 532 893 535 b 1001 817 903 718 1047 754 b 721 458 926 915 599 744 b 696 -222 843 176 879 -54 m -33 -469 b 139 -329 -17 -450 58 -412 b 292 -432 144 -339 199 -410 b 89 -615 247 -490 167 -575 b -33 -469 47 -581 -8 -521 "},"ẞ":{"ha":654,"x_min":0,"x_max":0,"o":"m -318 -167 b 136 675 -176 32 36 513 b 600 922 239 843 461 936 b 240 296 651 817 656 593 b 350 121 413 315 425 228 b 650 407 449 157 582 260 l 733 353 b 182 -49 693 236 388 -19 b 72 -122 147 -75 110 -99 b 61 58 -14 -89 31 8 b 60 214 197 132 315 256 b -92 -225 3 76 -50 -75 b -318 -167 -139 -257 -328 -261 m 118 349 b 417 735 285 424 424 617 b 118 349 331 724 222 567 "},"Ə":{"ha":1317,"x_min":0,"x_max":0,"o":"m 522 756 b 1088 174 971 953 1469 642 b 574 -4 931 -21 721 -49 b 690 476 339 71 282 349 b 943 543 754 494 846 519 b 600 624 918 640 794 685 b 90 199 422 567 174 381 l -31 274 b 522 756 7 385 263 646 m 633 144 b 822 254 681 138 738 161 b 926 410 872 308 907 361 b 767 350 867 389 814 368 b 633 144 567 264 542 160 "},"T":{"ha":1032,"x_min":0,"x_max":0,"o":"m 489 -315 b 233 -237 393 -360 260 -314 b 989 844 343 32 671 550 b 188 782 733 856 444 838 b 296 1026 171 832 189 922 b 1157 960 538 1079 951 1001 b 1517 994 1211 969 1378 983 b 1528 761 1544 919 1565 814 b 1142 835 1432 796 1297 821 b 489 -315 796 532 519 -12 "},"Ŧ":{"ha":1032,"x_min":0,"x_max":0,"o":"m 489 -315 b 233 -237 393 -360 260 -314 b 592 379 296 -83 429 151 b 428 322 536 368 479 350 b 532 560 411 415 476 511 b 747 583 606 575 679 582 b 989 844 826 679 908 769 b 188 782 733 856 444 838 b 296 1026 171 832 189 922 b 1157 960 538 1079 951 1001 b 1517 994 1211 969 1378 983 b 1528 761 1544 919 1565 814 b 1142 835 1432 796 1297 821 b 899 571 1056 760 974 669 b 999 539 939 564 972 553 b 950 365 999 458 985 421 b 776 394 910 381 847 392 b 489 -315 617 140 508 -132 "},"Ť":{"ha":1032,"x_min":0,"x_max":0,"o":"m 489 -315 b 233 -237 393 -360 260 -314 b 989 844 343 32 671 550 b 188 782 733 856 444 838 b 296 1026 171 832 189 922 b 1157 960 538 1079 951 1001 b 1517 994 1211 969 1378 983 b 1528 761 1544 919 1565 814 b 1142 835 1432 796 1297 821 b 489 -315 796 532 519 -12 m 933 1175 b 1043 1275 950 1213 989 1265 b 1121 1113 1057 1239 1086 1179 b 1299 1276 1158 1149 1221 1208 b 1364 1156 1326 1256 1364 1210 b 1164 967 1281 1101 1210 1031 b 1056 1011 1122 974 1068 986 b 933 1175 1051 1056 1035 1082 "},"Ţ":{"ha":1032,"x_min":0,"x_max":0,"o":"m 489 -315 b 346 -325 444 -336 392 -337 l 315 -350 b 444 -606 474 -372 531 -501 b 22 -637 354 -712 132 -732 b 60 -571 19 -617 32 -583 b 261 -532 138 -604 215 -589 b 125 -431 306 -474 269 -414 l 167 -358 l 272 -289 b 233 -237 254 -275 240 -257 b 989 844 343 32 671 550 b 188 782 733 856 444 838 b 296 1026 171 832 189 922 b 1157 960 538 1079 951 1001 b 1517 994 1211 969 1378 983 b 1528 761 1544 919 1565 814 b 1142 835 1432 796 1297 821 b 489 -315 796 532 519 -12 "},"Ț":{"ha":1032,"x_min":0,"x_max":0,"o":"m 489 -315 b 233 -237 393 -360 260 -314 b 989 844 343 32 671 550 b 188 782 733 856 444 838 b 296 1026 171 832 189 922 b 1157 960 538 1079 951 1001 b 1517 994 1211 969 1378 983 b 1528 761 1544 919 1565 814 b 1142 835 1432 796 1297 821 b 489 -315 796 532 519 -12 m 111 -651 b 210 -564 154 -622 188 -592 b 151 -500 186 -549 165 -528 b 318 -333 174 -451 231 -379 b 419 -468 354 -361 403 -412 b 147 -722 374 -574 249 -668 b 111 -651 129 -710 103 -682 "},"Ṭ":{"ha":1032,"x_min":0,"x_max":0,"o":"m 489 -315 b 233 -237 393 -360 260 -314 b 989 844 343 32 671 550 b 188 782 733 856 444 838 b 296 1026 171 832 189 922 b 1157 960 538 1079 951 1001 b 1517 994 1211 969 1378 983 b 1528 761 1544 919 1565 814 b 1142 835 1432 796 1297 821 b 489 -315 796 532 519 -12 m 124 -504 b 296 -364 140 -485 215 -447 b 449 -467 301 -374 356 -444 b 246 -650 404 -525 324 -610 b 124 -504 204 -615 149 -556 "},"Ṯ":{"ha":1032,"x_min":0,"x_max":0,"o":"m 489 -315 b 233 -237 393 -360 260 -314 b 989 844 343 32 671 550 b 188 782 733 856 444 838 b 296 1026 171 832 189 922 b 1157 960 538 1079 951 1001 b 1517 994 1211 969 1378 983 b 1528 761 1544 919 1565 814 b 1142 835 1432 796 1297 821 b 489 -315 796 532 519 -12 m 76 -490 b 122 -385 71 -462 99 -414 b 488 -383 256 -397 399 -403 b 476 -539 533 -415 499 -507 b 76 -490 292 -578 83 -497 "},"U":{"ha":1229,"x_min":0,"x_max":0,"o":"m -25 -44 b 315 982 -301 124 369 554 b 531 939 376 990 481 994 b 190 144 543 622 15 258 b 688 521 261 101 431 279 b 1051 994 760 674 878 840 b 1183 872 1113 986 1160 922 b 839 147 788 633 721 214 b 1225 407 935 88 1139 217 l 1310 353 b 661 -7 1158 3 794 -99 b 617 319 600 35 579 158 b -25 -44 372 71 126 -136 "},"Ú":{"ha":1229,"x_min":0,"x_max":0,"o":"m -25 -44 b 315 982 -301 124 369 554 b 531 939 376 990 481 994 b 190 144 543 622 15 258 b 688 521 261 101 431 279 b 1051 994 760 674 878 840 b 1183 872 1113 986 1160 922 b 839 147 788 633 721 214 b 1225 407 935 88 1139 217 l 1310 353 b 661 -7 1158 3 794 -99 b 617 319 600 35 579 158 b -25 -44 372 71 126 -136 m 629 1038 b 894 1276 721 1093 829 1178 b 985 1111 974 1292 1011 1200 b 638 947 900 1025 750 971 b 629 1038 610 954 613 1007 "},"Ŭ":{"ha":1229,"x_min":0,"x_max":0,"o":"m -25 -44 b 315 982 -301 124 369 554 b 531 939 376 990 481 994 b 190 144 543 622 15 258 b 688 521 261 101 431 279 b 1051 994 760 674 878 840 b 1183 872 1113 986 1160 922 b 839 147 788 633 721 214 b 1225 407 935 88 1139 217 l 1310 353 b 661 -7 1158 3 794 -99 b 617 319 600 35 579 158 b -25 -44 372 71 126 -136 m 536 1128 b 749 1153 619 1217 743 1203 b 908 1160 740 1024 829 1007 b 1035 1125 976 1200 1050 1171 b 536 1128 918 904 578 875 "},"Ǔ":{"ha":1229,"x_min":0,"x_max":0,"o":"m -25 -44 b 315 982 -301 124 369 554 b 531 939 376 990 481 994 b 190 144 543 622 15 258 b 688 521 261 101 431 279 b 1051 994 760 674 878 840 b 1183 872 1113 986 1160 922 b 839 147 788 633 721 214 b 1225 407 935 88 1139 217 l 1310 353 b 661 -7 1158 3 794 -99 b 617 319 600 35 579 158 b -25 -44 372 71 126 -136 m 560 1142 b 669 1242 576 1179 615 1232 b 747 1079 683 1206 713 1146 b 925 1243 785 1115 847 1175 b 990 1122 953 1222 990 1176 b 790 933 907 1068 836 997 b 682 978 749 940 694 953 b 560 1142 678 1022 661 1049 "},"Û":{"ha":1229,"x_min":0,"x_max":0,"o":"m -25 -44 b 315 982 -301 124 369 554 b 531 939 376 990 481 994 b 190 144 543 622 15 258 b 688 521 261 101 431 279 b 1051 994 760 674 878 840 b 1183 872 1113 986 1160 922 b 839 147 788 633 721 214 b 1225 407 935 88 1139 217 l 1310 353 b 661 -7 1158 3 794 -99 b 617 319 600 35 579 158 b -25 -44 372 71 126 -136 m 561 1028 b 760 1217 643 1082 714 1153 b 869 1172 801 1210 857 1197 b 990 1010 871 1128 888 1101 b 881 908 972 971 932 918 b 804 1071 867 944 838 1006 b 625 907 767 1035 703 975 b 561 1028 596 929 558 974 "},"Ü":{"ha":1229,"x_min":0,"x_max":0,"o":"m -25 -44 b 315 982 -301 124 369 554 b 531 939 376 990 481 994 b 190 144 543 622 15 258 b 688 521 261 101 431 279 b 1051 994 760 674 878 840 b 1183 872 1113 986 1160 922 b 839 147 788 633 721 214 b 1225 407 935 88 1139 217 l 1310 353 b 661 -7 1158 3 794 -99 b 617 319 600 35 579 158 b -25 -44 372 71 126 -136 m 522 1076 b 694 1217 539 1096 615 1136 b 789 1135 699 1207 733 1165 b 911 1236 822 1158 865 1190 b 1064 1133 917 1226 971 1156 b 861 950 1018 1075 938 990 b 778 1035 839 968 806 1000 b 644 931 743 1000 697 958 b 522 1076 603 967 546 1025 "},"Ǘ":{"ha":1229,"x_min":0,"x_max":0,"o":"m -25 -44 b 315 982 -301 124 369 554 b 531 939 376 990 481 994 b 190 144 543 622 15 258 b 688 521 261 101 431 279 b 1051 994 760 674 878 840 b 1183 872 1113 986 1160 922 b 839 147 788 633 721 214 b 1225 407 935 88 1139 217 l 1310 353 b 661 -7 1158 3 794 -99 b 617 319 600 35 579 158 b -25 -44 372 71 126 -136 m 522 1076 b 694 1217 539 1096 615 1136 b 789 1135 699 1207 733 1165 b 911 1236 822 1158 865 1190 b 1064 1133 917 1226 971 1156 b 861 950 1018 1075 938 990 b 778 1035 839 968 806 1000 b 644 931 743 1000 697 958 b 522 1076 603 967 546 1025 m 731 1319 b 996 1558 822 1375 931 1460 b 1086 1393 1075 1574 1113 1482 b 739 1229 1001 1307 851 1253 b 731 1319 711 1236 714 1289 "},"Ǚ":{"ha":1229,"x_min":0,"x_max":0,"o":"m -25 -44 b 315 982 -301 124 369 554 b 531 939 376 990 481 994 b 190 144 543 622 15 258 b 688 521 261 101 431 279 b 1051 994 760 674 878 840 b 1183 872 1113 986 1160 922 b 839 147 788 633 721 214 b 1225 407 935 88 1139 217 l 1310 353 b 661 -7 1158 3 794 -99 b 617 319 600 35 579 158 b -25 -44 372 71 126 -136 m 522 1076 b 694 1217 539 1096 615 1136 b 789 1135 699 1207 733 1165 b 890 1215 817 1154 851 1181 b 783 1260 849 1222 796 1235 b 661 1424 779 1304 763 1331 b 771 1524 678 1461 717 1514 b 849 1361 785 1488 814 1428 b 1026 1525 886 1397 949 1457 b 1092 1404 1054 1504 1092 1458 b 896 1222 1011 1351 942 1283 l 911 1236 b 1064 1133 917 1226 971 1156 b 861 950 1018 1075 938 990 b 778 1035 839 968 806 1000 b 644 931 743 1000 697 958 b 522 1076 603 967 546 1025 "},"Ǜ":{"ha":1229,"x_min":0,"x_max":0,"o":"m -25 -44 b 315 982 -301 124 369 554 b 531 939 376 990 481 994 b 190 144 543 622 15 258 b 688 521 261 101 431 279 b 1051 994 760 674 878 840 b 1183 872 1113 986 1160 922 b 839 147 788 633 721 214 b 1225 407 935 88 1139 217 l 1310 353 b 661 -7 1158 3 794 -99 b 617 319 600 35 579 158 b -25 -44 372 71 126 -136 m 522 1076 b 694 1217 539 1096 615 1136 b 789 1135 699 1207 733 1165 b 911 1236 822 1158 865 1190 b 1064 1133 917 1226 971 1156 b 861 950 1018 1075 938 990 b 778 1035 839 968 806 1000 b 644 931 743 1000 697 958 b 522 1076 603 967 546 1025 m 728 1350 b 885 1492 738 1421 813 1500 b 1054 1317 910 1417 986 1356 b 1017 1240 1061 1293 1043 1247 b 728 1350 910 1250 779 1283 "},"Ǖ":{"ha":1229,"x_min":0,"x_max":0,"o":"m -25 -44 b 315 982 -301 124 369 554 b 531 939 376 990 481 994 b 190 144 543 622 15 258 b 688 521 261 101 431 279 b 1051 994 760 674 878 840 b 1183 872 1113 986 1160 922 b 839 147 788 633 721 214 b 1225 407 935 88 1139 217 l 1310 353 b 661 -7 1158 3 794 -99 b 617 319 600 35 579 158 b -25 -44 372 71 126 -136 m 522 1076 b 694 1217 539 1096 615 1136 b 789 1135 699 1207 733 1165 b 911 1236 822 1158 865 1190 b 635 1296 767 1239 640 1289 b 681 1401 629 1324 657 1371 b 1046 1401 814 1389 957 1383 b 1035 1246 1092 1369 1057 1278 b 911 1236 994 1238 953 1235 b 1064 1133 919 1224 972 1156 b 861 950 1018 1075 938 990 b 778 1035 839 968 806 1000 b 644 931 743 1000 697 958 b 522 1076 603 967 546 1025 "},"Ụ":{"ha":1229,"x_min":0,"x_max":0,"o":"m -25 -44 b 315 982 -301 124 369 554 b 531 939 376 990 481 994 b 190 144 543 622 15 258 b 688 521 261 101 431 279 b 1051 994 760 674 878 840 b 1183 872 1113 986 1160 922 b 839 147 788 633 721 214 b 1225 407 935 88 1139 217 l 1310 353 b 661 -7 1158 3 794 -99 b 617 319 600 35 579 158 b -25 -44 372 71 126 -136 m 100 -186 b 272 -46 117 -167 192 -129 b 425 -149 278 -56 332 -126 b 222 -332 381 -207 300 -292 b 100 -186 181 -297 125 -237 "},"Ù":{"ha":1229,"x_min":0,"x_max":0,"o":"m -25 -44 b 315 982 -301 124 369 554 b 531 939 376 990 481 994 b 190 144 543 622 15 258 b 688 521 261 101 431 279 b 1051 994 760 674 878 840 b 1183 872 1113 986 1160 922 b 839 147 788 633 721 214 b 1225 407 935 88 1139 217 l 1310 353 b 661 -7 1158 3 794 -99 b 617 319 600 35 579 158 b -25 -44 372 71 126 -136 m 626 1068 b 783 1210 636 1139 711 1218 b 953 1035 808 1135 885 1074 b 915 958 960 1011 942 965 b 626 1068 808 968 678 1001 "},"Ủ":{"ha":1229,"x_min":0,"x_max":0,"o":"m -25 -44 b 315 982 -301 124 369 554 b 531 939 376 990 481 994 b 190 144 543 622 15 258 b 688 521 261 101 431 279 b 1051 994 760 674 878 840 b 1183 872 1113 986 1160 922 b 839 147 788 633 721 214 b 1225 407 935 88 1139 217 l 1310 353 b 661 -7 1158 3 794 -99 b 617 319 600 35 579 158 b -25 -44 372 71 126 -136 m 590 997 b 832 1231 808 1069 863 1192 b 728 1238 801 1265 756 1251 b 703 1294 707 1243 693 1267 b 1015 1346 818 1396 949 1421 b 619 939 1093 1253 992 1050 l 590 997 "},"Ư":{"ha":1229,"x_min":0,"x_max":0,"o":"m -25 -44 b 315 982 -301 124 369 554 b 531 939 376 990 481 994 b 190 144 543 622 15 258 b 688 521 261 101 431 279 b 1051 994 760 674 878 840 b 1183 872 1113 986 1160 922 b 1051 776 1135 843 1092 811 b 1339 1026 1156 782 1285 853 l 1397 996 b 942 661 1289 632 1114 529 b 839 147 765 442 751 197 b 1225 407 935 88 1139 217 l 1310 353 b 661 -7 1158 3 794 -99 b 617 319 600 35 579 158 b -25 -44 372 71 126 -136 "},"Ứ":{"ha":1229,"x_min":0,"x_max":0,"o":"m -25 -44 b 315 982 -301 124 369 554 b 531 939 376 990 481 994 b 190 144 543 622 15 258 b 688 521 261 101 431 279 b 1051 994 760 674 878 840 b 1183 872 1113 986 1160 922 b 1051 776 1135 843 1092 811 b 1339 1026 1156 782 1285 853 l 1397 996 b 942 661 1289 632 1114 529 b 839 147 765 442 751 197 b 1225 407 935 88 1139 217 l 1310 353 b 661 -7 1158 3 794 -99 b 617 319 600 35 579 158 b -25 -44 372 71 126 -136 m 629 1038 b 894 1276 721 1093 829 1178 b 985 1111 974 1292 1011 1200 b 638 947 900 1025 750 971 b 629 1038 610 954 613 1007 "},"Ự":{"ha":1229,"x_min":0,"x_max":0,"o":"m -25 -44 b 315 982 -301 124 369 554 b 531 939 376 990 481 994 b 190 144 543 622 15 258 b 688 521 261 101 431 279 b 1051 994 760 674 878 840 b 1183 872 1113 986 1160 922 b 1051 776 1135 843 1092 811 b 1339 1026 1156 782 1285 853 l 1397 996 b 942 661 1289 632 1114 529 b 839 147 765 442 751 197 b 1225 407 935 88 1139 217 l 1310 353 b 661 -7 1158 3 794 -99 b 617 319 600 35 579 158 b -25 -44 372 71 126 -136 m 100 -186 b 272 -46 117 -167 192 -129 b 425 -149 278 -56 332 -126 b 222 -332 381 -207 300 -292 b 100 -186 181 -297 125 -237 "},"Ừ":{"ha":1229,"x_min":0,"x_max":0,"o":"m -25 -44 b 315 982 -301 124 369 554 b 531 939 376 990 481 994 b 190 144 543 622 15 258 b 688 521 261 101 431 279 b 1051 994 760 674 878 840 b 1183 872 1113 986 1160 922 b 1051 776 1135 843 1092 811 b 1339 1026 1156 782 1285 853 l 1397 996 b 942 661 1289 632 1114 529 b 839 147 765 442 751 197 b 1225 407 935 88 1139 217 l 1310 353 b 661 -7 1158 3 794 -99 b 617 319 600 35 579 158 b -25 -44 372 71 126 -136 m 626 1068 b 783 1210 636 1139 711 1218 b 953 1035 808 1135 885 1074 b 915 958 960 1011 942 965 b 626 1068 808 968 678 1001 "},"Ử":{"ha":1229,"x_min":0,"x_max":0,"o":"m -25 -44 b 315 982 -301 124 369 554 b 531 939 376 990 481 994 b 190 144 543 622 15 258 b 688 521 261 101 431 279 b 1051 994 760 674 878 840 b 1183 872 1113 986 1160 922 b 1051 776 1135 843 1092 811 b 1339 1026 1156 782 1285 853 l 1397 996 b 942 661 1289 632 1114 529 b 839 147 765 442 751 197 b 1225 407 935 88 1139 217 l 1310 353 b 661 -7 1158 3 794 -99 b 617 319 600 35 579 158 b -25 -44 372 71 126 -136 m 590 997 b 832 1231 808 1069 863 1192 b 728 1238 801 1265 756 1251 b 703 1294 707 1243 693 1267 b 1015 1346 818 1396 949 1421 b 619 939 1093 1253 992 1050 l 590 997 "},"Ữ":{"ha":1229,"x_min":0,"x_max":0,"o":"m -25 -44 b 315 982 -301 124 369 554 b 531 939 376 990 481 994 b 190 144 543 622 15 258 b 688 521 261 101 431 279 b 1051 994 760 674 878 840 b 1183 872 1113 986 1160 922 b 1051 776 1135 843 1092 811 b 1339 1026 1156 782 1285 853 l 1397 996 b 942 661 1289 632 1114 529 b 839 147 765 442 751 197 b 1225 407 935 88 1139 217 l 1310 353 b 661 -7 1158 3 794 -99 b 617 319 600 35 579 158 b -25 -44 372 71 126 -136 m 551 1110 b 836 1111 828 1357 794 1094 b 900 1186 875 1126 894 1158 b 1056 1113 969 1218 1075 1210 b 781 974 956 997 822 964 b 725 1094 731 982 736 1096 b 668 975 703 1092 668 1021 b 551 1110 586 944 538 1054 "},"Ű":{"ha":1229,"x_min":0,"x_max":0,"o":"m -25 -44 b 315 982 -301 124 369 554 b 531 939 376 990 481 994 b 190 144 543 622 15 258 b 688 521 261 101 431 279 b 1051 994 760 674 878 840 b 1183 872 1113 986 1160 922 b 839 147 788 633 721 214 b 1225 407 935 88 1139 217 l 1310 353 b 661 -7 1158 3 794 -99 b 617 319 600 35 579 158 b -25 -44 372 71 126 -136 m 561 1050 b 826 1289 653 1106 761 1190 b 924 1185 886 1300 921 1249 b 1013 1289 957 1217 985 1251 b 1103 1124 1092 1304 1129 1213 b 756 960 1018 1038 868 983 b 736 1011 740 964 733 985 b 569 960 674 985 611 967 b 561 1050 542 967 544 1019 "},"Ū":{"ha":1229,"x_min":0,"x_max":0,"o":"m -25 -44 b 315 982 -301 124 369 554 b 531 939 376 990 481 994 b 190 144 543 622 15 258 b 688 521 261 101 431 279 b 1051 994 760 674 878 840 b 1183 872 1113 986 1160 922 b 839 147 788 633 721 214 b 1225 407 935 88 1139 217 l 1310 353 b 661 -7 1158 3 794 -99 b 617 319 600 35 579 158 b -25 -44 372 71 126 -136 m 533 1014 b 579 1119 528 1042 556 1089 b 944 1119 713 1107 856 1101 b 933 964 990 1088 956 996 b 533 1014 749 925 540 1006 "},"Ų":{"ha":1229,"x_min":0,"x_max":0,"o":"m -25 -44 b 315 982 -301 124 369 554 b 531 939 376 990 481 994 b 190 144 543 622 15 258 b 688 521 261 101 431 279 b 1051 994 760 674 878 840 b 1183 872 1113 986 1160 922 b 839 147 788 633 721 214 b 1225 407 935 88 1139 217 l 1310 353 b 842 -35 1206 113 1001 -11 b 660 -244 674 -107 632 -210 b 764 -251 690 -279 736 -265 b 789 -308 785 -257 799 -281 b 476 -360 675 -410 543 -435 b 692 -24 413 -283 468 -136 b 661 -7 681 -18 671 -14 b 617 319 600 35 579 158 b -25 -44 372 71 126 -136 "},"Ů":{"ha":1229,"x_min":0,"x_max":0,"o":"m -25 -44 b 315 982 -301 124 369 554 b 531 939 376 990 481 994 b 190 144 543 622 15 258 b 688 521 261 101 431 279 b 1051 994 760 674 878 840 b 1183 872 1113 986 1160 922 b 839 147 788 633 721 214 b 1225 407 935 88 1139 217 l 1310 353 b 661 -7 1158 3 794 -99 b 617 319 600 35 579 158 b -25 -44 372 71 126 -136 m 782 965 b 888 1261 453 900 583 1192 b 782 965 1206 1331 1100 1028 m 786 1050 b 853 1167 849 1057 963 1176 b 786 1050 743 1156 711 1042 "},"Ũ":{"ha":1229,"x_min":0,"x_max":0,"o":"m -25 -44 b 315 982 -301 124 369 554 b 531 939 376 990 481 994 b 190 144 543 622 15 258 b 688 521 261 101 431 279 b 1051 994 760 674 878 840 b 1183 872 1113 986 1160 922 b 839 147 788 633 721 214 b 1225 407 935 88 1139 217 l 1310 353 b 661 -7 1158 3 794 -99 b 617 319 600 35 579 158 b -25 -44 372 71 126 -136 m 551 1110 b 836 1111 828 1357 794 1094 b 900 1186 875 1126 894 1158 b 1056 1113 969 1218 1075 1210 b 781 974 956 997 822 964 b 725 1094 731 982 736 1096 b 668 975 703 1092 668 1021 b 551 1110 586 944 538 1054 "},"V":{"ha":1136,"x_min":0,"x_max":0,"o":"m 22 -86 b 22 -85 22 -86 22 -85 l 24 -83 b 200 908 224 250 313 900 b 449 1063 239 963 340 1053 b 208 33 593 1007 421 450 b 1121 1097 611 322 1036 813 b 1381 963 1232 1125 1365 1049 b 78 -181 1186 661 513 31 b 24 -101 43 -162 28 -129 l 14 -100 "},"W":{"ha":1553,"x_min":0,"x_max":0,"o":"m 21 -86 b 21 -85 21 -86 21 -85 l 22 -83 b 201 910 221 250 311 899 b 444 1063 238 963 339 1053 b 210 40 592 1007 421 456 b 835 958 546 299 749 676 b 1010 906 917 979 978 950 b 740 39 1156 782 946 407 b 1647 1097 1143 326 1564 813 b 1907 963 1758 1125 1893 1049 b 606 -181 1713 661 1039 31 b 549 -101 571 -162 554 -129 l 539 -100 b 546 -87 542 -96 543 -92 l 546 -85 b 549 -83 547 -85 549 -83 b 815 524 656 96 760 336 b 78 -181 626 258 379 -33 b 22 -101 42 -162 26 -129 l 13 -100 "},"Ẃ":{"ha":1553,"x_min":0,"x_max":0,"o":"m 21 -86 b 21 -85 21 -86 21 -85 l 22 -83 b 201 910 221 250 311 899 b 444 1063 238 963 339 1053 b 210 40 592 1007 421 456 b 835 958 546 299 749 676 b 1010 906 917 979 978 950 b 740 39 1156 782 946 407 b 1647 1097 1143 326 1564 813 b 1907 963 1758 1125 1893 1049 b 606 -181 1713 661 1039 31 b 549 -101 571 -162 554 -129 l 539 -100 b 546 -87 542 -96 543 -92 l 546 -85 b 549 -83 547 -85 549 -83 b 815 524 656 96 760 336 b 78 -181 626 258 379 -33 b 22 -101 42 -162 26 -129 l 13 -100 m 901 1071 b 1167 1310 993 1126 1101 1211 b 1257 1144 1246 1325 1283 1233 b 910 981 1172 1058 1022 1004 b 901 1071 882 988 885 1040 "},"Ŵ":{"ha":1553,"x_min":0,"x_max":0,"o":"m 21 -86 b 21 -85 21 -86 21 -85 l 22 -83 b 201 910 221 250 311 899 b 444 1063 238 963 339 1053 b 210 40 592 1007 421 456 b 835 958 546 299 749 676 b 871 965 847 961 860 964 b 833 1061 850 989 832 1022 b 1032 1250 915 1115 986 1186 b 1142 1206 1074 1243 1129 1231 b 1263 1043 1143 1161 1160 1135 b 1153 942 1244 1004 1204 951 b 1076 1104 1139 978 1110 1039 b 922 963 1043 1072 989 1021 b 1010 906 961 954 990 932 b 740 39 1156 782 946 407 b 1647 1097 1143 326 1564 813 b 1907 963 1758 1125 1893 1049 b 606 -181 1713 661 1039 31 b 549 -101 571 -162 554 -129 l 539 -100 b 546 -87 542 -96 543 -92 l 546 -85 b 549 -83 547 -85 549 -83 b 815 524 656 96 760 336 b 78 -181 626 258 379 -33 b 22 -101 42 -162 26 -129 l 13 -100 "},"Ẅ":{"ha":1553,"x_min":0,"x_max":0,"o":"m 21 -86 b 21 -85 21 -86 21 -85 l 22 -83 b 201 910 221 250 311 899 b 444 1063 238 963 339 1053 b 210 40 592 1007 421 456 b 835 958 546 299 749 676 b 1010 906 917 979 978 950 b 740 39 1156 782 946 407 b 1647 1097 1143 326 1564 813 b 1907 963 1758 1125 1893 1049 b 606 -181 1713 661 1039 31 b 549 -101 571 -162 554 -129 l 539 -100 b 546 -87 542 -96 543 -92 l 546 -85 b 549 -83 547 -85 549 -83 b 815 524 656 96 760 336 b 78 -181 626 258 379 -33 b 22 -101 42 -162 26 -129 l 13 -100 m 794 1110 b 967 1250 811 1129 888 1169 b 1061 1168 971 1240 1006 1199 b 1183 1269 1094 1192 1138 1224 b 1336 1167 1189 1260 1243 1189 b 1133 983 1290 1108 1210 1024 b 1050 1068 1111 1001 1078 1033 b 917 964 1015 1033 969 992 b 794 1110 875 1000 818 1058 "},"Ẁ":{"ha":1553,"x_min":0,"x_max":0,"o":"m 21 -86 b 21 -85 21 -86 21 -85 l 22 -83 b 201 910 221 250 311 899 b 444 1063 238 963 339 1053 b 210 40 592 1007 421 456 b 835 958 546 299 749 676 b 1010 906 917 979 978 950 b 740 39 1156 782 946 407 b 1647 1097 1143 326 1564 813 b 1907 963 1758 1125 1893 1049 b 606 -181 1713 661 1039 31 b 549 -101 571 -162 554 -129 l 539 -100 b 546 -87 542 -96 543 -92 l 546 -85 b 549 -83 547 -85 549 -83 b 815 524 656 96 760 336 b 78 -181 626 258 379 -33 b 22 -101 42 -162 26 -129 l 13 -100 m 899 1101 b 1056 1243 908 1172 983 1251 b 1225 1068 1081 1168 1157 1107 b 1188 992 1232 1044 1214 999 b 899 1101 1081 1001 950 1035 "},"X":{"ha":1251,"x_min":0,"x_max":0,"o":"m 3 -315 b -190 -174 -96 -317 -197 -226 b 472 400 38 -81 239 163 b 504 901 442 542 443 714 b 707 879 572 932 656 907 b 606 532 636 757 606 638 b 1194 908 776 690 965 833 b 1274 835 1224 899 1265 874 b 629 386 978 713 786 556 b 876 147 669 267 758 181 b 1247 407 986 115 1151 196 l 1332 353 b 701 -8 1183 15 835 -100 b 515 254 643 31 567 124 b 3 -315 353 58 215 -144 "},"Y":{"ha":964,"x_min":0,"x_max":0,"o":"m -24 -44 b 314 982 -301 124 369 557 b 531 939 376 990 481 994 b 190 144 543 622 14 258 b 585 424 250 107 385 233 b 928 901 697 631 814 794 b 1133 782 1017 897 1079 858 b 322 -481 908 621 463 -32 b 244 -362 288 -460 242 -414 b 454 161 310 -176 381 1 b -24 -44 268 -7 93 -115 "},"Ý":{"ha":964,"x_min":0,"x_max":0,"o":"m -24 -44 b 314 982 -301 124 369 557 b 531 939 376 990 481 994 b 190 144 543 622 14 258 b 585 424 250 107 385 233 b 928 901 697 631 814 794 b 1133 782 1017 897 1079 858 b 322 -481 908 621 463 -32 b 244 -362 288 -460 242 -414 b 454 161 310 -176 381 1 b -24 -44 268 -7 93 -115 m 607 1071 b 872 1310 699 1126 807 1211 b 963 1144 951 1325 989 1233 b 615 981 878 1058 728 1004 b 607 1071 588 988 590 1040 "},"Ŷ":{"ha":964,"x_min":0,"x_max":0,"o":"m -24 -44 b 314 982 -301 124 369 557 b 531 939 376 990 481 994 b 190 144 543 622 14 258 b 585 424 250 107 385 233 b 928 901 697 631 814 794 b 1133 782 1017 897 1079 858 b 322 -481 908 621 463 -32 b 244 -362 288 -460 242 -414 b 454 161 310 -176 381 1 b -24 -44 268 -7 93 -115 m 539 1061 b 738 1250 621 1115 692 1186 b 847 1206 779 1243 835 1231 b 968 1043 849 1161 865 1135 b 858 942 950 1004 910 951 b 782 1104 844 978 815 1039 b 603 940 744 1068 681 1008 b 539 1061 574 963 536 1007 "},"Ÿ":{"ha":964,"x_min":0,"x_max":0,"o":"m -24 -44 b 314 982 -301 124 369 557 b 531 939 376 990 481 994 b 190 144 543 622 14 258 b 585 424 250 107 385 233 b 928 901 697 631 814 794 b 1133 782 1017 897 1079 858 b 322 -481 908 621 463 -32 b 244 -362 288 -460 242 -414 b 454 161 310 -176 381 1 b -24 -44 268 -7 93 -115 m 500 1110 b 672 1250 517 1129 593 1169 b 767 1168 676 1240 711 1199 b 889 1269 800 1192 843 1224 b 1042 1167 894 1260 949 1189 b 839 983 996 1108 915 1024 b 756 1068 817 1001 783 1033 b 622 964 721 1033 675 992 b 500 1110 581 1000 524 1058 "},"Ẏ":{"ha":964,"x_min":0,"x_max":0,"o":"m -24 -44 b 314 982 -301 124 369 557 b 531 939 376 990 481 994 b 190 144 543 622 14 258 b 585 424 250 107 385 233 b 928 901 697 631 814 794 b 1133 782 1017 897 1079 858 b 322 -481 908 621 463 -32 b 244 -362 288 -460 242 -414 b 454 161 310 -176 381 1 b -24 -44 268 -7 93 -115 m 619 1138 b 792 1278 636 1157 711 1194 b 944 1175 797 1268 851 1197 b 742 992 900 1117 819 1032 b 619 1138 700 1028 644 1086 "},"Ỵ":{"ha":964,"x_min":0,"x_max":0,"o":"m -24 -44 b 314 982 -301 124 369 557 b 531 939 376 990 481 994 b 190 144 543 622 14 258 b 585 424 250 107 385 233 b 928 901 697 631 814 794 b 1133 782 1017 897 1079 858 b 322 -481 908 621 463 -32 b 244 -362 288 -460 242 -414 b 454 161 310 -176 381 1 b -24 -44 268 -7 93 -115 m -78 -249 b 94 -108 -61 -229 14 -192 b 247 -211 100 -118 154 -189 b 44 -394 203 -269 122 -354 b -78 -249 3 -360 -53 -300 "},"Ỳ":{"ha":964,"x_min":0,"x_max":0,"o":"m -24 -44 b 314 982 -301 124 369 557 b 531 939 376 990 481 994 b 190 144 543 622 14 258 b 585 424 250 107 385 233 b 928 901 697 631 814 794 b 1133 782 1017 897 1079 858 b 322 -481 908 621 463 -32 b 244 -362 288 -460 242 -414 b 454 161 310 -176 381 1 b -24 -44 268 -7 93 -115 m 604 1101 b 761 1243 614 1172 689 1251 b 931 1068 786 1168 863 1107 b 893 992 938 1044 919 999 b 604 1101 786 1001 656 1035 "},"Ỷ":{"ha":964,"x_min":0,"x_max":0,"o":"m -24 -44 b 314 982 -301 124 369 557 b 531 939 376 990 481 994 b 190 144 543 622 14 258 b 585 424 250 107 385 233 b 928 901 697 631 814 794 b 1133 782 1017 897 1079 858 b 322 -481 908 621 463 -32 b 244 -362 288 -460 242 -414 b 454 161 310 -176 381 1 b -24 -44 268 -7 93 -115 m 568 1031 b 810 1264 786 1103 840 1225 b 706 1271 779 1299 733 1285 b 681 1328 685 1276 671 1300 b 993 1379 796 1429 926 1454 b 597 972 1071 1286 969 1083 l 568 1031 "},"Ȳ":{"ha":964,"x_min":0,"x_max":0,"o":"m -24 -44 b 314 982 -301 124 369 557 b 531 939 376 990 481 994 b 190 144 543 622 14 258 b 585 424 250 107 385 233 b 928 901 697 631 814 794 b 1133 782 1017 897 1079 858 b 322 -481 908 621 463 -32 b 244 -362 288 -460 242 -414 b 454 161 310 -176 381 1 b -24 -44 268 -7 93 -115 m 511 1047 b 557 1153 506 1075 533 1122 b 922 1153 690 1140 833 1135 b 911 997 968 1121 933 1029 b 511 1047 726 958 518 1039 "},"Ỹ":{"ha":964,"x_min":0,"x_max":0,"o":"m -24 -44 b 314 982 -301 124 369 557 b 531 939 376 990 481 994 b 190 144 543 622 14 258 b 585 424 250 107 385 233 b 928 901 697 631 814 794 b 1133 782 1017 897 1079 858 b 322 -481 908 621 463 -32 b 244 -362 288 -460 242 -414 b 454 161 310 -176 381 1 b -24 -44 268 -7 93 -115 m 529 1143 b 814 1144 806 1390 772 1128 b 878 1219 853 1160 872 1192 b 1033 1146 947 1251 1053 1243 b 758 1007 933 1031 800 997 b 703 1128 708 1015 714 1129 b 646 1008 681 1125 646 1054 b 529 1143 564 978 515 1088 "},"Z":{"ha":1206,"x_min":0,"x_max":0,"o":"m 663 -8 b 350 160 551 65 504 197 b 90 -68 269 85 185 8 b -101 74 -7 -68 -107 24 b 919 806 258 221 531 593 b 307 714 749 800 553 767 b 415 960 288 764 308 856 b 1114 918 675 969 910 960 b 1322 988 1178 947 1264 974 b 1357 747 1372 918 1383 832 b 1146 797 1289 771 1219 788 b 457 263 872 672 679 478 b 839 147 596 264 686 189 b 1201 407 949 114 1108 204 l 1286 353 b 663 -8 1146 28 796 -100 "},"Ź":{"ha":1206,"x_min":0,"x_max":0,"o":"m 663 -8 b 350 160 551 65 504 197 b 90 -68 269 85 185 8 b -101 74 -7 -68 -107 24 b 919 806 258 221 531 593 b 307 714 749 800 553 767 b 415 960 288 764 308 856 b 1114 918 675 969 910 960 b 1322 988 1178 947 1264 974 b 1357 747 1372 918 1383 832 b 1146 797 1289 771 1219 788 b 457 263 872 672 679 478 b 839 147 596 264 686 189 b 1201 407 949 114 1108 204 l 1286 353 b 663 -8 1146 28 796 -100 m 728 1071 b 993 1310 819 1126 928 1211 b 1083 1144 1072 1325 1110 1233 b 736 981 999 1058 849 1004 b 728 1071 708 988 711 1040 "},"Ž":{"ha":1206,"x_min":0,"x_max":0,"o":"m 663 -8 b 350 160 551 65 504 197 b 90 -68 269 85 185 8 b -101 74 -7 -68 -107 24 b 919 806 258 221 531 593 b 307 714 749 800 553 767 b 415 960 288 764 308 856 b 1114 918 675 969 910 960 b 1322 988 1178 947 1264 974 b 1357 747 1372 918 1383 832 b 1146 797 1289 771 1219 788 b 457 263 872 672 679 478 b 839 147 596 264 686 189 b 1201 407 949 114 1108 204 l 1286 353 b 663 -8 1146 28 796 -100 m 658 1175 b 768 1275 675 1213 714 1265 b 846 1113 782 1239 811 1179 b 1024 1276 883 1149 946 1208 b 1089 1156 1051 1256 1089 1210 b 889 967 1006 1101 935 1031 b 781 1011 847 974 793 986 b 658 1175 776 1056 760 1082 "},"Ż":{"ha":1206,"x_min":0,"x_max":0,"o":"m 663 -8 b 350 160 551 65 504 197 b 90 -68 269 85 185 8 b -101 74 -7 -68 -107 24 b 919 806 258 221 531 593 b 307 714 749 800 553 767 b 415 960 288 764 308 856 b 1114 918 675 969 910 960 b 1322 988 1178 947 1264 974 b 1357 747 1372 918 1383 832 b 1146 797 1289 771 1219 788 b 457 263 872 672 679 478 b 839 147 596 264 686 189 b 1201 407 949 114 1108 204 l 1286 353 b 663 -8 1146 28 796 -100 m 740 1138 b 913 1278 757 1157 832 1194 b 1065 1175 918 1268 972 1197 b 863 992 1021 1117 940 1032 b 740 1138 821 1028 765 1086 "},"Ẓ":{"ha":1206,"x_min":0,"x_max":0,"o":"m 663 -8 b 350 160 551 65 504 197 b 90 -68 269 85 185 8 b -101 74 -7 -68 -107 24 b 919 806 258 221 531 593 b 307 714 749 800 553 767 b 415 960 288 764 308 856 b 1114 918 675 969 910 960 b 1322 988 1178 947 1264 974 b 1357 747 1372 918 1383 832 b 1146 797 1289 771 1219 788 b 457 263 872 672 679 478 b 839 147 596 264 686 189 b 1201 407 949 114 1108 204 l 1286 353 b 663 -8 1146 28 796 -100 m 182 -228 b 354 -87 199 -208 274 -171 b 507 -190 360 -97 414 -168 b 304 -374 463 -249 382 -333 b 182 -228 263 -339 207 -279 "},"Ẕ":{"ha":1206,"x_min":0,"x_max":0,"o":"m 663 -8 b 350 160 551 65 504 197 b 90 -68 269 85 185 8 b -101 74 -7 -68 -107 24 b 919 806 258 221 531 593 b 307 714 749 800 553 767 b 415 960 288 764 308 856 b 1114 918 675 969 910 960 b 1322 988 1178 947 1264 974 b 1357 747 1372 918 1383 832 b 1146 797 1289 771 1219 788 b 457 263 872 672 679 478 b 839 147 596 264 686 189 b 1201 407 949 114 1108 204 l 1286 353 b 663 -8 1146 28 796 -100 m 135 -214 b 181 -108 129 -186 157 -137 b 546 -107 314 -121 457 -126 b 535 -262 592 -139 557 -231 b 135 -214 350 -301 142 -221 "},"a":{"ha":863,"x_min":0,"x_max":0,"o":"m 140 3 b 10 422 -108 -71 -187 182 b 431 465 158 604 364 596 b 468 517 442 483 454 500 b 632 410 499 514 622 458 b 568 156 560 247 526 197 b 860 407 613 115 756 190 l 943 353 b 542 3 892 226 746 -3 b 369 157 449 6 389 69 b 140 3 296 81 217 24 m 168 140 b 374 329 228 156 307 240 l 382 358 b 193 367 367 444 307 490 b 168 140 53 214 61 110 "},"á":{"ha":863,"x_min":0,"x_max":0,"o":"m 140 3 b 10 422 -108 -71 -187 182 b 431 465 158 604 364 596 b 468 517 442 483 454 500 b 632 410 499 514 622 458 b 568 156 560 247 526 197 b 860 407 613 115 756 190 l 943 353 b 542 3 892 226 746 -3 b 369 157 449 6 389 69 b 140 3 296 81 217 24 m 168 140 b 374 329 228 156 307 240 l 382 358 b 193 367 367 444 307 490 b 168 140 53 214 61 110 m 274 721 b 539 960 365 776 474 861 b 629 794 618 975 656 883 b 282 631 544 708 394 654 b 274 721 254 638 257 690 "},"ă":{"ha":863,"x_min":0,"x_max":0,"o":"m 140 3 b 10 422 -108 -71 -187 182 b 431 465 158 604 364 596 b 468 517 442 483 454 500 b 632 410 499 514 622 458 b 568 156 560 247 526 197 b 860 407 613 115 756 190 l 943 353 b 542 3 892 226 746 -3 b 369 157 449 6 389 69 b 140 3 296 81 217 24 m 168 140 b 374 329 228 156 307 240 l 382 358 b 193 367 367 444 307 490 b 168 140 53 214 61 110 m 181 811 b 393 836 264 900 388 886 b 553 843 385 707 474 690 b 679 808 621 883 694 854 b 181 811 563 588 222 558 "},"ắ":{"ha":863,"x_min":0,"x_max":0,"o":"m 140 3 b 10 422 -108 -71 -187 182 b 431 465 158 604 364 596 b 468 517 442 483 454 500 b 632 410 499 514 622 458 b 568 156 560 247 526 197 b 860 407 613 115 756 190 l 943 353 b 542 3 892 226 746 -3 b 369 157 449 6 389 69 b 140 3 296 81 217 24 m 168 140 b 374 329 228 156 307 240 l 382 358 b 193 367 367 444 307 490 b 168 140 53 214 61 110 m 183 810 b 396 835 267 899 390 885 b 556 842 388 706 476 689 b 682 807 624 882 697 853 b 183 810 565 586 225 557 m 350 963 b 615 1201 442 1018 550 1103 b 706 1036 694 1217 732 1125 b 358 872 621 950 471 896 b 350 963 331 879 333 932 "},"ặ":{"ha":863,"x_min":0,"x_max":0,"o":"m 140 3 b 10 422 -108 -71 -187 182 b 431 465 158 604 364 596 b 468 517 442 483 454 500 b 632 410 499 514 622 458 b 568 156 560 247 526 197 b 860 407 613 115 756 190 l 943 353 b 542 3 892 226 746 -3 b 369 157 449 6 389 69 b 140 3 296 81 217 24 m 36 -164 b 208 -24 53 -144 128 -107 b 361 -126 214 -33 268 -104 b 158 -310 317 -185 236 -269 b 36 -164 117 -275 61 -215 m 168 140 b 374 329 228 156 307 240 l 382 358 b 193 367 367 444 307 490 b 168 140 53 214 61 110 m 181 811 b 393 836 264 900 388 886 b 553 843 385 707 474 690 b 679 808 621 883 694 854 b 181 811 563 588 222 558 "},"ằ":{"ha":863,"x_min":0,"x_max":0,"o":"m 140 3 b 10 422 -108 -71 -187 182 b 431 465 158 604 364 596 b 468 517 442 483 454 500 b 632 410 499 514 622 458 b 568 156 560 247 526 197 b 860 407 613 115 756 190 l 943 353 b 542 3 892 226 746 -3 b 369 157 449 6 389 69 b 140 3 296 81 217 24 m 168 140 b 374 329 228 156 307 240 l 382 358 b 193 367 367 444 307 490 b 168 140 53 214 61 110 m 188 810 b 400 835 271 899 394 885 b 560 842 392 706 481 689 b 686 807 628 882 701 853 b 188 810 569 586 229 557 m 351 993 b 508 1135 361 1064 436 1143 b 678 960 533 1060 610 999 b 640 883 685 936 667 890 b 351 993 533 893 403 926 "},"ẳ":{"ha":863,"x_min":0,"x_max":0,"o":"m 140 3 b 10 422 -108 -71 -187 182 b 431 465 158 604 364 596 b 468 517 442 483 454 500 b 632 410 499 514 622 458 b 568 156 560 247 526 197 b 860 407 613 115 756 190 l 943 353 b 542 3 892 226 746 -3 b 369 157 449 6 389 69 b 140 3 296 81 217 24 m 168 140 b 374 329 228 156 307 240 l 382 358 b 193 367 367 444 307 490 b 168 140 53 214 61 110 m 203 808 b 415 833 286 897 410 883 b 575 840 407 704 496 688 b 701 806 643 881 717 851 b 203 808 585 585 244 556 m 400 876 b 642 1110 618 949 672 1071 b 538 1117 611 1144 565 1131 b 513 1174 517 1122 503 1146 b 825 1225 628 1275 758 1300 b 429 818 903 1132 801 929 l 400 876 "},"ẵ":{"ha":863,"x_min":0,"x_max":0,"o":"m 140 3 b 10 422 -108 -71 -187 182 b 431 465 158 604 364 596 b 468 517 442 483 454 500 b 632 410 499 514 622 458 b 568 156 560 247 526 197 b 860 407 613 115 756 190 l 943 353 b 542 3 892 226 746 -3 b 369 157 449 6 389 69 b 140 3 296 81 217 24 m 168 140 b 374 329 228 156 307 240 l 382 358 b 193 367 367 444 307 490 b 168 140 53 214 61 110 m 183 821 b 396 846 267 910 390 896 b 556 853 388 717 476 700 b 682 818 624 893 697 864 b 183 821 565 597 225 568 m 272 1046 b 557 1047 549 1293 515 1031 b 621 1122 596 1063 615 1094 b 776 1049 690 1154 796 1146 b 501 910 676 933 543 900 b 446 1031 451 918 457 1032 b 389 911 424 1028 389 957 b 272 1046 307 881 258 990 "},"ǎ":{"ha":863,"x_min":0,"x_max":0,"o":"m 140 3 b 10 422 -108 -71 -187 182 b 431 465 158 604 364 596 b 468 517 442 483 454 500 b 632 410 499 514 622 458 b 568 156 560 247 526 197 b 860 407 613 115 756 190 l 943 353 b 542 3 892 226 746 -3 b 369 157 449 6 389 69 b 140 3 296 81 217 24 m 168 140 b 374 329 228 156 307 240 l 382 358 b 193 367 367 444 307 490 b 168 140 53 214 61 110 m 204 825 b 314 925 221 863 260 915 b 392 763 328 889 357 829 b 569 926 429 799 492 858 b 635 806 597 906 635 860 b 435 617 551 751 481 681 b 326 661 393 624 339 636 b 204 825 322 706 306 732 "},"â":{"ha":863,"x_min":0,"x_max":0,"o":"m 140 3 b 10 422 -108 -71 -187 182 b 431 465 158 604 364 596 b 468 517 442 483 454 500 b 632 410 499 514 622 458 b 568 156 560 247 526 197 b 860 407 613 115 756 190 l 943 353 b 542 3 892 226 746 -3 b 369 157 449 6 389 69 b 140 3 296 81 217 24 m 168 140 b 374 329 228 156 307 240 l 382 358 b 193 367 367 444 307 490 b 168 140 53 214 61 110 m 206 711 b 404 900 288 765 358 836 b 514 856 446 893 501 881 b 635 693 515 811 532 785 b 525 592 617 654 576 601 b 449 754 511 628 482 689 b 269 590 411 718 347 658 b 206 711 240 613 203 657 "},"ấ":{"ha":863,"x_min":0,"x_max":0,"o":"m 140 3 b 10 422 -108 -71 -187 182 b 431 465 158 604 364 596 b 468 517 442 483 454 500 b 632 410 499 514 622 458 b 568 156 560 247 526 197 b 860 407 613 115 756 190 l 943 353 b 542 3 892 226 746 -3 b 369 157 449 6 389 69 b 140 3 296 81 217 24 m 168 140 b 374 329 228 156 307 240 l 382 358 b 193 367 367 444 307 490 b 168 140 53 214 61 110 m 178 697 b 376 885 260 751 331 822 l 367 883 b 358 974 339 890 342 943 b 624 1213 450 1029 558 1114 b 714 1047 703 1228 740 1136 b 378 886 632 964 489 911 b 486 842 419 879 474 867 b 607 679 488 797 504 771 b 497 578 589 640 549 588 b 421 740 483 614 454 675 b 242 576 383 704 319 644 b 178 697 213 599 175 643 "},"ậ":{"ha":863,"x_min":0,"x_max":0,"o":"m 140 3 b 10 422 -108 -71 -187 182 b 431 465 158 604 364 596 b 468 517 442 483 454 500 b 632 410 499 514 622 458 b 568 156 560 247 526 197 b 860 407 613 115 756 190 l 943 353 b 542 3 892 226 746 -3 b 369 157 449 6 389 69 b 140 3 296 81 217 24 m 36 -164 b 208 -24 53 -144 128 -107 b 361 -126 214 -33 268 -104 b 158 -310 317 -185 236 -269 b 36 -164 117 -275 61 -215 m 168 140 b 374 329 228 156 307 240 l 382 358 b 193 367 367 444 307 490 b 168 140 53 214 61 110 m 206 711 b 404 900 288 765 358 836 b 514 856 446 893 501 881 b 635 693 515 811 532 785 b 525 592 617 654 576 601 b 449 754 511 628 482 689 b 269 590 411 718 347 658 b 206 711 240 613 203 657 "},"ầ":{"ha":863,"x_min":0,"x_max":0,"o":"m 140 3 b 10 422 -108 -71 -187 182 b 431 465 158 604 364 596 b 468 517 442 483 454 500 b 632 410 499 514 622 458 b 568 156 560 247 526 197 b 860 407 613 115 756 190 l 943 353 b 542 3 892 226 746 -3 b 369 157 449 6 389 69 b 140 3 296 81 217 24 m 168 140 b 374 329 228 156 307 240 l 382 358 b 193 367 367 444 307 490 b 168 140 53 214 61 110 m 188 717 b 386 906 269 771 340 842 b 496 861 428 899 483 886 b 617 699 497 817 514 790 b 507 597 599 660 558 607 b 431 760 493 633 464 694 b 251 596 393 724 329 664 b 188 717 222 618 185 663 m 365 1024 b 522 1165 375 1094 450 1174 b 692 990 547 1090 624 1029 b 654 914 699 967 681 921 b 365 1024 547 924 417 957 "},"ẩ":{"ha":863,"x_min":0,"x_max":0,"o":"m 140 3 b 10 422 -108 -71 -187 182 b 431 465 158 604 364 596 b 468 517 442 483 454 500 b 632 410 499 514 622 458 b 568 156 560 247 526 197 b 860 407 613 115 756 190 l 943 353 b 542 3 892 226 746 -3 b 369 157 449 6 389 69 b 140 3 296 81 217 24 m 168 140 b 374 329 228 156 307 240 l 382 358 b 193 367 367 444 307 490 b 168 140 53 214 61 110 m 211 731 b 407 917 292 783 361 853 l 382 908 l 353 967 b 594 1200 571 1039 625 1161 b 490 1207 564 1235 518 1221 b 465 1264 469 1213 456 1236 b 778 1315 581 1365 711 1390 b 415 918 853 1225 760 1032 b 519 875 456 911 507 899 b 640 713 521 831 538 804 b 531 611 622 674 582 621 b 454 774 517 647 488 708 b 275 610 417 738 353 678 b 211 731 246 632 208 676 "},"ẫ":{"ha":863,"x_min":0,"x_max":0,"o":"m 140 3 b 10 422 -108 -71 -187 182 b 431 465 158 604 364 596 b 468 517 442 483 454 500 b 632 410 499 514 622 458 b 568 156 560 247 526 197 b 860 407 613 115 756 190 l 943 353 b 542 3 892 226 746 -3 b 369 157 449 6 389 69 b 140 3 296 81 217 24 m 168 140 b 374 329 228 156 307 240 l 382 358 b 193 367 367 444 307 490 b 168 140 53 214 61 110 m 206 742 b 404 931 288 796 358 867 b 514 886 446 924 501 911 b 635 724 515 842 532 815 b 525 622 617 685 576 632 b 449 785 511 658 482 719 b 269 621 411 749 347 689 b 206 742 240 643 203 688 m 308 1090 b 593 1092 585 1338 551 1075 b 657 1167 632 1107 651 1139 b 813 1093 726 1199 832 1190 b 538 954 713 978 579 944 b 482 1075 488 963 493 1076 b 425 956 460 1072 425 1001 b 308 1090 343 925 294 1035 "},"ä":{"ha":863,"x_min":0,"x_max":0,"o":"m 140 3 b 10 422 -108 -71 -187 182 b 431 465 158 604 364 596 b 468 517 442 483 454 500 b 632 410 499 514 622 458 b 568 156 560 247 526 197 b 860 407 613 115 756 190 l 943 353 b 542 3 892 226 746 -3 b 369 157 449 6 389 69 b 140 3 296 81 217 24 m 167 760 b 339 900 183 779 260 819 b 433 818 343 890 378 849 b 556 919 467 842 510 874 b 708 817 561 910 615 839 b 506 633 663 758 582 674 b 422 718 483 651 450 683 b 289 614 388 683 342 642 b 167 760 247 650 190 708 m 168 140 b 374 329 228 156 307 240 l 382 358 b 193 367 367 444 307 490 b 168 140 53 214 61 110 "},"ǟ":{"ha":863,"x_min":0,"x_max":0,"o":"m 140 3 b 10 422 -108 -71 -187 182 b 431 465 158 604 364 596 b 468 517 442 483 454 500 b 632 410 499 514 622 458 b 568 156 560 247 526 197 b 860 407 613 115 756 190 l 943 353 b 542 3 892 226 746 -3 b 369 157 449 6 389 69 b 140 3 296 81 217 24 m 167 760 b 339 900 183 779 260 819 b 433 818 343 890 378 849 b 556 919 467 842 510 874 b 279 979 411 922 285 972 b 325 1085 274 1007 301 1054 b 690 1085 458 1072 601 1067 b 679 929 736 1053 701 961 b 556 919 639 921 597 918 b 708 817 564 907 617 839 b 506 633 663 758 582 674 b 422 718 483 651 450 683 b 289 614 388 683 342 642 b 167 760 247 650 190 708 m 168 140 b 374 329 228 156 307 240 l 382 358 b 193 367 367 444 307 490 b 168 140 53 214 61 110 "},"ạ":{"ha":863,"x_min":0,"x_max":0,"o":"m 140 3 b 10 422 -108 -71 -187 182 b 431 465 158 604 364 596 b 468 517 442 483 454 500 b 632 410 499 514 622 458 b 568 156 560 247 526 197 b 860 407 613 115 756 190 l 943 353 b 542 3 892 226 746 -3 b 369 157 449 6 389 69 b 140 3 296 81 217 24 m 36 -164 b 208 -24 53 -144 128 -107 b 361 -126 214 -33 268 -104 b 158 -310 317 -185 236 -269 b 36 -164 117 -275 61 -215 m 168 140 b 374 329 228 156 307 240 l 382 358 b 193 367 367 444 307 490 b 168 140 53 214 61 110 "},"à":{"ha":863,"x_min":0,"x_max":0,"o":"m 140 3 b 10 422 -108 -71 -187 182 b 431 465 158 604 364 596 b 468 517 442 483 454 500 b 632 410 499 514 622 458 b 568 156 560 247 526 197 b 860 407 613 115 756 190 l 943 353 b 542 3 892 226 746 -3 b 369 157 449 6 389 69 b 140 3 296 81 217 24 m 168 140 b 374 329 228 156 307 240 l 382 358 b 193 367 367 444 307 490 b 168 140 53 214 61 110 m 271 751 b 428 893 281 822 356 901 b 597 718 453 818 529 757 b 560 642 604 694 586 649 b 271 751 453 651 322 685 "},"ả":{"ha":863,"x_min":0,"x_max":0,"o":"m 140 3 b 10 422 -108 -71 -187 182 b 431 465 158 604 364 596 b 468 517 442 483 454 500 b 632 410 499 514 622 458 b 568 156 560 247 526 197 b 860 407 613 115 756 190 l 943 353 b 542 3 892 226 746 -3 b 369 157 449 6 389 69 b 140 3 296 81 217 24 m 168 140 b 374 329 228 156 307 240 l 382 358 b 193 367 367 444 307 490 b 168 140 53 214 61 110 m 235 681 b 476 914 453 753 507 875 b 372 921 446 949 400 935 b 347 978 351 926 338 950 b 660 1029 463 1079 593 1104 b 264 622 738 936 636 733 l 235 681 "},"ā":{"ha":863,"x_min":0,"x_max":0,"o":"m 140 3 b 10 422 -108 -71 -187 182 b 431 465 158 604 364 596 b 468 517 442 483 454 500 b 632 410 499 514 622 458 b 568 156 560 247 526 197 b 860 407 613 115 756 190 l 943 353 b 542 3 892 226 746 -3 b 369 157 449 6 389 69 b 140 3 296 81 217 24 m 168 140 b 374 329 228 156 307 240 l 382 358 b 193 367 367 444 307 490 b 168 140 53 214 61 110 m 178 697 b 224 803 172 725 200 772 b 589 803 357 790 500 785 b 578 647 635 771 600 679 b 178 697 393 608 185 689 "},"ą":{"ha":863,"x_min":0,"x_max":0,"o":"m 140 3 b 10 422 -108 -71 -187 182 b 431 465 158 604 364 596 b 468 517 442 483 454 500 b 632 410 499 514 622 458 b 568 156 560 247 526 197 b 860 407 613 115 756 190 l 943 353 b 563 3 893 231 756 14 b 400 -199 411 -69 374 -165 b 504 -206 431 -233 476 -219 b 529 -262 525 -211 539 -235 b 217 -314 415 -364 283 -389 b 450 31 151 -236 211 -82 b 369 157 408 58 382 103 b 140 3 296 81 217 24 m 168 140 b 374 329 228 156 307 240 l 382 358 b 193 367 367 444 307 490 b 168 140 53 214 61 110 "},"å":{"ha":863,"x_min":0,"x_max":0,"o":"m 140 3 b 10 422 -108 -71 -187 182 b 431 465 158 604 364 596 b 468 517 442 483 454 500 b 632 410 499 514 622 458 b 568 156 560 247 526 197 b 860 407 613 115 756 190 l 943 353 b 542 3 892 226 746 -3 b 369 157 449 6 389 69 b 140 3 296 81 217 24 m 168 140 b 374 329 228 156 307 240 l 382 358 b 193 367 367 444 307 490 b 168 140 53 214 61 110 m 426 649 b 532 944 97 583 228 875 b 426 649 850 1014 744 711 m 431 733 b 497 850 493 740 607 860 b 431 733 388 839 356 725 "},"ã":{"ha":863,"x_min":0,"x_max":0,"o":"m 140 3 b 10 422 -108 -71 -187 182 b 431 465 158 604 364 596 b 468 517 442 483 454 500 b 632 410 499 514 622 458 b 568 156 560 247 526 197 b 860 407 613 115 756 190 l 943 353 b 542 3 892 226 746 -3 b 369 157 449 6 389 69 b 140 3 296 81 217 24 m 168 140 b 374 329 228 156 307 240 l 382 358 b 193 367 367 444 307 490 b 168 140 53 214 61 110 m 196 793 b 481 794 472 1040 439 778 b 544 869 519 810 539 842 b 700 796 614 901 719 893 b 425 657 600 681 467 647 b 369 778 375 665 381 779 b 313 658 347 775 313 704 b 196 793 231 628 182 738 "},"æ":{"ha":1135,"x_min":0,"x_max":0,"o":"m 140 3 b 10 422 -108 -71 -187 182 b 444 432 171 619 396 594 l 447 435 b 803 558 556 569 701 589 b 722 225 967 506 1006 314 b 547 178 678 213 614 194 b 785 124 565 111 650 81 b 1138 418 907 163 1081 292 l 1222 365 b 839 31 1196 289 1018 108 b 364 151 633 -60 414 4 b 140 3 292 78 215 24 m 168 140 b 385 343 231 157 315 249 b 193 367 374 439 314 499 b 168 140 53 214 61 110 m 558 271 b 669 313 600 285 638 300 b 761 456 808 372 825 444 b 631 379 729 460 690 443 b 558 271 596 342 572 304 "},"ǣ":{"ha":1135,"x_min":0,"x_max":0,"o":"m 140 3 b 10 422 -108 -71 -187 182 b 444 432 171 619 396 594 l 447 435 b 803 558 556 569 701 589 b 722 225 967 506 1006 314 b 547 178 678 213 614 194 b 785 124 565 111 650 81 b 1138 418 907 163 1081 292 l 1222 365 b 839 31 1196 289 1018 108 b 364 151 633 -60 414 4 b 140 3 292 78 215 24 m 168 140 b 385 343 231 157 315 249 b 193 367 374 439 314 499 b 168 140 53 214 61 110 m 178 697 b 224 803 172 725 200 772 b 589 803 357 790 500 785 b 578 647 635 771 600 679 b 178 697 393 608 185 689 m 558 271 b 669 313 600 285 638 300 b 761 456 808 372 825 444 b 631 379 729 460 690 443 b 558 271 596 342 572 304 "},"b":{"ha":693,"x_min":0,"x_max":0,"o":"m 158 3 b 324 1018 -222 49 31 683 b 511 888 390 1022 506 931 b 150 143 135 458 46 194 b 358 283 213 113 311 179 b 281 342 333 290 300 318 b 496 499 221 519 399 681 b 515 351 513 465 517 407 b 689 407 583 338 660 344 l 772 353 b 490 250 740 257 608 232 b 158 3 433 129 335 -19 "},"ḅ":{"ha":693,"x_min":0,"x_max":0,"o":"m 158 3 b 324 1018 -222 49 31 683 b 511 888 390 1022 506 931 b 150 143 135 458 46 194 b 358 283 213 113 311 179 b 281 342 333 290 300 318 b 496 499 221 519 399 681 b 515 351 513 465 517 407 b 689 407 583 338 660 344 l 772 353 b 490 250 740 257 608 232 b 158 3 433 129 335 -19 m -17 -228 b 156 -87 0 -208 75 -171 b 308 -190 161 -97 215 -168 b 106 -374 264 -249 183 -333 b -17 -228 64 -339 8 -279 "},"c":{"ha":711,"x_min":0,"x_max":0,"o":"m 408 31 b 15 435 96 -106 -249 111 b 372 557 125 569 271 592 b 415 289 494 517 528 369 b 279 374 339 279 282 301 b 344 463 363 392 389 453 b 200 379 313 468 258 443 b 353 124 36 199 118 49 b 707 407 478 163 650 281 l 792 354 b 408 31 764 276 586 108 "},"ć":{"ha":711,"x_min":0,"x_max":0,"o":"m 408 31 b 15 435 96 -106 -249 111 b 372 557 125 569 271 592 b 415 289 494 517 528 369 b 279 374 339 279 282 301 b 344 463 363 392 389 453 b 200 379 313 468 258 443 b 353 124 36 199 118 49 b 707 407 478 163 650 281 l 792 354 b 408 31 764 276 586 108 m 204 688 b 469 926 296 743 404 828 b 560 761 549 942 586 850 b 213 597 475 675 325 621 b 204 688 185 604 188 657 "},"č":{"ha":711,"x_min":0,"x_max":0,"o":"m 408 31 b 15 435 96 -106 -249 111 b 372 557 125 569 271 592 b 415 289 494 517 528 369 b 279 374 339 279 282 301 b 344 463 363 392 389 453 b 200 379 313 468 258 443 b 353 124 36 199 118 49 b 707 407 478 163 650 281 l 792 354 b 408 31 764 276 586 108 m 135 792 b 244 892 151 829 190 882 b 322 729 258 856 288 796 b 500 893 360 765 422 825 b 565 772 528 872 565 826 b 365 583 482 718 411 647 b 257 628 324 590 269 603 b 135 792 253 672 236 699 "},"ç":{"ha":711,"x_min":0,"x_max":0,"o":"m 408 31 b 196 -10 336 -1 263 -14 l 156 -43 b 285 -299 314 -65 371 -194 b -139 -331 194 -406 -28 -425 b -100 -264 -140 -310 -128 -276 b 101 -225 -22 -297 56 -282 b -36 -124 146 -167 110 -107 l 7 -51 l 96 7 b 15 435 -71 60 -157 225 b 372 557 125 569 271 592 b 415 289 494 517 528 369 b 279 374 339 279 282 301 b 344 463 363 392 389 453 b 200 379 313 468 258 443 b 353 124 36 199 118 49 b 707 407 478 163 650 281 l 792 354 b 408 31 764 276 586 108 "},"ĉ":{"ha":711,"x_min":0,"x_max":0,"o":"m 408 31 b 15 435 96 -106 -249 111 b 197 560 71 503 135 542 b 136 678 168 582 133 625 b 335 867 218 732 289 803 b 444 822 376 860 432 847 b 565 660 446 778 463 751 b 456 558 547 621 507 568 b 379 721 442 594 413 656 b 206 561 343 686 281 628 b 372 557 265 578 324 574 b 415 289 494 517 528 369 b 279 374 339 279 282 301 b 344 463 363 392 389 453 b 200 379 313 468 258 443 b 353 124 36 199 118 49 b 707 407 478 163 650 281 l 792 354 b 408 31 764 276 586 108 "},"ċ":{"ha":711,"x_min":0,"x_max":0,"o":"m 408 31 b 15 435 96 -106 -249 111 b 372 557 125 569 271 592 b 415 289 494 517 528 369 b 279 374 339 279 282 301 b 344 463 363 392 389 453 b 200 379 313 468 258 443 b 353 124 36 199 118 49 b 707 407 478 163 650 281 l 792 354 b 408 31 764 276 586 108 m 217 754 b 389 894 233 774 308 811 b 542 792 394 885 449 814 b 339 608 497 733 417 649 b 217 754 297 644 242 703 "},"d":{"ha":865,"x_min":0,"x_max":0,"o":"m 143 3 b 11 422 -104 -69 -187 178 b 433 465 160 604 365 596 b 781 1050 501 663 631 886 b 944 942 813 1049 935 990 b 544 143 550 404 472 185 b 863 407 599 111 758 190 l 946 353 b 543 3 894 226 749 3 b 382 168 440 3 392 68 b 143 3 306 86 222 25 m 172 140 b 386 342 233 157 318 249 b 196 367 376 438 317 499 b 172 140 58 214 64 110 "},"ð":{"ha":654,"x_min":0,"x_max":0,"o":"m 261 54 b 89 -56 200 -8 136 -49 b -49 319 -14 -69 -162 108 b 258 596 40 479 172 558 b 290 586 268 594 279 592 b 278 651 288 608 285 631 b 136 603 201 621 142 603 b 117 701 113 618 113 668 b 228 760 154 721 190 739 b 164 832 210 785 189 811 b 250 922 143 876 246 935 b 336 822 283 890 311 857 b 486 925 397 860 449 894 b 564 814 549 907 567 851 b 403 710 515 775 457 739 b 365 218 475 546 454 385 b 650 407 449 211 578 250 l 733 353 b 275 74 656 160 426 75 l 261 54 m 136 165 b 294 497 194 168 285 322 b 136 165 39 364 42 160 "},"ď":{"ha":865,"x_min":0,"x_max":0,"o":"m 143 3 b 11 422 -104 -69 -187 178 b 433 465 160 604 365 596 b 781 1050 501 663 631 886 b 944 942 813 1049 935 990 b 544 143 550 404 472 185 b 863 407 599 111 758 190 l 946 353 b 543 3 894 226 749 3 b 382 168 440 3 392 68 b 143 3 306 86 222 25 m 172 140 b 386 342 233 157 318 249 b 196 367 376 438 317 499 b 172 140 58 214 64 110 m 971 996 b 1238 990 1026 1036 1136 1090 b 1100 665 1183 960 1088 771 b 985 642 1079 638 1015 633 b 971 996 975 649 928 811 "},"đ":{"ha":865,"x_min":0,"x_max":0,"o":"m 143 3 b 11 422 -104 -69 -187 178 b 433 465 160 604 365 596 b 525 678 457 533 488 606 b 326 614 457 667 389 647 b 431 851 310 707 375 803 b 642 875 503 867 575 874 b 781 1050 685 938 732 997 b 944 942 813 1049 935 990 l 872 842 b 897 831 882 839 890 835 b 849 657 897 750 883 713 b 760 678 825 665 794 674 b 544 143 526 331 485 178 b 863 407 599 111 758 190 l 946 353 b 543 3 894 226 749 3 b 382 168 440 3 392 68 b 143 3 306 86 222 25 m 172 140 b 386 342 233 157 318 249 b 196 367 376 438 317 499 b 172 140 58 214 64 110 "},"ḍ":{"ha":865,"x_min":0,"x_max":0,"o":"m 143 3 b 11 422 -104 -69 -187 178 b 433 465 160 604 365 596 b 781 1050 501 663 631 886 b 944 942 813 1049 935 990 b 544 143 550 404 472 185 b 863 407 599 111 758 190 l 946 353 b 543 3 894 226 749 3 b 382 168 440 3 392 68 b 143 3 306 86 222 25 m 69 -150 b 242 -10 86 -131 161 -93 b 394 -112 247 -19 301 -90 b 192 -296 350 -171 269 -256 b 69 -150 150 -261 94 -201 m 172 140 b 386 342 233 157 318 249 b 196 367 376 438 317 499 b 172 140 58 214 64 110 "},"ḏ":{"ha":865,"x_min":0,"x_max":0,"o":"m 143 3 b 11 422 -104 -69 -187 178 b 433 465 160 604 365 596 b 781 1050 501 663 631 886 b 944 942 813 1049 935 990 b 544 143 550 404 472 185 b 863 407 599 111 758 190 l 946 353 b 543 3 894 226 749 3 b 382 168 440 3 392 68 b 143 3 306 86 222 25 m 22 -136 b 68 -31 17 -108 44 -60 b 433 -29 201 -43 344 -49 b 422 -185 479 -61 444 -153 b 22 -136 238 -224 29 -143 m 172 140 b 386 342 233 157 318 249 b 196 367 376 438 317 499 b 172 140 58 214 64 110 "},"e":{"ha":715,"x_min":0,"x_max":0,"o":"m 413 31 b 21 435 101 -106 -243 111 b 376 558 129 569 275 589 b 296 225 540 506 579 314 b 121 178 251 213 188 194 b 358 124 139 111 224 81 b 711 418 481 163 654 292 l 796 365 b 413 31 769 289 592 108 m 132 271 b 243 313 174 285 211 300 b 335 456 382 372 399 444 b 204 379 303 460 264 443 b 132 271 169 342 146 304 "},"é":{"ha":715,"x_min":0,"x_max":0,"o":"m 413 31 b 21 435 101 -106 -243 111 b 376 558 129 569 275 589 b 296 225 540 506 579 314 b 121 178 251 213 188 194 b 358 124 139 111 224 81 b 711 418 481 163 654 292 l 796 365 b 413 31 769 289 592 108 m 132 271 b 243 313 174 285 211 300 b 335 456 382 372 399 444 b 204 379 303 460 264 443 b 132 271 169 342 146 304 m 258 728 b 524 967 350 783 458 868 b 614 801 603 982 640 890 b 267 638 529 715 379 661 b 258 728 239 644 242 697 "},"ě":{"ha":715,"x_min":0,"x_max":0,"o":"m 413 31 b 21 435 101 -106 -243 111 b 376 558 129 569 275 589 b 296 225 540 506 579 314 b 121 178 251 213 188 194 b 358 124 139 111 224 81 b 711 418 481 163 654 292 l 796 365 b 413 31 769 289 592 108 m 132 271 b 243 313 174 285 211 300 b 335 456 382 372 399 444 b 204 379 303 460 264 443 b 132 271 169 342 146 304 m 189 832 b 299 932 206 869 244 922 b 376 769 313 896 342 836 b 554 933 414 806 476 865 b 619 813 582 913 619 867 b 419 624 536 758 465 688 b 311 668 378 631 324 643 b 189 832 307 713 290 739 "},"ȩ":{"ha":715,"x_min":0,"x_max":0,"o":"m 413 31 b 168 -7 329 -6 243 -17 l 136 -33 b 265 -289 294 -56 351 -185 b -158 -321 175 -396 -47 -415 b -119 -254 -160 -300 -147 -267 b 82 -215 -42 -287 36 -272 b -56 -114 126 -157 90 -97 l -12 -42 l 76 15 b 21 435 -74 76 -142 235 b 376 558 129 569 275 589 b 296 225 540 506 579 314 b 121 178 251 213 188 194 b 358 124 139 111 224 81 b 711 418 481 163 654 292 l 796 365 b 413 31 769 289 592 108 m 132 271 b 243 313 174 285 211 300 b 335 456 382 372 399 444 b 204 379 303 460 264 443 b 132 271 169 342 146 304 "},"ê":{"ha":715,"x_min":0,"x_max":0,"o":"m 413 31 b 21 435 101 -106 -243 111 b 376 558 129 569 275 589 b 296 225 540 506 579 314 b 121 178 251 213 188 194 b 358 124 139 111 224 81 b 711 418 481 163 654 292 l 796 365 b 413 31 769 289 592 108 m 132 271 b 243 313 174 285 211 300 b 335 456 382 372 399 444 b 204 379 303 460 264 443 b 132 271 169 342 146 304 m 190 718 b 389 907 272 772 343 843 b 499 863 431 900 486 888 b 619 700 500 818 517 792 b 510 599 601 661 561 608 b 433 761 496 635 467 696 b 254 597 396 725 332 665 b 190 718 225 619 188 664 "},"ế":{"ha":715,"x_min":0,"x_max":0,"o":"m 413 31 b 21 435 101 -106 -243 111 b 376 558 129 569 275 589 b 296 225 540 506 579 314 b 121 178 251 213 188 194 b 358 124 139 111 224 81 b 711 418 481 163 654 292 l 796 365 b 413 31 769 289 592 108 m 132 271 b 243 313 174 285 211 300 b 335 456 382 372 399 444 b 204 379 303 460 264 443 b 132 271 169 342 146 304 m 163 704 b 361 892 244 758 315 829 l 351 890 b 343 981 324 897 326 950 b 608 1219 435 1036 543 1121 b 699 1054 688 1235 725 1143 b 363 893 617 971 474 918 b 471 849 404 886 458 874 b 592 686 472 804 489 778 b 482 585 574 647 533 594 b 406 747 468 621 439 682 b 226 583 368 711 304 651 b 163 704 197 606 160 650 "},"ệ":{"ha":715,"x_min":0,"x_max":0,"o":"m 413 31 b 21 435 101 -106 -243 111 b 376 558 129 569 275 589 b 296 225 540 506 579 314 b 121 178 251 213 188 194 b 358 124 139 111 224 81 b 711 418 481 163 654 292 l 796 365 b 413 31 769 289 592 108 m -56 -187 b 117 -47 -39 -168 36 -131 b 269 -150 122 -57 176 -128 b 67 -333 225 -208 144 -293 b -56 -187 25 -299 -31 -239 m 132 271 b 243 313 174 285 211 300 b 335 456 382 372 399 444 b 204 379 303 460 264 443 b 132 271 169 342 146 304 m 190 718 b 389 907 272 772 343 843 b 499 863 431 900 486 888 b 619 700 500 818 517 792 b 510 599 601 661 561 608 b 433 761 496 635 467 696 b 254 597 396 725 332 665 b 190 718 225 619 188 664 "},"ề":{"ha":715,"x_min":0,"x_max":0,"o":"m 413 31 b 21 435 101 -106 -243 111 b 376 558 129 569 275 589 b 296 225 540 506 579 314 b 121 178 251 213 188 194 b 358 124 139 111 224 81 b 711 418 481 163 654 292 l 796 365 b 413 31 769 289 592 108 m 132 271 b 243 313 174 285 211 300 b 335 456 382 372 399 444 b 204 379 303 460 264 443 b 132 271 169 342 146 304 m 172 724 b 371 913 254 778 325 849 b 481 868 413 906 468 893 b 601 706 482 824 499 797 b 492 604 583 667 543 614 b 415 767 478 640 449 701 b 236 603 378 731 314 671 b 172 724 207 625 169 669 m 350 1031 b 507 1172 360 1101 435 1181 b 676 997 532 1097 608 1036 b 639 921 683 974 665 928 b 350 1031 532 931 401 964 "},"ể":{"ha":715,"x_min":0,"x_max":0,"o":"m 413 31 b 21 435 101 -106 -243 111 b 376 558 129 569 275 589 b 296 225 540 506 579 314 b 121 178 251 213 188 194 b 358 124 139 111 224 81 b 711 418 481 163 654 292 l 796 365 b 413 31 769 289 592 108 m 132 271 b 243 313 174 285 211 300 b 335 456 382 372 399 444 b 204 379 303 460 264 443 b 132 271 169 342 146 304 m 196 738 b 392 924 276 790 346 860 l 367 915 l 338 974 b 579 1207 556 1046 610 1168 b 475 1214 549 1242 503 1228 b 450 1271 454 1219 440 1243 b 763 1322 565 1372 696 1397 b 400 925 838 1232 744 1039 b 504 882 440 918 492 906 b 625 719 506 838 522 811 b 515 618 607 681 567 628 b 439 781 501 654 472 715 b 260 617 401 744 338 685 b 196 738 231 639 193 683 "},"ễ":{"ha":715,"x_min":0,"x_max":0,"o":"m 413 31 b 21 435 101 -106 -243 111 b 376 558 129 569 275 589 b 296 225 540 506 579 314 b 121 178 251 213 188 194 b 358 124 139 111 224 81 b 711 418 481 163 654 292 l 796 365 b 413 31 769 289 592 108 m 132 271 b 243 313 174 285 211 300 b 335 456 382 372 399 444 b 204 379 303 460 264 443 b 132 271 169 342 146 304 m 190 749 b 389 938 272 803 343 874 b 499 893 431 931 486 918 b 619 731 500 849 517 822 b 510 629 601 692 561 639 b 433 792 496 665 467 726 b 254 628 396 756 332 696 b 190 749 225 650 188 694 m 293 1097 b 578 1099 569 1344 536 1082 b 642 1174 617 1114 636 1146 b 797 1100 711 1206 817 1197 b 522 961 697 985 564 951 b 467 1082 472 969 478 1083 b 410 963 444 1079 410 1008 b 293 1097 328 932 279 1042 "},"ë":{"ha":715,"x_min":0,"x_max":0,"o":"m 413 31 b 21 435 101 -106 -243 111 b 376 558 129 569 275 589 b 296 225 540 506 579 314 b 121 178 251 213 188 194 b 358 124 139 111 224 81 b 711 418 481 163 654 292 l 796 365 b 413 31 769 289 592 108 m 132 271 b 243 313 174 285 211 300 b 335 456 382 372 399 444 b 204 379 303 460 264 443 b 132 271 169 342 146 304 m 151 767 b 324 907 168 786 244 826 b 418 825 328 897 363 856 b 540 926 451 849 494 881 b 693 824 546 917 600 846 b 490 640 647 765 567 681 b 407 725 468 658 435 690 b 274 621 372 690 326 649 b 151 767 232 657 175 715 "},"ė":{"ha":715,"x_min":0,"x_max":0,"o":"m 413 31 b 21 435 101 -106 -243 111 b 376 558 129 569 275 589 b 296 225 540 506 579 314 b 121 178 251 213 188 194 b 358 124 139 111 224 81 b 711 418 481 163 654 292 l 796 365 b 413 31 769 289 592 108 m 132 271 b 243 313 174 285 211 300 b 335 456 382 372 399 444 b 204 379 303 460 264 443 b 132 271 169 342 146 304 m 271 794 b 443 935 288 814 363 851 b 596 832 449 925 503 854 b 393 649 551 774 471 689 b 271 794 351 685 296 743 "},"ẹ":{"ha":715,"x_min":0,"x_max":0,"o":"m 413 31 b 21 435 101 -106 -243 111 b 376 558 129 569 275 589 b 296 225 540 506 579 314 b 121 178 251 213 188 194 b 358 124 139 111 224 81 b 711 418 481 163 654 292 l 796 365 b 413 31 769 289 592 108 m -56 -187 b 117 -47 -39 -168 36 -131 b 269 -150 122 -57 176 -128 b 67 -333 225 -208 144 -293 b -56 -187 25 -299 -31 -239 m 132 271 b 243 313 174 285 211 300 b 335 456 382 372 399 444 b 204 379 303 460 264 443 b 132 271 169 342 146 304 "},"è":{"ha":715,"x_min":0,"x_max":0,"o":"m 413 31 b 21 435 101 -106 -243 111 b 376 558 129 569 275 589 b 296 225 540 506 579 314 b 121 178 251 213 188 194 b 358 124 139 111 224 81 b 711 418 481 163 654 292 l 796 365 b 413 31 769 289 592 108 m 132 271 b 243 313 174 285 211 300 b 335 456 382 372 399 444 b 204 379 303 460 264 443 b 132 271 169 342 146 304 m 256 758 b 413 900 265 829 340 908 b 582 725 438 825 514 764 b 544 649 589 701 571 656 b 256 758 438 658 307 692 "},"ẻ":{"ha":715,"x_min":0,"x_max":0,"o":"m 413 31 b 21 435 101 -106 -243 111 b 376 558 129 569 275 589 b 296 225 540 506 579 314 b 121 178 251 213 188 194 b 358 124 139 111 224 81 b 711 418 481 163 654 292 l 796 365 b 413 31 769 289 592 108 m 132 271 b 243 313 174 285 211 300 b 335 456 382 372 399 444 b 204 379 303 460 264 443 b 132 271 169 342 146 304 m 219 688 b 461 921 438 760 492 882 b 357 928 431 956 385 942 b 332 985 336 933 322 957 b 644 1036 447 1086 578 1111 b 249 629 722 943 621 740 l 219 688 "},"ē":{"ha":715,"x_min":0,"x_max":0,"o":"m 413 31 b 21 435 101 -106 -243 111 b 376 558 129 569 275 589 b 296 225 540 506 579 314 b 121 178 251 213 188 194 b 358 124 139 111 224 81 b 711 418 481 163 654 292 l 796 365 b 413 31 769 289 592 108 m 132 271 b 243 313 174 285 211 300 b 335 456 382 372 399 444 b 204 379 303 460 264 443 b 132 271 169 342 146 304 m 163 704 b 208 810 157 732 185 779 b 574 810 342 797 485 792 b 563 654 619 778 585 686 b 163 704 378 615 169 696 "},"ę":{"ha":715,"x_min":0,"x_max":0,"o":"m 413 31 b 242 -10 356 6 297 -7 b 53 -224 68 -83 25 -187 b 157 -231 83 -258 129 -244 b 182 -287 178 -236 192 -260 b -131 -339 68 -389 -64 -414 b 103 7 -196 -261 -136 -107 b 21 435 -65 58 -151 224 b 376 558 129 569 275 589 b 296 225 540 506 579 314 b 121 178 251 213 188 194 b 358 124 139 111 224 81 b 711 418 481 163 654 292 l 796 365 b 413 31 769 289 592 108 m 132 271 b 243 313 174 285 211 300 b 335 456 382 372 399 444 b 204 379 303 460 264 443 b 132 271 169 342 146 304 "},"ẽ":{"ha":715,"x_min":0,"x_max":0,"o":"m 413 31 b 21 435 101 -106 -243 111 b 376 558 129 569 275 589 b 296 225 540 506 579 314 b 121 178 251 213 188 194 b 358 124 139 111 224 81 b 711 418 481 163 654 292 l 796 365 b 413 31 769 289 592 108 m 132 271 b 243 313 174 285 211 300 b 335 456 382 372 399 444 b 204 379 303 460 264 443 b 132 271 169 342 146 304 m 181 800 b 465 801 457 1047 424 785 b 529 876 504 817 524 849 b 685 803 599 908 704 900 b 410 664 585 688 451 654 b 354 785 360 672 365 786 b 297 665 332 782 297 711 b 181 800 215 635 167 744 "},"ə":{"ha":715,"x_min":0,"x_max":0,"o":"m 228 522 b 619 119 539 658 883 442 b 264 -4 511 -17 365 -36 b 344 329 100 47 61 239 b 519 375 389 340 453 358 b 282 431 501 442 417 472 b -71 136 160 392 -14 261 l -156 188 b 228 522 -129 264 49 446 m 306 99 b 436 174 338 94 376 110 b 508 282 471 211 494 249 b 397 240 467 267 431 253 b 306 99 258 182 242 108 "},"f":{"ha":522,"x_min":0,"x_max":0,"o":"m 51 -387 b 28 354 -176 -386 -118 -18 b -19 400 0 375 -21 393 b 103 529 -21 492 40 533 b 397 1018 194 728 304 911 b 586 888 465 1022 581 931 b 240 392 454 738 335 561 b 519 407 301 350 471 307 l 603 353 b 268 261 564 242 396 226 b 51 -387 282 49 242 -387 m 42 -246 b 161 239 97 -274 167 -35 b 42 -246 39 -12 -15 -218 "},"g":{"ha":864,"x_min":0,"x_max":0,"o":"m 168 -286 b -207 -246 -29 -381 -176 -324 b 25 -7 -258 -106 -142 -21 b 11 422 -126 19 -151 225 b 433 464 161 606 367 596 b 471 517 444 482 457 500 b 633 410 497 514 624 458 b 574 278 610 354 588 311 b 474 60 564 253 528 163 b 589 103 511 72 550 86 b 861 407 699 147 796 274 l 944 353 b 701 47 910 263 819 124 b 393 -71 608 -14 500 -50 b 168 -286 332 -162 256 -246 m -40 -196 b 125 -178 -14 -232 58 -231 b 206 -97 153 -157 179 -129 b 60 -103 151 -101 101 -103 b -40 -196 -58 -104 -76 -147 m 108 -6 b 278 13 160 -4 217 1 b 331 118 299 47 317 83 b 142 3 268 61 204 21 b 108 -6 131 0 119 -3 m 169 140 b 376 331 229 156 308 240 l 383 357 b 196 367 369 444 310 492 b 169 140 56 215 64 110 "},"ğ":{"ha":864,"x_min":0,"x_max":0,"o":"m 168 -286 b -207 -246 -29 -381 -176 -324 b 25 -7 -258 -106 -142 -21 b 11 422 -126 19 -151 225 b 433 464 161 606 367 596 b 471 517 444 482 457 500 b 633 410 497 514 624 458 b 574 278 610 354 588 311 b 474 60 564 253 528 163 b 589 103 511 72 550 86 b 861 407 699 147 796 274 l 944 353 b 701 47 910 263 819 124 b 393 -71 608 -14 500 -50 b 168 -286 332 -162 256 -246 m -40 -196 b 125 -178 -14 -232 58 -231 b 206 -97 153 -157 179 -129 b 60 -103 151 -101 101 -103 b -40 -196 -58 -104 -76 -147 m 108 -6 b 278 13 160 -4 217 1 b 331 118 299 47 317 83 b 142 3 268 61 204 21 b 108 -6 131 0 119 -3 m 132 775 b 344 800 215 864 339 850 b 504 807 336 671 425 654 b 631 772 572 847 646 818 b 132 775 514 551 174 522 m 169 140 b 376 331 229 156 308 240 l 383 357 b 196 367 369 444 310 492 b 169 140 56 215 64 110 "},"ǧ":{"ha":864,"x_min":0,"x_max":0,"o":"m 168 -286 b -207 -246 -29 -381 -176 -324 b 25 -7 -258 -106 -142 -21 b 11 422 -126 19 -151 225 b 433 464 161 606 367 596 b 471 517 444 482 457 500 b 633 410 497 514 624 458 b 574 278 610 354 588 311 b 474 60 564 253 528 163 b 589 103 511 72 550 86 b 861 407 699 147 796 274 l 944 353 b 701 47 910 263 819 124 b 393 -71 608 -14 500 -50 b 168 -286 332 -162 256 -246 m -40 -196 b 125 -178 -14 -232 58 -231 b 206 -97 153 -157 179 -129 b 60 -103 151 -101 101 -103 b -40 -196 -58 -104 -76 -147 m 108 -6 b 278 13 160 -4 217 1 b 331 118 299 47 317 83 b 142 3 268 61 204 21 b 108 -6 131 0 119 -3 m 156 789 b 265 889 172 826 211 879 b 343 726 279 853 308 793 b 521 890 381 763 443 822 b 586 769 549 869 586 824 b 386 581 503 715 432 644 b 278 625 344 588 290 600 b 156 789 274 669 257 696 m 169 140 b 376 331 229 156 308 240 l 383 357 b 196 367 369 444 310 492 b 169 140 56 215 64 110 "},"ĝ":{"ha":864,"x_min":0,"x_max":0,"o":"m 168 -286 b -207 -246 -29 -381 -176 -324 b 25 -7 -258 -106 -142 -21 b 11 422 -126 19 -151 225 b 218 557 75 500 149 543 b 157 675 189 579 154 622 b 356 864 239 729 310 800 b 465 819 397 857 453 844 b 586 657 467 775 483 749 b 476 556 568 618 528 565 b 400 718 463 592 433 653 b 225 558 364 683 301 625 b 433 464 315 574 396 538 b 471 517 444 482 457 500 b 633 410 497 514 624 458 b 574 278 610 354 588 311 b 474 60 564 253 528 163 b 589 103 511 72 550 86 b 861 407 699 147 796 274 l 944 353 b 701 47 910 263 819 124 b 393 -71 608 -14 500 -50 b 168 -286 332 -162 256 -246 m -40 -196 b 125 -178 -14 -232 58 -231 b 206 -97 153 -157 179 -129 b 60 -103 151 -101 101 -103 b -40 -196 -58 -104 -76 -147 m 108 -6 b 278 13 160 -4 217 1 b 331 118 299 47 317 83 b 142 3 268 61 204 21 b 108 -6 131 0 119 -3 m 169 140 b 376 331 229 156 308 240 l 383 357 b 196 367 369 444 310 492 b 169 140 56 215 64 110 "},"ģ":{"ha":864,"x_min":0,"x_max":0,"o":"m 168 -286 b -207 -246 -29 -381 -176 -324 b 25 -7 -258 -106 -142 -21 b 11 422 -126 19 -151 225 b 314 556 107 539 224 578 b 221 689 278 589 238 639 b 532 981 274 811 417 918 b 574 903 553 967 581 935 b 458 800 522 868 483 832 b 526 729 483 783 510 758 b 349 544 501 675 442 597 b 433 464 385 528 414 501 b 471 517 444 482 457 500 b 633 410 497 514 624 458 b 574 278 610 354 588 311 b 474 60 564 253 528 163 b 589 103 511 72 550 86 b 861 407 699 147 796 274 l 944 353 b 701 47 910 263 819 124 b 393 -71 608 -14 500 -50 b 168 -286 332 -162 256 -246 m -40 -196 b 125 -178 -14 -232 58 -231 b 206 -97 153 -157 179 -129 b 60 -103 151 -101 101 -103 b -40 -196 -58 -104 -76 -147 m 108 -6 b 278 13 160 -4 217 1 b 331 118 299 47 317 83 b 142 3 268 61 204 21 b 108 -6 131 0 119 -3 m 169 140 b 376 331 229 156 308 240 l 383 357 b 196 367 369 444 310 492 b 169 140 56 215 64 110 "},"ġ":{"ha":864,"x_min":0,"x_max":0,"o":"m 168 -286 b -207 -246 -29 -381 -176 -324 b 25 -7 -258 -106 -142 -21 b 11 422 -126 19 -151 225 b 433 464 161 606 367 596 b 471 517 444 482 457 500 b 633 410 497 514 624 458 b 574 278 610 354 588 311 b 474 60 564 253 528 163 b 589 103 511 72 550 86 b 861 407 699 147 796 274 l 944 353 b 701 47 910 263 819 124 b 393 -71 608 -14 500 -50 b 168 -286 332 -162 256 -246 m -40 -196 b 125 -178 -14 -232 58 -231 b 206 -97 153 -157 179 -129 b 60 -103 151 -101 101 -103 b -40 -196 -58 -104 -76 -147 m 108 -6 b 278 13 160 -4 217 1 b 331 118 299 47 317 83 b 142 3 268 61 204 21 b 108 -6 131 0 119 -3 m 169 140 b 376 331 229 156 308 240 l 383 357 b 196 367 369 444 310 492 b 169 140 56 215 64 110 m 238 751 b 410 892 254 771 329 808 b 563 789 415 882 469 811 b 360 606 518 731 438 646 b 238 751 318 642 263 700 "},"ḡ":{"ha":864,"x_min":0,"x_max":0,"o":"m 168 -286 b -207 -246 -29 -381 -176 -324 b 25 -7 -258 -106 -142 -21 b 11 422 -126 19 -151 225 b 433 464 161 606 367 596 b 471 517 444 482 457 500 b 633 410 497 514 624 458 b 574 278 610 354 588 311 b 474 60 564 253 528 163 b 589 103 511 72 550 86 b 861 407 699 147 796 274 l 944 353 b 701 47 910 263 819 124 b 393 -71 608 -14 500 -50 b 168 -286 332 -162 256 -246 m -40 -196 b 125 -178 -14 -232 58 -231 b 206 -97 153 -157 179 -129 b 60 -103 151 -101 101 -103 b -40 -196 -58 -104 -76 -147 m 108 -6 b 278 13 160 -4 217 1 b 331 118 299 47 317 83 b 142 3 268 61 204 21 b 108 -6 131 0 119 -3 m 129 661 b 175 767 124 689 151 736 b 540 767 308 754 451 749 b 529 611 586 735 551 643 b 129 661 344 572 136 653 m 169 140 b 376 331 229 156 308 240 l 383 357 b 196 367 369 444 310 492 b 169 140 56 215 64 110 "},"ǥ":{"ha":863,"x_min":0,"x_max":0,"o":"m 288 382 b 374 394 317 388 346 392 b 196 367 350 454 292 472 b 169 140 56 215 64 110 b 299 236 207 150 253 188 b 200 201 264 228 232 217 b 288 382 186 271 242 344 m -207 -246 b 25 -7 -258 -106 -142 -21 b 11 422 -126 19 -151 225 b 433 464 161 606 367 596 b 471 517 444 482 457 500 b 633 410 497 514 624 458 l 622 385 b 679 365 644 379 664 372 b 639 233 681 304 668 275 b 563 250 619 240 593 246 b 474 60 546 210 515 139 b 589 103 511 72 550 86 b 861 407 699 147 796 274 l 944 353 b 701 47 910 263 819 124 b 393 -71 608 -14 500 -50 b 168 -286 332 -162 256 -246 b -207 -246 -29 -381 -176 -324 m -40 -196 b 125 -178 -14 -232 58 -231 b 206 -97 153 -157 179 -129 b 60 -103 151 -101 101 -103 b -40 -196 -58 -104 -76 -147 m 108 -6 b 278 13 160 -4 217 1 b 331 118 299 47 317 83 b 142 3 268 61 204 21 b 108 -6 131 0 119 -3 "},"h":{"ha":710,"x_min":0,"x_max":0,"o":"m -57 -29 b -193 53 -121 -24 -167 8 b 182 949 -140 82 206 835 b 353 901 231 967 293 963 b 168 368 368 854 274 600 b 313 514 217 415 267 464 l 315 517 b 315 517 315 517 315 517 l 319 521 b 325 514 321 519 324 517 b 476 410 365 503 469 454 b 415 156 406 247 374 197 b 706 407 458 117 603 190 l 790 353 b 388 3 739 226 593 -3 b 211 286 251 7 190 139 b -10 19 136 211 60 115 b -40 -24 -21 1 -32 -14 l -49 -36 "},"ħ":{"ha":710,"x_min":0,"x_max":0,"o":"m -57 -29 b -193 53 -121 -24 -167 8 b 50 533 -164 69 -46 306 b -50 492 17 522 -18 508 b 54 729 -67 585 -1 681 b 133 743 81 735 107 739 b 182 949 168 840 189 918 b 353 901 231 967 293 963 b 322 751 360 882 347 826 b 521 708 406 747 476 732 b 472 535 521 628 507 590 b 253 564 422 553 343 565 b 168 368 226 500 199 433 b 313 514 217 415 267 464 l 315 517 b 315 517 315 517 315 517 l 319 521 b 325 514 321 519 324 517 b 476 410 365 503 469 454 b 415 156 406 247 374 197 b 706 407 458 117 603 190 l 790 353 b 388 3 739 226 593 -3 b 211 286 251 7 190 139 b -10 19 136 211 60 115 b -40 -24 -21 1 -32 -14 l -49 -36 "},"ḫ":{"ha":710,"x_min":0,"x_max":0,"o":"m -57 -29 b -193 53 -121 -24 -167 8 b 182 949 -140 82 206 835 b 353 901 231 967 293 963 b 168 368 368 854 274 600 b 313 514 217 415 267 464 l 315 517 b 315 517 315 517 315 517 l 319 521 b 325 514 321 519 324 517 b 476 410 365 503 469 454 b 415 156 406 247 374 197 b 706 407 458 117 603 190 l 790 353 b 388 3 739 226 593 -3 b 211 286 251 7 190 139 b -10 19 136 211 60 115 b -40 -24 -21 1 -32 -14 l -49 -36 m -67 -124 b 146 -99 17 -35 140 -49 b 306 -92 138 -228 226 -244 b 432 -126 374 -51 447 -81 b -67 -124 315 -347 -25 -376 "},"ĥ":{"ha":710,"x_min":0,"x_max":0,"o":"m -57 -29 b -193 53 -121 -24 -167 8 b 182 949 -140 82 206 835 b 353 901 231 967 293 963 b 168 368 368 854 274 600 b 313 514 217 415 267 464 l 315 517 b 315 517 315 517 315 517 l 319 521 b 325 514 321 519 324 517 b 476 410 365 503 469 454 b 415 156 406 247 374 197 b 706 407 458 117 603 190 l 790 353 b 388 3 739 226 593 -3 b 211 286 251 7 190 139 b -10 19 136 211 60 115 b -40 -24 -21 1 -32 -14 l -49 -36 m 339 1003 b 538 1192 421 1057 492 1128 b 647 1147 579 1185 635 1172 b 768 985 649 1103 665 1076 b 658 883 750 946 710 893 b 582 1046 644 919 615 981 b 403 882 544 1010 481 950 b 339 1003 374 904 336 949 "},"ḥ":{"ha":710,"x_min":0,"x_max":0,"o":"m -57 -29 b -193 53 -121 -24 -167 8 b 182 949 -140 82 206 835 b 353 901 231 967 293 963 b 168 368 368 854 274 600 b 313 514 217 415 267 464 l 315 517 b 315 517 315 517 315 517 l 319 521 b 325 514 321 519 324 517 b 476 410 365 503 469 454 b 415 156 406 247 374 197 b 706 407 458 117 603 190 l 790 353 b 388 3 739 226 593 -3 b 211 286 251 7 190 139 b -10 19 136 211 60 115 b -40 -24 -21 1 -32 -14 l -49 -36 m -8 -228 b 164 -87 8 -208 83 -171 b 317 -190 169 -97 224 -168 b 114 -374 272 -249 192 -333 b -8 -228 72 -339 17 -279 "},"ẖ":{"ha":710,"x_min":0,"x_max":0,"o":"m -57 -29 b -193 53 -121 -24 -167 8 b 182 949 -140 82 206 835 b 353 901 231 967 293 963 b 168 368 368 854 274 600 b 313 514 217 415 267 464 l 315 517 b 315 517 315 517 315 517 l 319 521 b 325 514 321 519 324 517 b 476 410 365 503 469 454 b 415 156 406 247 374 197 b 706 407 458 117 603 190 l 790 353 b 388 3 739 226 593 -3 b 211 286 251 7 190 139 b -10 19 136 211 60 115 b -40 -24 -21 1 -32 -14 l -49 -36 m -57 -214 b -10 -108 -62 -186 -33 -137 b 356 -107 124 -121 267 -126 b 344 -262 401 -139 367 -231 b -57 -214 160 -301 -49 -221 "},"i":{"ha":457,"x_min":0,"x_max":0,"o":"m 135 3 b 61 517 -72 10 -104 311 b 225 410 94 513 215 458 b 161 156 154 247 119 197 b 453 407 207 115 350 190 l 538 353 b 135 3 486 226 340 -3 m 111 653 b 238 781 111 722 168 781 b 365 653 308 781 365 722 b 238 526 365 582 308 526 b 111 653 168 526 111 582 "},"ı":{"ha":457,"x_min":0,"x_max":0,"o":"m 135 3 b 61 517 -72 10 -104 311 b 225 410 94 513 215 458 b 161 156 154 247 119 197 b 453 407 207 115 350 190 l 538 353 b 135 3 486 226 340 -3 "},"í":{"ha":457,"x_min":0,"x_max":0,"o":"m 135 3 b 61 517 -72 10 -104 311 b 225 410 94 513 215 458 b 161 156 154 247 119 197 b 453 407 207 115 350 190 l 538 353 b 135 3 486 226 340 -3 m 61 651 b 326 890 153 707 261 792 b 417 725 406 906 443 814 b 69 561 332 639 182 585 b 61 651 42 568 44 621 "},"ǐ":{"ha":457,"x_min":0,"x_max":0,"o":"m 135 3 b 61 517 -72 10 -104 311 b 225 410 94 513 215 458 b 161 156 154 247 119 197 b 453 407 207 115 350 190 l 538 353 b 135 3 486 226 340 -3 m -8 756 b 101 856 8 793 47 846 b 179 693 115 819 144 760 b 357 857 217 729 279 789 b 422 736 385 836 422 790 b 222 547 339 682 268 611 b 114 592 181 554 126 567 b -8 756 110 636 93 663 "},"î":{"ha":457,"x_min":0,"x_max":0,"o":"m 135 3 b 61 517 -72 10 -104 311 b 225 410 94 513 215 458 b 161 156 154 247 119 197 b 453 407 207 115 350 190 l 538 353 b 135 3 486 226 340 -3 m -8 642 b 192 831 75 696 146 767 b 301 786 233 824 289 811 b 422 624 303 742 319 715 b 313 522 404 585 364 532 b 236 685 299 558 269 619 b 57 521 199 649 135 589 b -8 642 28 543 -10 588 "},"ï":{"ha":457,"x_min":0,"x_max":0,"o":"m 135 3 b 61 517 -72 10 -104 311 b 225 410 94 513 215 458 b 161 156 154 247 119 197 b 453 407 207 115 350 190 l 538 353 b 135 3 486 226 340 -3 m -46 690 b 126 831 -29 710 47 750 b 221 749 131 821 165 779 b 343 850 254 772 297 804 b 496 747 349 840 403 769 b 293 564 450 689 369 604 b 210 649 271 582 238 614 b 76 544 175 614 129 572 b -46 690 35 581 -22 639 "},"ḯ":{"ha":457,"x_min":0,"x_max":0,"o":"m 135 3 b 61 517 -72 10 -104 311 b 225 410 94 513 215 458 b 161 156 154 247 119 197 b 453 407 207 115 350 190 l 538 353 b 135 3 486 226 340 -3 m -46 690 b 126 831 -29 710 47 750 b 221 749 131 821 165 779 b 343 850 254 772 297 804 b 496 747 349 840 403 769 b 293 564 450 689 369 604 b 210 649 271 582 238 614 b 76 544 175 614 129 572 b -46 690 35 581 -22 639 m 163 933 b 428 1172 254 989 363 1074 b 518 1007 507 1188 544 1096 b 171 843 433 921 283 867 b 163 933 143 850 146 903 "},"ị":{"ha":457,"x_min":0,"x_max":0,"o":"m 135 3 b 61 517 -72 10 -104 311 b 225 410 94 513 215 458 b 161 156 154 247 119 197 b 453 407 207 115 350 190 l 538 353 b 135 3 486 226 340 -3 m -176 -228 b -4 -87 -160 -208 -85 -171 b 149 -190 1 -97 56 -168 b -54 -374 104 -249 24 -333 b -176 -228 -96 -339 -151 -279 m 111 653 b 238 781 111 722 168 781 b 365 653 308 781 365 722 b 238 526 365 582 308 526 b 111 653 168 526 111 582 "},"ì":{"ha":457,"x_min":0,"x_max":0,"o":"m 135 3 b 61 517 -72 10 -104 311 b 225 410 94 513 215 458 b 161 156 154 247 119 197 b 453 407 207 115 350 190 l 538 353 b 135 3 486 226 340 -3 m 58 682 b 215 824 68 753 143 832 b 385 649 240 749 317 688 b 347 572 392 625 374 579 b 58 682 240 582 110 615 "},"ỉ":{"ha":457,"x_min":0,"x_max":0,"o":"m 135 3 b 61 517 -72 10 -104 311 b 225 410 94 513 215 458 b 161 156 154 247 119 197 b 453 407 207 115 350 190 l 538 353 b 135 3 486 226 340 -3 m 22 611 b 264 844 240 683 294 806 b 160 851 233 879 188 865 b 135 908 139 857 125 881 b 447 960 250 1010 381 1035 b 51 553 525 867 424 664 l 22 611 "},"ĳ":{"ha":907,"x_min":0,"x_max":0,"o":"m 135 3 b 61 517 -72 10 -104 311 b 225 410 94 513 215 458 b 161 156 154 247 119 197 b 453 407 207 115 350 190 b 511 517 476 461 497 501 b 676 410 544 513 664 457 b 617 278 651 354 629 313 b 501 35 606 251 564 147 b 904 407 660 90 847 285 l 988 353 b 386 -139 960 276 753 -42 b -8 -257 224 -390 24 -336 b 263 -43 -58 -140 69 -40 b 308 56 278 -12 293 21 b 135 3 257 22 199 1 m 111 653 b 238 781 111 722 168 781 b 365 653 308 781 365 722 b 238 526 365 582 308 526 b 111 653 168 526 111 582 m 132 -196 b 192 -156 135 -206 167 -192 b 132 -196 133 -161 122 -181 m 540 653 b 665 781 540 722 597 781 b 794 653 736 781 794 722 b 665 526 794 582 736 526 b 540 653 597 526 540 582 "},"ī":{"ha":457,"x_min":0,"x_max":0,"o":"m 135 3 b 61 517 -72 10 -104 311 b 225 410 94 513 215 458 b 161 156 154 247 119 197 b 453 407 207 115 350 190 l 538 353 b 135 3 486 226 340 -3 m -36 628 b 11 733 -42 656 -12 703 b 376 733 144 721 288 715 b 365 578 422 701 388 610 b -36 628 181 539 -28 619 "},"į":{"ha":457,"x_min":0,"x_max":0,"o":"m 246 858 b 399 756 251 849 306 778 b 196 572 354 697 274 613 b 74 718 154 608 99 667 b 246 858 90 738 165 775 m -186 -318 b 49 28 -251 -240 -190 -86 b 61 517 -78 106 -78 344 b 225 410 94 513 215 458 b 161 156 154 247 119 197 b 453 407 207 115 350 190 l 538 353 b 172 4 489 235 358 25 b -3 -203 10 -68 -31 -168 b 101 -210 28 -237 74 -224 b 126 -267 122 -215 136 -239 b -186 -318 13 -368 -119 -393 "},"ɨ":{"ha":457,"x_min":0,"x_max":0,"o":"m 135 3 b -44 243 13 7 -49 114 b -153 192 -82 232 -118 215 b -69 429 -165 285 -114 381 b 14 446 -42 436 -14 442 b 61 517 28 471 43 494 b 203 443 86 514 164 481 b 297 408 242 436 274 424 b 258 235 297 328 286 290 b 160 261 235 246 200 256 b 161 156 139 208 136 181 b 453 407 207 115 350 190 l 538 353 b 135 3 486 226 340 -3 m 74 718 b 246 858 90 738 165 775 b 399 756 251 849 306 778 b 196 572 354 697 274 613 b 74 718 154 608 99 667 "},"ĩ":{"ha":457,"x_min":0,"x_max":0,"o":"m 135 3 b 61 517 -72 10 -104 311 b 225 410 94 513 215 458 b 161 156 154 247 119 197 b 453 407 207 115 350 190 l 538 353 b 135 3 486 226 340 -3 m -17 724 b 268 725 260 971 226 708 b 332 800 307 740 326 772 b 488 726 401 832 507 824 b 213 588 388 611 254 578 b 157 708 163 596 168 710 b 100 589 135 706 100 635 b -17 724 18 558 -31 668 "},"j":{"ha":450,"x_min":0,"x_max":0,"o":"m -325 -196 b -265 -156 -322 -206 -290 -192 b -325 -196 -324 -161 -335 -181 m -465 -257 b -196 -43 -515 -140 -387 -40 b 54 517 -97 151 7 468 b 219 410 88 513 207 457 b 160 278 194 354 172 313 b 44 35 149 251 107 147 b 447 407 203 90 390 285 l 531 353 b -72 -139 503 276 296 -42 b -465 -257 -235 -390 -433 -336 m 83 653 b 208 781 83 722 140 781 b 338 653 279 781 338 722 b 208 526 338 582 279 526 b 83 653 140 526 83 582 "},"ȷ":{"ha":450,"x_min":0,"x_max":0,"o":"m -325 -196 b -265 -156 -322 -206 -290 -192 b -325 -196 -324 -161 -335 -181 m -465 -257 b -196 -43 -515 -140 -387 -40 b 54 517 -97 151 7 468 b 219 410 88 513 207 457 b 160 278 194 354 172 313 b 44 35 149 251 107 147 b 447 407 203 90 390 285 l 531 353 b -72 -139 503 276 296 -42 b -465 -257 -235 -390 -433 -336 "},"ĵ":{"ha":450,"x_min":0,"x_max":0,"o":"m -325 -196 b -265 -156 -322 -206 -290 -192 b -325 -196 -324 -161 -335 -181 m -465 -257 b -196 -43 -515 -140 -387 -40 b 50 511 -100 146 0 449 l 32 496 b -33 617 3 518 -35 563 b 167 806 50 671 121 742 b 276 761 208 799 264 786 b 397 599 278 717 294 690 b 288 497 379 560 339 507 b 211 660 274 533 244 594 b 56 517 178 628 122 576 b 219 410 90 511 207 457 b 160 278 194 354 172 313 b 44 35 149 251 107 147 b 447 407 203 90 390 285 l 531 353 b -72 -139 503 276 296 -42 b -465 -257 -235 -390 -433 -336 "},"k":{"ha":724,"x_min":0,"x_max":0,"o":"m -46 -31 b -194 53 -118 -26 -167 6 b 182 949 -142 82 206 835 b 350 901 229 967 290 963 b 150 331 367 850 261 572 b 439 563 257 375 378 454 b 581 463 472 560 569 513 b 278 272 517 344 385 289 b 403 133 278 178 319 138 b 719 407 468 131 615 190 l 806 353 b 374 -32 753 228 578 -18 b 104 233 176 -43 107 86 b -46 -31 44 110 -11 8 "},"ǩ":{"ha":724,"x_min":0,"x_max":0,"o":"m -46 -31 b -194 53 -118 -26 -167 6 b 182 949 -142 82 206 835 b 350 901 229 967 290 963 b 150 331 367 850 261 572 b 439 563 257 375 378 454 b 581 463 472 560 569 513 b 278 272 517 344 385 289 b 403 133 278 178 319 138 b 719 407 468 131 615 190 l 806 353 b 374 -32 753 228 578 -18 b 104 233 176 -43 107 86 b -46 -31 44 110 -11 8 m 311 971 b 421 1071 328 1008 367 1061 b 499 908 435 1035 464 975 b 676 1072 536 944 599 1004 b 742 951 704 1051 742 1006 b 542 763 658 897 588 826 b 433 807 500 769 446 782 b 311 971 429 851 413 878 "},"ķ":{"ha":724,"x_min":0,"x_max":0,"o":"m -46 -31 b -194 53 -118 -26 -167 6 b 182 949 -142 82 206 835 b 350 901 229 967 290 963 b 150 331 367 850 261 572 b 439 563 257 375 378 454 b 581 463 472 560 569 513 b 278 272 517 344 385 289 b 403 133 278 178 319 138 b 719 407 468 131 615 190 l 806 353 b 374 -32 753 228 578 -18 b 104 233 176 -43 107 86 b -46 -31 44 110 -11 8 m -112 -299 b -14 -211 -69 -269 -36 -239 b -72 -147 -37 -196 -58 -175 b 94 19 -50 -99 7 -26 b 196 -115 131 -8 179 -60 b -76 -369 150 -221 25 -315 b -112 -299 -94 -357 -121 -329 "},"ḵ":{"ha":724,"x_min":0,"x_max":0,"o":"m -46 -31 b -194 53 -118 -26 -167 6 b 182 949 -142 82 206 835 b 350 901 229 967 290 963 b 150 331 367 850 261 572 b 439 563 257 375 378 454 b 581 463 472 560 569 513 b 278 272 517 344 385 289 b 403 133 278 178 319 138 b 719 407 468 131 615 190 l 806 353 b 374 -32 753 228 578 -18 b 104 233 176 -43 107 86 b -46 -31 44 110 -11 8 m -149 -137 b -101 -32 -154 -110 -125 -61 b 264 -31 32 -44 175 -50 b 253 -186 310 -62 275 -154 b -149 -137 68 -225 -140 -144 "},"l":{"ha":499,"x_min":0,"x_max":0,"o":"m 158 3 b 324 1018 -224 49 31 683 b 513 888 392 1022 507 931 b 150 143 135 458 46 194 b 496 407 233 103 392 190 l 579 353 b 158 3 528 228 364 -22 "},"ĺ":{"ha":499,"x_min":0,"x_max":0,"o":"m 158 3 b 324 1018 -224 49 31 683 l 333 1018 b 344 1085 329 1038 335 1065 b 610 1324 436 1140 544 1225 b 700 1158 689 1339 726 1247 b 388 1003 624 1081 494 1029 b 513 888 447 975 508 918 b 150 143 135 458 46 194 b 496 407 233 103 392 190 l 579 353 b 158 3 528 228 364 -22 "},"ľ":{"ha":499,"x_min":0,"x_max":0,"o":"m 158 3 b 324 1018 -224 49 31 683 b 513 888 392 1022 507 931 b 150 143 135 458 46 194 b 496 407 233 103 392 190 l 579 353 b 158 3 528 228 364 -22 m 528 938 b 794 932 583 978 693 1032 b 657 607 740 901 644 713 b 542 583 636 579 572 575 b 528 938 532 590 485 753 "},"ļ":{"ha":499,"x_min":0,"x_max":0,"o":"m 158 3 b 324 1018 -224 49 31 683 b 513 888 392 1022 507 931 b 150 143 135 458 46 194 b 496 407 233 103 392 190 l 579 353 b 158 3 528 228 364 -22 m -126 -375 b -28 -287 -83 -346 -50 -315 b -86 -224 -51 -272 -72 -251 b 81 -57 -64 -175 -7 -103 b 182 -192 117 -85 165 -136 b -90 -446 136 -297 11 -392 b -126 -375 -108 -433 -135 -406 "},"ḷ":{"ha":499,"x_min":0,"x_max":0,"o":"m 158 3 b 324 1018 -224 49 31 683 b 513 888 392 1022 507 931 b 150 143 135 458 46 194 b 496 407 233 103 392 190 l 579 353 b 158 3 528 228 364 -22 m -114 -228 b 58 -87 -97 -208 -22 -171 b 211 -190 64 -97 118 -168 b 8 -374 167 -249 86 -333 b -114 -228 -33 -339 -89 -279 "},"ḹ":{"ha":499,"x_min":0,"x_max":0,"o":"m 158 3 b 324 1018 -224 49 31 683 b 513 888 392 1022 507 931 b 150 143 135 458 46 194 b 496 407 233 103 392 190 l 579 353 b 158 3 528 228 364 -22 m -114 -228 b 58 -87 -97 -208 -22 -171 b 211 -190 64 -97 118 -168 b 8 -374 167 -249 86 -333 b -114 -228 -33 -339 -89 -279 m 249 1061 b 294 1167 243 1089 271 1136 b 660 1167 428 1154 571 1149 b 649 1011 706 1135 671 1043 b 249 1061 464 972 256 1053 "},"ḻ":{"ha":499,"x_min":0,"x_max":0,"o":"m 158 3 b 324 1018 -224 49 31 683 b 513 888 392 1022 507 931 b 150 143 135 458 46 194 b 496 407 233 103 392 190 l 579 353 b 158 3 528 228 364 -22 m -162 -214 b -115 -108 -168 -186 -139 -137 b 250 -107 18 -121 161 -126 b 239 -262 296 -139 261 -231 b -162 -214 54 -301 -154 -221 "},"ł":{"ha":499,"x_min":0,"x_max":0,"o":"m 158 3 b 132 744 -133 38 -54 418 b -60 682 67 733 0 714 b 44 919 -76 775 -11 871 b 263 943 119 935 193 942 b 324 1018 282 969 303 994 b 508 900 386 1022 488 946 l 511 899 b 511 893 511 897 511 896 l 513 888 b 511 886 513 888 511 886 b 463 725 510 814 496 778 b 392 743 443 732 419 739 b 150 143 117 400 58 189 b 496 407 233 103 392 190 l 579 353 b 158 3 528 228 364 -22 "},"m":{"ha":1022,"x_min":0,"x_max":0,"o":"m -4 -31 b -8 -36 -6 -32 -7 -35 l -17 -29 b -147 51 -78 -21 -119 10 b -3 508 -75 119 8 372 b 165 460 47 525 108 521 b 165 371 169 438 169 407 b 261 476 194 404 226 439 l 261 478 b 264 479 263 478 263 479 l 267 482 b 271 482 268 482 269 482 b 428 429 317 496 375 485 b 428 311 433 403 433 358 b 624 514 490 374 558 444 l 625 517 b 625 517 625 517 625 517 l 629 521 b 635 515 631 519 633 517 b 789 410 678 503 778 454 b 726 156 718 247 682 197 b 1018 407 771 115 914 190 l 1104 353 b 699 3 1050 226 904 -3 b 525 293 561 7 500 143 b 356 -32 453 210 385 90 b 207 49 286 -28 238 3 b 260 335 238 149 254 243 b 86 106 200 275 143 193 b 0 -31 61 54 32 7 "},"ḿ":{"ha":1022,"x_min":0,"x_max":0,"o":"m -4 -31 b -8 -36 -6 -32 -7 -35 l -17 -29 b -147 51 -78 -21 -119 10 b -3 508 -75 119 8 372 b 165 460 47 525 108 521 b 165 371 169 438 169 407 b 261 476 194 404 226 439 l 261 478 b 264 479 263 478 263 479 l 267 482 b 271 482 268 482 269 482 b 428 429 317 496 375 485 b 428 311 433 403 433 358 b 624 514 490 374 558 444 l 625 517 b 625 517 625 517 625 517 l 629 521 b 635 515 631 519 633 517 b 789 410 678 503 778 454 b 726 156 718 247 682 197 b 1018 407 771 115 914 190 l 1104 353 b 699 3 1050 226 904 -3 b 525 293 561 7 500 143 b 356 -32 453 210 385 90 b 207 49 286 -28 238 3 b 260 335 238 149 254 243 b 86 106 200 275 143 193 b 0 -31 61 54 32 7 m 311 603 b 576 842 403 658 511 743 b 667 676 656 857 693 765 b 319 513 582 590 432 536 b 311 603 292 519 294 572 "},"ṁ":{"ha":1022,"x_min":0,"x_max":0,"o":"m -4 -31 b -8 -36 -6 -32 -7 -35 l -17 -29 b -147 51 -78 -21 -119 10 b -3 508 -75 119 8 372 b 165 460 47 525 108 521 b 165 371 169 438 169 407 b 261 476 194 404 226 439 l 261 478 b 264 479 263 478 263 479 l 267 482 b 271 482 268 482 269 482 b 428 429 317 496 375 485 b 428 311 433 403 433 358 b 624 514 490 374 558 444 l 625 517 b 625 517 625 517 625 517 l 629 521 b 635 515 631 519 633 517 b 789 410 678 503 778 454 b 726 156 718 247 682 197 b 1018 407 771 115 914 190 l 1104 353 b 699 3 1050 226 904 -3 b 525 293 561 7 500 143 b 356 -32 453 210 385 90 b 207 49 286 -28 238 3 b 260 335 238 149 254 243 b 86 106 200 275 143 193 b 0 -31 61 54 32 7 m 324 669 b 496 810 340 689 415 726 b 649 707 501 800 556 729 b 446 524 604 649 524 564 b 324 669 404 560 349 618 "},"ṃ":{"ha":1022,"x_min":0,"x_max":0,"o":"m -4 -31 b -8 -36 -6 -32 -7 -35 l -17 -29 b -147 51 -78 -21 -119 10 b -3 508 -75 119 8 372 b 165 460 47 525 108 521 b 165 371 169 438 169 407 b 261 476 194 404 226 439 l 261 478 b 264 479 263 478 263 479 l 267 482 b 271 482 268 482 269 482 b 428 429 317 496 375 485 b 428 311 433 403 433 358 b 624 514 490 374 558 444 l 625 517 b 625 517 625 517 625 517 l 629 521 b 635 515 631 519 633 517 b 789 410 678 503 778 454 b 726 156 718 247 682 197 b 1018 407 771 115 914 190 l 1104 353 b 699 3 1050 226 904 -3 b 525 293 561 7 500 143 b 356 -32 453 210 385 90 b 207 49 286 -28 238 3 b 260 335 238 149 254 243 b 86 106 200 275 143 193 b 0 -31 61 54 32 7 m 58 -174 b 231 -33 75 -154 150 -117 b 383 -136 236 -43 290 -114 b 181 -319 339 -194 258 -279 b 58 -174 139 -285 83 -225 "},"n":{"ha":786,"x_min":0,"x_max":0,"o":"m 21 -29 b -115 51 -43 -24 -87 7 b -11 513 -44 119 0 375 b 157 464 38 529 100 525 b 154 282 165 425 165 358 b 389 514 229 351 315 433 l 392 517 b 392 517 392 517 392 517 l 396 521 b 401 514 397 519 400 517 b 556 410 442 503 547 454 b 490 156 483 247 449 197 b 783 407 536 115 681 190 l 867 353 b 465 3 817 226 669 -3 b 289 289 329 7 267 140 b 68 21 213 214 136 118 b 42 -17 60 8 51 -4 l 29 -36 "},"ń":{"ha":786,"x_min":0,"x_max":0,"o":"m 21 -29 b -115 51 -43 -24 -87 7 b -11 513 -44 119 0 375 b 157 464 38 529 100 525 b 154 282 165 425 165 358 b 389 514 229 351 315 433 l 392 517 b 392 517 392 517 392 517 l 396 521 b 401 514 397 519 400 517 b 556 410 442 503 547 454 b 490 156 483 247 449 197 b 783 407 536 115 681 190 l 867 353 b 465 3 817 226 669 -3 b 289 289 329 7 267 140 b 68 21 213 214 136 118 b 42 -17 60 8 51 -4 l 29 -36 m 186 629 b 451 868 278 685 386 769 b 542 703 531 883 568 792 b 194 539 457 617 307 563 b 186 629 167 546 169 599 "},"ň":{"ha":786,"x_min":0,"x_max":0,"o":"m 21 -29 b -115 51 -43 -24 -87 7 b -11 513 -44 119 0 375 b 157 464 38 529 100 525 b 154 282 165 425 165 358 b 389 514 229 351 315 433 l 392 517 b 392 517 392 517 392 517 l 396 521 b 401 514 397 519 400 517 b 556 410 442 503 547 454 b 490 156 483 247 449 197 b 783 407 536 115 681 190 l 867 353 b 465 3 817 226 669 -3 b 289 289 329 7 267 140 b 68 21 213 214 136 118 b 42 -17 60 8 51 -4 l 29 -36 m 117 733 b 226 833 133 771 172 824 b 304 671 240 797 269 738 b 482 835 342 707 404 767 b 547 714 510 814 547 768 b 347 525 464 660 393 589 b 239 569 306 532 251 544 b 117 733 235 614 218 640 "},"ņ":{"ha":786,"x_min":0,"x_max":0,"o":"m 21 -29 b -115 51 -43 -24 -87 7 b -11 513 -44 119 0 375 b 157 464 38 529 100 525 b 154 282 165 425 165 358 b 389 514 229 351 315 433 l 392 517 b 392 517 392 517 392 517 l 396 521 b 401 514 397 519 400 517 b 556 410 442 503 547 454 b 490 156 483 247 449 197 b 783 407 536 115 681 190 l 867 353 b 465 3 817 226 669 -3 b 289 289 329 7 267 140 b 68 21 213 214 136 118 b 42 -17 60 8 51 -4 l 29 -36 m -53 -325 b 46 -237 -10 -296 24 -265 b -12 -174 22 -222 1 -201 b 154 -7 10 -125 67 -53 b 256 -142 190 -35 239 -86 b -17 -396 210 -247 85 -342 b -53 -325 -35 -383 -61 -356 "},"ṅ":{"ha":786,"x_min":0,"x_max":0,"o":"m 21 -29 b -115 51 -43 -24 -87 7 b -11 513 -44 119 0 375 b 157 464 38 529 100 525 b 154 282 165 425 165 358 b 389 514 229 351 315 433 l 392 517 b 392 517 392 517 392 517 l 396 521 b 401 514 397 519 400 517 b 556 410 442 503 547 454 b 490 156 483 247 449 197 b 783 407 536 115 681 190 l 867 353 b 465 3 817 226 669 -3 b 289 289 329 7 267 140 b 68 21 213 214 136 118 b 42 -17 60 8 51 -4 l 29 -36 m 199 696 b 371 836 215 715 290 753 b 524 733 376 826 431 756 b 321 550 479 675 399 590 b 199 696 279 586 224 644 "},"ṇ":{"ha":786,"x_min":0,"x_max":0,"o":"m 21 -29 b -115 51 -43 -24 -87 7 b -11 513 -44 119 0 375 b 157 464 38 529 100 525 b 154 282 165 425 165 358 b 389 514 229 351 315 433 l 392 517 b 392 517 392 517 392 517 l 396 521 b 401 514 397 519 400 517 b 556 410 442 503 547 454 b 490 156 483 247 449 197 b 783 407 536 115 681 190 l 867 353 b 465 3 817 226 669 -3 b 289 289 329 7 267 140 b 68 21 213 214 136 118 b 42 -17 60 8 51 -4 l 29 -36 m -40 -178 b 132 -37 -24 -158 51 -121 b 285 -140 138 -47 192 -118 b 82 -324 240 -199 160 -283 b -40 -178 40 -289 -15 -229 "},"ṉ":{"ha":786,"x_min":0,"x_max":0,"o":"m 21 -29 b -115 51 -43 -24 -87 7 b -11 513 -44 119 0 375 b 157 464 38 529 100 525 b 154 282 165 425 165 358 b 389 514 229 351 315 433 l 392 517 b 392 517 392 517 392 517 l 396 521 b 401 514 397 519 400 517 b 556 410 442 503 547 454 b 490 156 483 247 449 197 b 783 407 536 115 681 190 l 867 353 b 465 3 817 226 669 -3 b 289 289 329 7 267 140 b 68 21 213 214 136 118 b 42 -17 60 8 51 -4 l 29 -36 m -89 -164 b -42 -58 -94 -136 -65 -87 b 324 -57 92 -71 235 -76 b 313 -212 369 -89 335 -181 b -89 -164 128 -251 -81 -171 "},"ñ":{"ha":786,"x_min":0,"x_max":0,"o":"m 21 -29 b -115 51 -43 -24 -87 7 b -11 513 -44 119 0 375 b 157 464 38 529 100 525 b 154 282 165 425 165 358 b 389 514 229 351 315 433 l 392 517 b 392 517 392 517 392 517 l 396 521 b 401 514 397 519 400 517 b 556 410 442 503 547 454 b 490 156 483 247 449 197 b 783 407 536 115 681 190 l 867 353 b 465 3 817 226 669 -3 b 289 289 329 7 267 140 b 68 21 213 214 136 118 b 42 -17 60 8 51 -4 l 29 -36 m 108 701 b 393 703 385 949 351 686 b 457 778 432 718 451 750 b 613 704 526 810 632 801 b 338 565 513 589 379 556 b 282 686 288 574 293 688 b 225 567 260 683 225 613 b 108 701 143 536 94 646 "},"ŋ":{"ha":786,"x_min":0,"x_max":0,"o":"m 21 -29 b -115 51 -43 -24 -87 7 b -11 513 -44 119 0 375 b 157 464 38 529 100 525 b 154 282 165 425 165 358 b 388 511 229 351 313 431 l 392 517 b 392 517 392 517 392 517 l 396 521 b 401 515 397 519 400 517 b 557 410 444 503 546 453 b 497 278 532 354 510 313 b 382 35 486 251 444 147 b 785 407 540 90 728 285 l 868 353 b 267 -139 840 276 633 -42 b -128 -257 104 -390 -96 -336 b 143 -43 -178 -140 -50 -40 b 282 281 190 51 239 174 b 68 21 208 207 133 114 b 42 -17 60 8 51 -4 l 29 -36 m 13 -196 b 72 -156 15 -206 47 -192 b 13 -196 14 -161 3 -181 "},"o":{"ha":690,"x_min":0,"x_max":0,"o":"m 156 3 b 256 597 -222 49 -19 597 b 318 547 285 597 304 575 b 492 499 367 594 442 594 b 513 351 510 465 514 407 b 688 407 581 339 656 346 l 771 353 b 486 250 736 257 604 232 b 156 3 429 129 332 -19 m 149 143 b 357 282 208 113 306 179 b 278 342 331 290 297 318 b 265 415 269 367 265 392 b 149 143 125 367 60 188 "},"ó":{"ha":690,"x_min":0,"x_max":0,"o":"m 156 3 b 256 597 -222 49 -19 597 b 318 547 285 597 304 575 b 492 499 367 594 442 594 b 513 351 510 465 514 407 b 688 407 581 339 656 346 l 771 353 b 486 250 736 257 604 232 b 156 3 429 129 332 -19 m 149 143 b 357 282 208 113 306 179 b 278 342 331 290 297 318 b 265 415 269 367 265 392 b 149 143 125 367 60 188 m 221 733 b 486 972 313 789 421 874 b 576 807 565 988 603 896 b 229 643 492 721 342 667 b 221 733 201 650 204 703 "},"ǒ":{"ha":690,"x_min":0,"x_max":0,"o":"m 156 3 b 256 597 -222 49 -19 597 b 318 547 285 597 304 575 b 492 499 367 594 442 594 b 513 351 510 465 514 407 b 688 407 581 339 656 346 l 771 353 b 486 250 736 257 604 232 b 156 3 429 129 332 -19 m 149 143 b 357 282 208 113 306 179 b 278 342 331 290 297 318 b 265 415 269 367 265 392 b 149 143 125 367 60 188 m 151 838 b 261 938 168 875 207 928 b 339 775 275 901 304 842 b 517 939 376 811 439 871 b 582 818 544 918 582 872 b 382 629 499 764 428 693 b 274 674 340 636 286 649 b 151 838 269 718 253 744 "},"ô":{"ha":690,"x_min":0,"x_max":0,"o":"m 156 3 b 256 597 -222 49 -19 597 b 318 547 285 597 304 575 b 492 499 367 594 442 594 b 513 351 510 465 514 407 b 688 407 581 339 656 346 l 771 353 b 486 250 736 257 604 232 b 156 3 429 129 332 -19 m 149 143 b 357 282 208 113 306 179 b 278 342 331 290 297 318 b 265 415 269 367 265 392 b 149 143 125 367 60 188 m 153 724 b 351 913 235 778 306 849 b 461 868 393 906 449 893 b 582 706 463 824 479 797 b 472 604 564 667 524 614 b 396 767 458 640 429 701 b 217 603 358 731 294 671 b 153 724 188 625 150 669 "},"ố":{"ha":690,"x_min":0,"x_max":0,"o":"m 156 3 b 256 597 -222 49 -19 597 b 318 547 285 597 304 575 b 492 499 367 594 442 594 b 513 351 510 465 514 407 b 688 407 581 339 656 346 l 771 353 b 486 250 736 257 604 232 b 156 3 429 129 332 -19 m 125 710 b 324 897 207 764 278 835 l 314 896 b 306 986 286 903 289 956 b 571 1225 397 1042 506 1126 b 661 1060 650 1240 688 1149 b 325 899 579 976 436 924 b 433 854 367 892 421 879 b 554 692 435 810 451 783 b 444 590 536 653 496 600 b 368 753 431 626 401 688 b 189 589 331 717 267 657 b 125 710 160 611 122 656 m 149 143 b 357 282 208 113 306 179 b 278 342 331 290 297 318 b 265 415 269 367 265 392 b 149 143 125 367 60 188 "},"ộ":{"ha":690,"x_min":0,"x_max":0,"o":"m 156 3 b 256 597 -222 49 -19 597 b 318 547 285 597 304 575 b 492 499 367 594 442 594 b 513 351 510 465 514 407 b 688 407 581 339 656 346 l 771 353 b 486 250 736 257 604 232 b 156 3 429 129 332 -19 m -37 -144 b 135 -4 -21 -125 54 -87 b 288 -107 140 -14 194 -85 b 85 -290 243 -165 163 -250 b -37 -144 43 -256 -12 -196 m 149 143 b 357 282 208 113 306 179 b 278 342 331 290 297 318 b 265 415 269 367 265 392 b 149 143 125 367 60 188 m 153 724 b 351 913 235 778 306 849 b 461 868 393 906 449 893 b 582 706 463 824 479 797 b 472 604 564 667 524 614 b 396 767 458 640 429 701 b 217 603 358 731 294 671 b 153 724 188 625 150 669 "},"ồ":{"ha":690,"x_min":0,"x_max":0,"o":"m 156 3 b 256 597 -222 49 -19 597 b 318 547 285 597 304 575 b 492 499 367 594 442 594 b 513 351 510 465 514 407 b 688 407 581 339 656 346 l 771 353 b 486 250 736 257 604 232 b 156 3 429 129 332 -19 m 135 729 b 333 918 217 783 288 854 b 443 874 375 911 431 899 b 564 711 444 829 461 803 b 454 610 546 672 506 619 b 378 772 440 646 411 707 b 199 608 340 736 276 676 b 135 729 169 631 132 675 m 149 143 b 357 282 208 113 306 179 b 278 342 331 290 297 318 b 265 415 269 367 265 392 b 149 143 125 367 60 188 m 313 1036 b 469 1178 322 1107 397 1186 b 639 1003 494 1103 571 1042 b 601 926 646 979 628 933 b 313 1036 494 936 364 969 "},"ổ":{"ha":690,"x_min":0,"x_max":0,"o":"m 156 3 b 256 597 -222 49 -19 597 b 318 547 285 597 304 575 b 492 499 367 594 442 594 b 513 351 510 465 514 407 b 688 407 581 339 656 346 l 771 353 b 486 250 736 257 604 232 b 156 3 429 129 332 -19 m 149 143 b 357 282 208 113 306 179 b 278 342 331 290 297 318 b 265 415 269 367 265 392 b 149 143 125 367 60 188 m 158 743 b 354 929 239 796 308 865 l 329 921 l 300 979 b 542 1213 518 1051 572 1174 b 438 1219 511 1247 465 1233 b 413 1276 417 1225 403 1249 b 725 1328 528 1378 658 1403 b 363 931 800 1238 707 1044 b 467 888 403 924 454 911 b 588 725 468 843 485 817 b 478 624 569 686 529 633 b 401 786 464 660 435 721 b 222 622 364 750 300 690 b 158 743 193 644 156 689 "},"ỗ":{"ha":690,"x_min":0,"x_max":0,"o":"m 156 3 b 256 597 -222 49 -19 597 b 318 547 285 597 304 575 b 492 499 367 594 442 594 b 513 351 510 465 514 407 b 688 407 581 339 656 346 l 771 353 b 486 250 736 257 604 232 b 156 3 429 129 332 -19 m 149 143 b 357 282 208 113 306 179 b 278 342 331 290 297 318 b 265 415 269 367 265 392 b 149 143 125 367 60 188 m 153 754 b 351 943 235 808 306 879 b 461 899 393 936 449 924 b 582 736 463 854 479 828 b 472 635 564 697 524 644 b 396 797 458 671 429 732 b 217 633 358 761 294 701 b 153 754 188 656 150 700 m 256 1103 b 540 1104 532 1350 499 1088 b 604 1179 579 1119 599 1151 b 760 1106 674 1211 779 1203 b 485 967 660 990 526 957 b 429 1088 435 975 440 1089 b 372 968 407 1085 372 1014 b 256 1103 290 938 242 1047 "},"ö":{"ha":690,"x_min":0,"x_max":0,"o":"m 156 3 b 256 597 -222 49 -19 597 b 318 547 285 597 304 575 b 492 499 367 594 442 594 b 513 351 510 465 514 407 b 688 407 581 339 656 346 l 771 353 b 486 250 736 257 604 232 b 156 3 429 129 332 -19 m 114 772 b 286 913 131 792 207 832 b 381 831 290 903 325 861 b 503 932 414 854 457 886 b 656 829 508 922 563 851 b 453 646 610 771 529 686 b 369 731 431 664 397 696 b 236 626 335 696 289 654 b 114 772 194 663 138 721 m 149 143 b 357 282 208 113 306 179 b 278 342 331 290 297 318 b 265 415 269 367 265 392 b 149 143 125 367 60 188 "},"ȫ":{"ha":690,"x_min":0,"x_max":0,"o":"m 156 3 b 256 597 -222 49 -19 597 b 318 547 285 597 304 575 b 492 499 367 594 442 594 b 513 351 510 465 514 407 b 688 407 581 339 656 346 l 771 353 b 486 250 736 257 604 232 b 156 3 429 129 332 -19 m 114 772 b 286 913 131 792 207 832 b 381 831 290 903 325 861 b 503 932 414 854 457 886 b 226 992 358 935 232 985 b 272 1097 221 1019 249 1067 b 638 1097 406 1085 549 1079 b 626 942 683 1065 649 974 b 503 932 586 933 544 931 b 656 829 511 919 564 851 b 453 646 610 771 529 686 b 369 731 431 664 397 696 b 236 626 335 696 289 654 b 114 772 194 663 138 721 m 149 143 b 357 282 208 113 306 179 b 278 342 331 290 297 318 b 265 415 269 367 265 392 b 149 143 125 367 60 188 "},"ọ":{"ha":690,"x_min":0,"x_max":0,"o":"m 156 3 b 256 597 -222 49 -19 597 b 318 547 285 597 304 575 b 492 499 367 594 442 594 b 513 351 510 465 514 407 b 688 407 581 339 656 346 l 771 353 b 486 250 736 257 604 232 b 156 3 429 129 332 -19 m -37 -144 b 135 -4 -21 -125 54 -87 b 288 -107 140 -14 194 -85 b 85 -290 243 -165 163 -250 b -37 -144 43 -256 -12 -196 m 149 143 b 357 282 208 113 306 179 b 278 342 331 290 297 318 b 265 415 269 367 265 392 b 149 143 125 367 60 188 "},"ò":{"ha":690,"x_min":0,"x_max":0,"o":"m 156 3 b 256 597 -222 49 -19 597 b 318 547 285 597 304 575 b 492 499 367 594 442 594 b 513 351 510 465 514 407 b 688 407 581 339 656 346 l 771 353 b 486 250 736 257 604 232 b 156 3 429 129 332 -19 m 149 143 b 357 282 208 113 306 179 b 278 342 331 290 297 318 b 265 415 269 367 265 392 b 149 143 125 367 60 188 m 218 764 b 375 906 228 835 303 914 b 544 731 400 831 476 769 b 507 654 551 707 533 661 b 218 764 400 664 269 697 "},"ỏ":{"ha":690,"x_min":0,"x_max":0,"o":"m 156 3 b 256 597 -222 49 -19 597 b 318 547 285 597 304 575 b 492 499 367 594 442 594 b 513 351 510 465 514 407 b 688 407 581 339 656 346 l 771 353 b 486 250 736 257 604 232 b 156 3 429 129 332 -19 m 149 143 b 357 282 208 113 306 179 b 278 342 331 290 297 318 b 265 415 269 367 265 392 b 149 143 125 367 60 188 m 182 693 b 424 926 400 765 454 888 b 319 933 393 961 347 947 b 294 990 299 939 285 963 b 607 1042 410 1092 540 1117 b 211 635 685 949 583 746 l 182 693 "},"ơ":{"ha":690,"x_min":0,"x_max":0,"o":"m 156 3 b 256 597 -222 49 -19 597 b 318 547 285 597 304 575 b 460 544 357 586 413 593 b 806 789 565 519 739 581 l 864 758 b 513 372 778 468 649 343 l 513 351 b 688 407 581 339 656 346 l 771 353 b 486 250 736 257 604 232 b 156 3 429 129 332 -19 m 149 143 b 357 282 208 113 306 179 b 278 342 331 290 297 318 b 265 415 269 367 265 392 b 149 143 125 367 60 188 "},"ớ":{"ha":690,"x_min":0,"x_max":0,"o":"m 156 3 b 256 597 -222 49 -19 597 b 318 547 285 597 304 575 b 460 544 357 586 413 593 b 806 789 565 519 739 581 l 864 758 b 513 372 778 468 649 343 l 513 351 b 688 407 581 339 656 346 l 771 353 b 486 250 736 257 604 232 b 156 3 429 129 332 -19 m 149 143 b 357 282 208 113 306 179 b 278 342 331 290 297 318 b 265 415 269 367 265 392 b 149 143 125 367 60 188 m 221 733 b 486 972 313 789 421 874 b 576 807 565 988 603 896 b 229 643 492 721 342 667 b 221 733 201 650 204 703 "},"ợ":{"ha":690,"x_min":0,"x_max":0,"o":"m 156 3 b 256 597 -222 49 -19 597 b 318 547 285 597 304 575 b 460 544 357 586 413 593 b 806 789 565 519 739 581 l 864 758 b 513 372 778 468 649 343 l 513 351 b 688 407 581 339 656 346 l 771 353 b 486 250 736 257 604 232 b 156 3 429 129 332 -19 m -37 -144 b 135 -4 -21 -125 54 -87 b 288 -107 140 -14 194 -85 b 85 -290 243 -165 163 -250 b -37 -144 43 -256 -12 -196 m 149 143 b 357 282 208 113 306 179 b 278 342 331 290 297 318 b 265 415 269 367 265 392 b 149 143 125 367 60 188 "},"ờ":{"ha":690,"x_min":0,"x_max":0,"o":"m 156 3 b 256 597 -222 49 -19 597 b 318 547 285 597 304 575 b 460 544 357 586 413 593 b 806 789 565 519 739 581 l 864 758 b 513 372 778 468 649 343 l 513 351 b 688 407 581 339 656 346 l 771 353 b 486 250 736 257 604 232 b 156 3 429 129 332 -19 m 149 143 b 357 282 208 113 306 179 b 278 342 331 290 297 318 b 265 415 269 367 265 392 b 149 143 125 367 60 188 m 218 764 b 375 906 228 835 303 914 b 544 731 400 831 476 769 b 507 654 551 707 533 661 b 218 764 400 664 269 697 "},"ở":{"ha":690,"x_min":0,"x_max":0,"o":"m 156 3 b 256 597 -222 49 -19 597 b 318 547 285 597 304 575 b 460 544 357 586 413 593 b 806 789 565 519 739 581 l 864 758 b 513 372 778 468 649 343 l 513 351 b 688 407 581 339 656 346 l 771 353 b 486 250 736 257 604 232 b 156 3 429 129 332 -19 m 149 143 b 357 282 208 113 306 179 b 278 342 331 290 297 318 b 265 415 269 367 265 392 b 149 143 125 367 60 188 m 182 693 b 424 926 400 765 454 888 b 319 933 393 961 347 947 b 294 990 299 939 285 963 b 607 1042 410 1092 540 1117 b 211 635 685 949 583 746 l 182 693 "}}}
